%TF.GenerationSoftware,KiCad,Pcbnew,(6.0.7)*%
%TF.CreationDate,2022-10-29T05:59:00-06:00*%
%TF.ProjectId,atmega-powersupply-v1,61746d65-6761-42d7-906f-776572737570,rev?*%
%TF.SameCoordinates,Original*%
%TF.FileFunction,Legend,Top*%
%TF.FilePolarity,Positive*%
%FSLAX46Y46*%
G04 Gerber Fmt 4.6, Leading zero omitted, Abs format (unit mm)*
G04 Created by KiCad (PCBNEW (6.0.7)) date 2022-10-29 05:59:00*
%MOMM*%
%LPD*%
G01*
G04 APERTURE LIST*
%ADD10C,0.150000*%
%ADD11C,0.300000*%
%ADD12C,0.120000*%
G04 APERTURE END LIST*
D10*
X176144609Y-110348780D02*
X176477942Y-111348780D01*
X176811276Y-110348780D01*
X177858895Y-111063066D02*
X178335085Y-111063066D01*
X177763657Y-111348780D02*
X178096990Y-110348780D01*
X178430323Y-111348780D01*
X179192228Y-111348780D02*
X179192228Y-110348780D01*
X179192228Y-111301161D02*
X179096990Y-111348780D01*
X178906514Y-111348780D01*
X178811276Y-111301161D01*
X178763657Y-111253542D01*
X178716038Y-111158304D01*
X178716038Y-110872590D01*
X178763657Y-110777352D01*
X178811276Y-110729733D01*
X178906514Y-110682114D01*
X179096990Y-110682114D01*
X179192228Y-110729733D01*
X179668419Y-110682114D02*
X179668419Y-111539257D01*
X179620800Y-111634495D01*
X179525561Y-111682114D01*
X179477942Y-111682114D01*
X179668419Y-110348780D02*
X179620800Y-110396400D01*
X179668419Y-110444019D01*
X179716038Y-110396400D01*
X179668419Y-110348780D01*
X179668419Y-110444019D01*
X180573180Y-110682114D02*
X180573180Y-111348780D01*
X180144609Y-110682114D02*
X180144609Y-111205923D01*
X180192228Y-111301161D01*
X180287466Y-111348780D01*
X180430323Y-111348780D01*
X180525561Y-111301161D01*
X180573180Y-111253542D01*
X181001752Y-111301161D02*
X181096990Y-111348780D01*
X181287466Y-111348780D01*
X181382704Y-111301161D01*
X181430323Y-111205923D01*
X181430323Y-111158304D01*
X181382704Y-111063066D01*
X181287466Y-111015447D01*
X181144609Y-111015447D01*
X181049371Y-110967828D01*
X181001752Y-110872590D01*
X181001752Y-110824971D01*
X181049371Y-110729733D01*
X181144609Y-110682114D01*
X181287466Y-110682114D01*
X181382704Y-110729733D01*
X181716038Y-110682114D02*
X182096990Y-110682114D01*
X181858895Y-110348780D02*
X181858895Y-111205923D01*
X181906514Y-111301161D01*
X182001752Y-111348780D01*
X182096990Y-111348780D01*
X181965885Y-53602000D02*
X181870647Y-53554380D01*
X181727790Y-53554380D01*
X181584933Y-53602000D01*
X181489695Y-53697238D01*
X181442076Y-53792476D01*
X181394457Y-53982952D01*
X181394457Y-54125809D01*
X181442076Y-54316285D01*
X181489695Y-54411523D01*
X181584933Y-54506761D01*
X181727790Y-54554380D01*
X181823028Y-54554380D01*
X181965885Y-54506761D01*
X182013504Y-54459142D01*
X182013504Y-54125809D01*
X181823028Y-54125809D01*
X182442076Y-53887714D02*
X182442076Y-54554380D01*
X182442076Y-53982952D02*
X182489695Y-53935333D01*
X182584933Y-53887714D01*
X182727790Y-53887714D01*
X182823028Y-53935333D01*
X182870647Y-54030571D01*
X182870647Y-54554380D01*
X183775409Y-54554380D02*
X183775409Y-53554380D01*
X183775409Y-54506761D02*
X183680171Y-54554380D01*
X183489695Y-54554380D01*
X183394457Y-54506761D01*
X183346838Y-54459142D01*
X183299219Y-54363904D01*
X183299219Y-54078190D01*
X183346838Y-53982952D01*
X183394457Y-53935333D01*
X183489695Y-53887714D01*
X183680171Y-53887714D01*
X183775409Y-53935333D01*
X185203980Y-53554380D02*
X185394457Y-53554380D01*
X185489695Y-53602000D01*
X185584933Y-53697238D01*
X185632552Y-53887714D01*
X185632552Y-54221047D01*
X185584933Y-54411523D01*
X185489695Y-54506761D01*
X185394457Y-54554380D01*
X185203980Y-54554380D01*
X185108742Y-54506761D01*
X185013504Y-54411523D01*
X184965885Y-54221047D01*
X184965885Y-53887714D01*
X185013504Y-53697238D01*
X185108742Y-53602000D01*
X185203980Y-53554380D01*
X186489695Y-53887714D02*
X186489695Y-54554380D01*
X186061123Y-53887714D02*
X186061123Y-54411523D01*
X186108742Y-54506761D01*
X186203980Y-54554380D01*
X186346838Y-54554380D01*
X186442076Y-54506761D01*
X186489695Y-54459142D01*
X186823028Y-53887714D02*
X187203980Y-53887714D01*
X186965885Y-53554380D02*
X186965885Y-54411523D01*
X187013504Y-54506761D01*
X187108742Y-54554380D01*
X187203980Y-54554380D01*
X182227790Y-50109428D02*
X182989695Y-50109428D01*
X182608742Y-50490380D02*
X182608742Y-49728476D01*
X184418266Y-49490380D02*
X184608742Y-49490380D01*
X184703980Y-49538000D01*
X184799219Y-49633238D01*
X184846838Y-49823714D01*
X184846838Y-50157047D01*
X184799219Y-50347523D01*
X184703980Y-50442761D01*
X184608742Y-50490380D01*
X184418266Y-50490380D01*
X184323028Y-50442761D01*
X184227790Y-50347523D01*
X184180171Y-50157047D01*
X184180171Y-49823714D01*
X184227790Y-49633238D01*
X184323028Y-49538000D01*
X184418266Y-49490380D01*
X185703980Y-49823714D02*
X185703980Y-50490380D01*
X185275409Y-49823714D02*
X185275409Y-50347523D01*
X185323028Y-50442761D01*
X185418266Y-50490380D01*
X185561123Y-50490380D01*
X185656361Y-50442761D01*
X185703980Y-50395142D01*
X186037314Y-49823714D02*
X186418266Y-49823714D01*
X186180171Y-49490380D02*
X186180171Y-50347523D01*
X186227790Y-50442761D01*
X186323028Y-50490380D01*
X186418266Y-50490380D01*
D11*
X52363714Y-28444000D02*
X53078000Y-28444000D01*
X52220857Y-28872571D02*
X52720857Y-27372571D01*
X53220857Y-28872571D01*
X53506571Y-27372571D02*
X54363714Y-27372571D01*
X53935142Y-28872571D02*
X53935142Y-27372571D01*
X54863714Y-28872571D02*
X54863714Y-27372571D01*
X55363714Y-28444000D01*
X55863714Y-27372571D01*
X55863714Y-28872571D01*
X57149428Y-28801142D02*
X57006571Y-28872571D01*
X56720857Y-28872571D01*
X56578000Y-28801142D01*
X56506571Y-28658285D01*
X56506571Y-28086857D01*
X56578000Y-27944000D01*
X56720857Y-27872571D01*
X57006571Y-27872571D01*
X57149428Y-27944000D01*
X57220857Y-28086857D01*
X57220857Y-28229714D01*
X56506571Y-28372571D01*
X58506571Y-27872571D02*
X58506571Y-29086857D01*
X58435142Y-29229714D01*
X58363714Y-29301142D01*
X58220857Y-29372571D01*
X58006571Y-29372571D01*
X57863714Y-29301142D01*
X58506571Y-28801142D02*
X58363714Y-28872571D01*
X58078000Y-28872571D01*
X57935142Y-28801142D01*
X57863714Y-28729714D01*
X57792285Y-28586857D01*
X57792285Y-28158285D01*
X57863714Y-28015428D01*
X57935142Y-27944000D01*
X58078000Y-27872571D01*
X58363714Y-27872571D01*
X58506571Y-27944000D01*
X59863714Y-28872571D02*
X59863714Y-28086857D01*
X59792285Y-27944000D01*
X59649428Y-27872571D01*
X59363714Y-27872571D01*
X59220857Y-27944000D01*
X59863714Y-28801142D02*
X59720857Y-28872571D01*
X59363714Y-28872571D01*
X59220857Y-28801142D01*
X59149428Y-28658285D01*
X59149428Y-28515428D01*
X59220857Y-28372571D01*
X59363714Y-28301142D01*
X59720857Y-28301142D01*
X59863714Y-28229714D01*
X61720857Y-28872571D02*
X61720857Y-27372571D01*
X62292285Y-27372571D01*
X62435142Y-27444000D01*
X62506571Y-27515428D01*
X62578000Y-27658285D01*
X62578000Y-27872571D01*
X62506571Y-28015428D01*
X62435142Y-28086857D01*
X62292285Y-28158285D01*
X61720857Y-28158285D01*
X63435142Y-28872571D02*
X63292285Y-28801142D01*
X63220857Y-28729714D01*
X63149428Y-28586857D01*
X63149428Y-28158285D01*
X63220857Y-28015428D01*
X63292285Y-27944000D01*
X63435142Y-27872571D01*
X63649428Y-27872571D01*
X63792285Y-27944000D01*
X63863714Y-28015428D01*
X63935142Y-28158285D01*
X63935142Y-28586857D01*
X63863714Y-28729714D01*
X63792285Y-28801142D01*
X63649428Y-28872571D01*
X63435142Y-28872571D01*
X64435142Y-27872571D02*
X64720857Y-28872571D01*
X65006571Y-28158285D01*
X65292285Y-28872571D01*
X65578000Y-27872571D01*
X66720857Y-28801142D02*
X66578000Y-28872571D01*
X66292285Y-28872571D01*
X66149428Y-28801142D01*
X66078000Y-28658285D01*
X66078000Y-28086857D01*
X66149428Y-27944000D01*
X66292285Y-27872571D01*
X66578000Y-27872571D01*
X66720857Y-27944000D01*
X66792285Y-28086857D01*
X66792285Y-28229714D01*
X66078000Y-28372571D01*
X67435142Y-28872571D02*
X67435142Y-27872571D01*
X67435142Y-28158285D02*
X67506571Y-28015428D01*
X67578000Y-27944000D01*
X67720857Y-27872571D01*
X67863714Y-27872571D01*
X69435142Y-28801142D02*
X69649428Y-28872571D01*
X70006571Y-28872571D01*
X70149428Y-28801142D01*
X70220857Y-28729714D01*
X70292285Y-28586857D01*
X70292285Y-28444000D01*
X70220857Y-28301142D01*
X70149428Y-28229714D01*
X70006571Y-28158285D01*
X69720857Y-28086857D01*
X69578000Y-28015428D01*
X69506571Y-27944000D01*
X69435142Y-27801142D01*
X69435142Y-27658285D01*
X69506571Y-27515428D01*
X69578000Y-27444000D01*
X69720857Y-27372571D01*
X70078000Y-27372571D01*
X70292285Y-27444000D01*
X71578000Y-27872571D02*
X71578000Y-28872571D01*
X70935142Y-27872571D02*
X70935142Y-28658285D01*
X71006571Y-28801142D01*
X71149428Y-28872571D01*
X71363714Y-28872571D01*
X71506571Y-28801142D01*
X71578000Y-28729714D01*
X72292285Y-27872571D02*
X72292285Y-29372571D01*
X72292285Y-27944000D02*
X72435142Y-27872571D01*
X72720857Y-27872571D01*
X72863714Y-27944000D01*
X72935142Y-28015428D01*
X73006571Y-28158285D01*
X73006571Y-28586857D01*
X72935142Y-28729714D01*
X72863714Y-28801142D01*
X72720857Y-28872571D01*
X72435142Y-28872571D01*
X72292285Y-28801142D01*
X73649428Y-27872571D02*
X73649428Y-29372571D01*
X73649428Y-27944000D02*
X73792285Y-27872571D01*
X74078000Y-27872571D01*
X74220857Y-27944000D01*
X74292285Y-28015428D01*
X74363714Y-28158285D01*
X74363714Y-28586857D01*
X74292285Y-28729714D01*
X74220857Y-28801142D01*
X74078000Y-28872571D01*
X73792285Y-28872571D01*
X73649428Y-28801142D01*
X75220857Y-28872571D02*
X75078000Y-28801142D01*
X75006571Y-28658285D01*
X75006571Y-27372571D01*
X75649428Y-27872571D02*
X76006571Y-28872571D01*
X76363714Y-27872571D02*
X76006571Y-28872571D01*
X75863714Y-29229714D01*
X75792285Y-29301142D01*
X75649428Y-29372571D01*
X78078000Y-28301142D02*
X79220857Y-28301142D01*
X80935142Y-27872571D02*
X81292285Y-28872571D01*
X81649428Y-27872571D01*
X83006571Y-28872571D02*
X82149428Y-28872571D01*
X82578000Y-28872571D02*
X82578000Y-27372571D01*
X82435142Y-27586857D01*
X82292285Y-27729714D01*
X82149428Y-27801142D01*
X85578000Y-28872571D02*
X84720857Y-28872571D01*
X85149428Y-28872571D02*
X85149428Y-27372571D01*
X85006571Y-27586857D01*
X84863714Y-27729714D01*
X84720857Y-27801142D01*
X86506571Y-27372571D02*
X86649428Y-27372571D01*
X86792285Y-27444000D01*
X86863714Y-27515428D01*
X86935142Y-27658285D01*
X87006571Y-27944000D01*
X87006571Y-28301142D01*
X86935142Y-28586857D01*
X86863714Y-28729714D01*
X86792285Y-28801142D01*
X86649428Y-28872571D01*
X86506571Y-28872571D01*
X86363714Y-28801142D01*
X86292285Y-28729714D01*
X86220857Y-28586857D01*
X86149428Y-28301142D01*
X86149428Y-27944000D01*
X86220857Y-27658285D01*
X86292285Y-27515428D01*
X86363714Y-27444000D01*
X86506571Y-27372571D01*
X88720857Y-27301142D02*
X87435142Y-29229714D01*
X89149428Y-27515428D02*
X89220857Y-27444000D01*
X89363714Y-27372571D01*
X89720857Y-27372571D01*
X89863714Y-27444000D01*
X89935142Y-27515428D01*
X90006571Y-27658285D01*
X90006571Y-27801142D01*
X89935142Y-28015428D01*
X89078000Y-28872571D01*
X90006571Y-28872571D01*
X90935142Y-27372571D02*
X91078000Y-27372571D01*
X91220857Y-27444000D01*
X91292285Y-27515428D01*
X91363714Y-27658285D01*
X91435142Y-27944000D01*
X91435142Y-28301142D01*
X91363714Y-28586857D01*
X91292285Y-28729714D01*
X91220857Y-28801142D01*
X91078000Y-28872571D01*
X90935142Y-28872571D01*
X90792285Y-28801142D01*
X90720857Y-28729714D01*
X90649428Y-28586857D01*
X90578000Y-28301142D01*
X90578000Y-27944000D01*
X90649428Y-27658285D01*
X90720857Y-27515428D01*
X90792285Y-27444000D01*
X90935142Y-27372571D01*
X92006571Y-27515428D02*
X92078000Y-27444000D01*
X92220857Y-27372571D01*
X92578000Y-27372571D01*
X92720857Y-27444000D01*
X92792285Y-27515428D01*
X92863714Y-27658285D01*
X92863714Y-27801142D01*
X92792285Y-28015428D01*
X91935142Y-28872571D01*
X92863714Y-28872571D01*
X93435142Y-27515428D02*
X93506571Y-27444000D01*
X93649428Y-27372571D01*
X94006571Y-27372571D01*
X94149428Y-27444000D01*
X94220857Y-27515428D01*
X94292285Y-27658285D01*
X94292285Y-27801142D01*
X94220857Y-28015428D01*
X93363714Y-28872571D01*
X94292285Y-28872571D01*
X96077999Y-28301142D02*
X97220857Y-28301142D01*
X99006571Y-28444000D02*
X99720857Y-28444000D01*
X98863714Y-28872571D02*
X99363714Y-27372571D01*
X99863714Y-28872571D01*
X100363714Y-27872571D02*
X100363714Y-28872571D01*
X100363714Y-28015428D02*
X100435142Y-27944000D01*
X100577999Y-27872571D01*
X100792285Y-27872571D01*
X100935142Y-27944000D01*
X101006571Y-28086857D01*
X101006571Y-28872571D01*
X102363714Y-28872571D02*
X102363714Y-27372571D01*
X102363714Y-28801142D02*
X102220857Y-28872571D01*
X101935142Y-28872571D01*
X101792285Y-28801142D01*
X101720857Y-28729714D01*
X101649428Y-28586857D01*
X101649428Y-28158285D01*
X101720857Y-28015428D01*
X101792285Y-27944000D01*
X101935142Y-27872571D01*
X102220857Y-27872571D01*
X102363714Y-27944000D01*
X103077999Y-28872571D02*
X103077999Y-27872571D01*
X103077999Y-28158285D02*
X103149428Y-28015428D01*
X103220857Y-27944000D01*
X103363714Y-27872571D01*
X103506571Y-27872571D01*
X104577999Y-28801142D02*
X104435142Y-28872571D01*
X104149428Y-28872571D01*
X104006571Y-28801142D01*
X103935142Y-28658285D01*
X103935142Y-28086857D01*
X104006571Y-27944000D01*
X104149428Y-27872571D01*
X104435142Y-27872571D01*
X104577999Y-27944000D01*
X104649428Y-28086857D01*
X104649428Y-28229714D01*
X103935142Y-28372571D01*
X105149428Y-27872571D02*
X105435142Y-28872571D01*
X105720857Y-28158285D01*
X106006571Y-28872571D01*
X106292285Y-27872571D01*
X108006571Y-28872571D02*
X108006571Y-27372571D01*
X108863714Y-28872571D02*
X108220857Y-28015428D01*
X108863714Y-27372571D02*
X108006571Y-28229714D01*
X109506571Y-28872571D02*
X109506571Y-27872571D01*
X109506571Y-28158285D02*
X109577999Y-28015428D01*
X109649428Y-27944000D01*
X109792285Y-27872571D01*
X109935142Y-27872571D01*
X110649428Y-28872571D02*
X110506571Y-28801142D01*
X110435142Y-28729714D01*
X110363714Y-28586857D01*
X110363714Y-28158285D01*
X110435142Y-28015428D01*
X110506571Y-27944000D01*
X110649428Y-27872571D01*
X110863714Y-27872571D01*
X111006571Y-27944000D01*
X111077999Y-28015428D01*
X111149428Y-28158285D01*
X111149428Y-28586857D01*
X111077999Y-28729714D01*
X111006571Y-28801142D01*
X110863714Y-28872571D01*
X110649428Y-28872571D01*
X111720857Y-28801142D02*
X111863714Y-28872571D01*
X112149428Y-28872571D01*
X112292285Y-28801142D01*
X112363714Y-28658285D01*
X112363714Y-28586857D01*
X112292285Y-28444000D01*
X112149428Y-28372571D01*
X111935142Y-28372571D01*
X111792285Y-28301142D01*
X111720857Y-28158285D01*
X111720857Y-28086857D01*
X111792285Y-27944000D01*
X111935142Y-27872571D01*
X112149428Y-27872571D01*
X112292285Y-27944000D01*
X113006571Y-28872571D02*
X113006571Y-27372571D01*
X113649428Y-28872571D02*
X113649428Y-28086857D01*
X113577999Y-27944000D01*
X113435142Y-27872571D01*
X113220857Y-27872571D01*
X113077999Y-27944000D01*
X113006571Y-28015428D01*
X114363714Y-28872571D02*
X114363714Y-27372571D01*
X114506571Y-28301142D02*
X114935142Y-28872571D01*
X114935142Y-27872571D02*
X114363714Y-28444000D01*
X115792285Y-28872571D02*
X115649428Y-28801142D01*
X115577999Y-28729714D01*
X115506571Y-28586857D01*
X115506571Y-28158285D01*
X115577999Y-28015428D01*
X115649428Y-27944000D01*
X115792285Y-27872571D01*
X116006571Y-27872571D01*
X116149428Y-27944000D01*
X116220857Y-28015428D01*
X116292285Y-28158285D01*
X116292285Y-28586857D01*
X116220857Y-28729714D01*
X116149428Y-28801142D01*
X116006571Y-28872571D01*
X115792285Y-28872571D01*
D10*
X43099219Y-50185628D02*
X43861123Y-50185628D01*
X43480171Y-50566580D02*
X43480171Y-49804676D01*
X45099219Y-50566580D02*
X45099219Y-49566580D01*
X45575409Y-49899914D02*
X45575409Y-50566580D01*
X45575409Y-49995152D02*
X45623028Y-49947533D01*
X45718266Y-49899914D01*
X45861123Y-49899914D01*
X45956361Y-49947533D01*
X46003980Y-50042771D01*
X46003980Y-50566580D01*
X43040514Y-53652800D02*
X42945276Y-53605180D01*
X42802419Y-53605180D01*
X42659561Y-53652800D01*
X42564323Y-53748038D01*
X42516704Y-53843276D01*
X42469085Y-54033752D01*
X42469085Y-54176609D01*
X42516704Y-54367085D01*
X42564323Y-54462323D01*
X42659561Y-54557561D01*
X42802419Y-54605180D01*
X42897657Y-54605180D01*
X43040514Y-54557561D01*
X43088133Y-54509942D01*
X43088133Y-54176609D01*
X42897657Y-54176609D01*
X43516704Y-53938514D02*
X43516704Y-54605180D01*
X43516704Y-54033752D02*
X43564323Y-53986133D01*
X43659561Y-53938514D01*
X43802419Y-53938514D01*
X43897657Y-53986133D01*
X43945276Y-54081371D01*
X43945276Y-54605180D01*
X44850038Y-54605180D02*
X44850038Y-53605180D01*
X44850038Y-54557561D02*
X44754800Y-54605180D01*
X44564323Y-54605180D01*
X44469085Y-54557561D01*
X44421466Y-54509942D01*
X44373847Y-54414704D01*
X44373847Y-54128990D01*
X44421466Y-54033752D01*
X44469085Y-53986133D01*
X44564323Y-53938514D01*
X44754800Y-53938514D01*
X44850038Y-53986133D01*
X46088133Y-54605180D02*
X46088133Y-53605180D01*
X46564323Y-53938514D02*
X46564323Y-54605180D01*
X46564323Y-54033752D02*
X46611942Y-53986133D01*
X46707180Y-53938514D01*
X46850038Y-53938514D01*
X46945276Y-53986133D01*
X46992895Y-54081371D01*
X46992895Y-54605180D01*
X176122342Y-95346780D02*
X176122342Y-94346780D01*
X177312819Y-95061066D02*
X177789009Y-95061066D01*
X177217580Y-95346780D02*
X177550914Y-94346780D01*
X177884247Y-95346780D01*
X178646152Y-95346780D02*
X178646152Y-94346780D01*
X178646152Y-95299161D02*
X178550914Y-95346780D01*
X178360438Y-95346780D01*
X178265200Y-95299161D01*
X178217580Y-95251542D01*
X178169961Y-95156304D01*
X178169961Y-94870590D01*
X178217580Y-94775352D01*
X178265200Y-94727733D01*
X178360438Y-94680114D01*
X178550914Y-94680114D01*
X178646152Y-94727733D01*
X179122342Y-94680114D02*
X179122342Y-95537257D01*
X179074723Y-95632495D01*
X178979485Y-95680114D01*
X178931866Y-95680114D01*
X179122342Y-94346780D02*
X179074723Y-94394400D01*
X179122342Y-94442019D01*
X179169961Y-94394400D01*
X179122342Y-94346780D01*
X179122342Y-94442019D01*
X180027104Y-94680114D02*
X180027104Y-95346780D01*
X179598533Y-94680114D02*
X179598533Y-95203923D01*
X179646152Y-95299161D01*
X179741390Y-95346780D01*
X179884247Y-95346780D01*
X179979485Y-95299161D01*
X180027104Y-95251542D01*
X180455676Y-95299161D02*
X180550914Y-95346780D01*
X180741390Y-95346780D01*
X180836628Y-95299161D01*
X180884247Y-95203923D01*
X180884247Y-95156304D01*
X180836628Y-95061066D01*
X180741390Y-95013447D01*
X180598533Y-95013447D01*
X180503295Y-94965828D01*
X180455676Y-94870590D01*
X180455676Y-94822971D01*
X180503295Y-94727733D01*
X180598533Y-94680114D01*
X180741390Y-94680114D01*
X180836628Y-94727733D01*
X181169961Y-94680114D02*
X181550914Y-94680114D01*
X181312819Y-94346780D02*
X181312819Y-95203923D01*
X181360438Y-95299161D01*
X181455676Y-95346780D01*
X181550914Y-95346780D01*
%TO.C,D2*%
X84602580Y-49963295D02*
X83602580Y-49963295D01*
X83602580Y-49725200D01*
X83650200Y-49582342D01*
X83745438Y-49487104D01*
X83840676Y-49439485D01*
X84031152Y-49391866D01*
X84174009Y-49391866D01*
X84364485Y-49439485D01*
X84459723Y-49487104D01*
X84554961Y-49582342D01*
X84602580Y-49725200D01*
X84602580Y-49963295D01*
X83697819Y-49010914D02*
X83650200Y-48963295D01*
X83602580Y-48868057D01*
X83602580Y-48629961D01*
X83650200Y-48534723D01*
X83697819Y-48487104D01*
X83793057Y-48439485D01*
X83888295Y-48439485D01*
X84031152Y-48487104D01*
X84602580Y-49058533D01*
X84602580Y-48439485D01*
X84551780Y-45473904D02*
X83551780Y-45473904D01*
X84551780Y-44902476D02*
X83980352Y-45331047D01*
X83551780Y-44902476D02*
X84123209Y-45473904D01*
%TO.C,C5*%
X75049083Y-57888142D02*
X75001464Y-57935761D01*
X74858607Y-57983380D01*
X74763369Y-57983380D01*
X74620511Y-57935761D01*
X74525273Y-57840523D01*
X74477654Y-57745285D01*
X74430035Y-57554809D01*
X74430035Y-57411952D01*
X74477654Y-57221476D01*
X74525273Y-57126238D01*
X74620511Y-57031000D01*
X74763369Y-56983380D01*
X74858607Y-56983380D01*
X75001464Y-57031000D01*
X75049083Y-57078619D01*
X75953845Y-56983380D02*
X75477654Y-56983380D01*
X75430035Y-57459571D01*
X75477654Y-57411952D01*
X75572892Y-57364333D01*
X75810988Y-57364333D01*
X75906226Y-57411952D01*
X75953845Y-57459571D01*
X76001464Y-57554809D01*
X76001464Y-57792904D01*
X75953845Y-57888142D01*
X75906226Y-57935761D01*
X75810988Y-57983380D01*
X75572892Y-57983380D01*
X75477654Y-57935761D01*
X75430035Y-57888142D01*
%TO.C,R3*%
X83057583Y-78152380D02*
X82724250Y-77676190D01*
X82486154Y-78152380D02*
X82486154Y-77152380D01*
X82867107Y-77152380D01*
X82962345Y-77200000D01*
X83009964Y-77247619D01*
X83057583Y-77342857D01*
X83057583Y-77485714D01*
X83009964Y-77580952D01*
X82962345Y-77628571D01*
X82867107Y-77676190D01*
X82486154Y-77676190D01*
X83390916Y-77152380D02*
X84009964Y-77152380D01*
X83676630Y-77533333D01*
X83819488Y-77533333D01*
X83914726Y-77580952D01*
X83962345Y-77628571D01*
X84009964Y-77723809D01*
X84009964Y-77961904D01*
X83962345Y-78057142D01*
X83914726Y-78104761D01*
X83819488Y-78152380D01*
X83533773Y-78152380D01*
X83438535Y-78104761D01*
X83390916Y-78057142D01*
%TO.C,C8*%
X85779333Y-98796142D02*
X85731714Y-98843761D01*
X85588857Y-98891380D01*
X85493619Y-98891380D01*
X85350761Y-98843761D01*
X85255523Y-98748523D01*
X85207904Y-98653285D01*
X85160285Y-98462809D01*
X85160285Y-98319952D01*
X85207904Y-98129476D01*
X85255523Y-98034238D01*
X85350761Y-97939000D01*
X85493619Y-97891380D01*
X85588857Y-97891380D01*
X85731714Y-97939000D01*
X85779333Y-97986619D01*
X86350761Y-98319952D02*
X86255523Y-98272333D01*
X86207904Y-98224714D01*
X86160285Y-98129476D01*
X86160285Y-98081857D01*
X86207904Y-97986619D01*
X86255523Y-97939000D01*
X86350761Y-97891380D01*
X86541238Y-97891380D01*
X86636476Y-97939000D01*
X86684095Y-97986619D01*
X86731714Y-98081857D01*
X86731714Y-98129476D01*
X86684095Y-98224714D01*
X86636476Y-98272333D01*
X86541238Y-98319952D01*
X86350761Y-98319952D01*
X86255523Y-98367571D01*
X86207904Y-98415190D01*
X86160285Y-98510428D01*
X86160285Y-98700904D01*
X86207904Y-98796142D01*
X86255523Y-98843761D01*
X86350761Y-98891380D01*
X86541238Y-98891380D01*
X86636476Y-98843761D01*
X86684095Y-98796142D01*
X86731714Y-98700904D01*
X86731714Y-98510428D01*
X86684095Y-98415190D01*
X86636476Y-98367571D01*
X86541238Y-98319952D01*
%TO.C,U2*%
X135407495Y-67371980D02*
X135407495Y-68181504D01*
X135455114Y-68276742D01*
X135502733Y-68324361D01*
X135597971Y-68371980D01*
X135788447Y-68371980D01*
X135883685Y-68324361D01*
X135931304Y-68276742D01*
X135978923Y-68181504D01*
X135978923Y-67371980D01*
X136407495Y-67467219D02*
X136455114Y-67419600D01*
X136550352Y-67371980D01*
X136788447Y-67371980D01*
X136883685Y-67419600D01*
X136931304Y-67467219D01*
X136978923Y-67562457D01*
X136978923Y-67657695D01*
X136931304Y-67800552D01*
X136359876Y-68371980D01*
X136978923Y-68371980D01*
%TO.C,R13*%
X75363392Y-101252380D02*
X75030059Y-100776190D01*
X74791964Y-101252380D02*
X74791964Y-100252380D01*
X75172916Y-100252380D01*
X75268154Y-100300000D01*
X75315773Y-100347619D01*
X75363392Y-100442857D01*
X75363392Y-100585714D01*
X75315773Y-100680952D01*
X75268154Y-100728571D01*
X75172916Y-100776190D01*
X74791964Y-100776190D01*
X76315773Y-101252380D02*
X75744345Y-101252380D01*
X76030059Y-101252380D02*
X76030059Y-100252380D01*
X75934821Y-100395238D01*
X75839583Y-100490476D01*
X75744345Y-100538095D01*
X76649107Y-100252380D02*
X77268154Y-100252380D01*
X76934821Y-100633333D01*
X77077678Y-100633333D01*
X77172916Y-100680952D01*
X77220535Y-100728571D01*
X77268154Y-100823809D01*
X77268154Y-101061904D01*
X77220535Y-101157142D01*
X77172916Y-101204761D01*
X77077678Y-101252380D01*
X76791964Y-101252380D01*
X76696726Y-101204761D01*
X76649107Y-101157142D01*
%TO.C,J5*%
X60912416Y-96353380D02*
X60912416Y-97067666D01*
X60864797Y-97210523D01*
X60769559Y-97305761D01*
X60626702Y-97353380D01*
X60531464Y-97353380D01*
X61864797Y-96353380D02*
X61388607Y-96353380D01*
X61340988Y-96829571D01*
X61388607Y-96781952D01*
X61483845Y-96734333D01*
X61721940Y-96734333D01*
X61817178Y-96781952D01*
X61864797Y-96829571D01*
X61912416Y-96924809D01*
X61912416Y-97162904D01*
X61864797Y-97258142D01*
X61817178Y-97305761D01*
X61721940Y-97353380D01*
X61483845Y-97353380D01*
X61388607Y-97305761D01*
X61340988Y-97258142D01*
%TO.C,C17*%
X49827142Y-68437142D02*
X49779523Y-68484761D01*
X49636666Y-68532380D01*
X49541428Y-68532380D01*
X49398571Y-68484761D01*
X49303333Y-68389523D01*
X49255714Y-68294285D01*
X49208095Y-68103809D01*
X49208095Y-67960952D01*
X49255714Y-67770476D01*
X49303333Y-67675238D01*
X49398571Y-67580000D01*
X49541428Y-67532380D01*
X49636666Y-67532380D01*
X49779523Y-67580000D01*
X49827142Y-67627619D01*
X50779523Y-68532380D02*
X50208095Y-68532380D01*
X50493809Y-68532380D02*
X50493809Y-67532380D01*
X50398571Y-67675238D01*
X50303333Y-67770476D01*
X50208095Y-67818095D01*
X51112857Y-67532380D02*
X51779523Y-67532380D01*
X51350952Y-68532380D01*
%TO.C,C2*%
X104682892Y-50037666D02*
X104730511Y-50085285D01*
X104778130Y-50228142D01*
X104778130Y-50323380D01*
X104730511Y-50466238D01*
X104635273Y-50561476D01*
X104540035Y-50609095D01*
X104349559Y-50656714D01*
X104206702Y-50656714D01*
X104016226Y-50609095D01*
X103920988Y-50561476D01*
X103825750Y-50466238D01*
X103778130Y-50323380D01*
X103778130Y-50228142D01*
X103825750Y-50085285D01*
X103873369Y-50037666D01*
X103873369Y-49656714D02*
X103825750Y-49609095D01*
X103778130Y-49513857D01*
X103778130Y-49275761D01*
X103825750Y-49180523D01*
X103873369Y-49132904D01*
X103968607Y-49085285D01*
X104063845Y-49085285D01*
X104206702Y-49132904D01*
X104778130Y-49704333D01*
X104778130Y-49085285D01*
%TO.C,U8*%
X68230845Y-73493380D02*
X68230845Y-74302904D01*
X68278464Y-74398142D01*
X68326083Y-74445761D01*
X68421321Y-74493380D01*
X68611797Y-74493380D01*
X68707035Y-74445761D01*
X68754654Y-74398142D01*
X68802273Y-74302904D01*
X68802273Y-73493380D01*
X69421321Y-73921952D02*
X69326083Y-73874333D01*
X69278464Y-73826714D01*
X69230845Y-73731476D01*
X69230845Y-73683857D01*
X69278464Y-73588619D01*
X69326083Y-73541000D01*
X69421321Y-73493380D01*
X69611797Y-73493380D01*
X69707035Y-73541000D01*
X69754654Y-73588619D01*
X69802273Y-73683857D01*
X69802273Y-73731476D01*
X69754654Y-73826714D01*
X69707035Y-73874333D01*
X69611797Y-73921952D01*
X69421321Y-73921952D01*
X69326083Y-73969571D01*
X69278464Y-74017190D01*
X69230845Y-74112428D01*
X69230845Y-74302904D01*
X69278464Y-74398142D01*
X69326083Y-74445761D01*
X69421321Y-74493380D01*
X69611797Y-74493380D01*
X69707035Y-74445761D01*
X69754654Y-74398142D01*
X69802273Y-74302904D01*
X69802273Y-74112428D01*
X69754654Y-74017190D01*
X69707035Y-73969571D01*
X69611797Y-73921952D01*
%TO.C,U1*%
X72167845Y-52030380D02*
X72167845Y-52839904D01*
X72215464Y-52935142D01*
X72263083Y-52982761D01*
X72358321Y-53030380D01*
X72548797Y-53030380D01*
X72644035Y-52982761D01*
X72691654Y-52935142D01*
X72739273Y-52839904D01*
X72739273Y-52030380D01*
X73739273Y-53030380D02*
X73167845Y-53030380D01*
X73453559Y-53030380D02*
X73453559Y-52030380D01*
X73358321Y-52173238D01*
X73263083Y-52268476D01*
X73167845Y-52316095D01*
%TO.C,C20*%
X43387142Y-83567142D02*
X43339523Y-83614761D01*
X43196666Y-83662380D01*
X43101428Y-83662380D01*
X42958571Y-83614761D01*
X42863333Y-83519523D01*
X42815714Y-83424285D01*
X42768095Y-83233809D01*
X42768095Y-83090952D01*
X42815714Y-82900476D01*
X42863333Y-82805238D01*
X42958571Y-82710000D01*
X43101428Y-82662380D01*
X43196666Y-82662380D01*
X43339523Y-82710000D01*
X43387142Y-82757619D01*
X43768095Y-82757619D02*
X43815714Y-82710000D01*
X43910952Y-82662380D01*
X44149047Y-82662380D01*
X44244285Y-82710000D01*
X44291904Y-82757619D01*
X44339523Y-82852857D01*
X44339523Y-82948095D01*
X44291904Y-83090952D01*
X43720476Y-83662380D01*
X44339523Y-83662380D01*
X44958571Y-82662380D02*
X45053809Y-82662380D01*
X45149047Y-82710000D01*
X45196666Y-82757619D01*
X45244285Y-82852857D01*
X45291904Y-83043333D01*
X45291904Y-83281428D01*
X45244285Y-83471904D01*
X45196666Y-83567142D01*
X45149047Y-83614761D01*
X45053809Y-83662380D01*
X44958571Y-83662380D01*
X44863333Y-83614761D01*
X44815714Y-83567142D01*
X44768095Y-83471904D01*
X44720476Y-83281428D01*
X44720476Y-83043333D01*
X44768095Y-82852857D01*
X44815714Y-82757619D01*
X44863333Y-82710000D01*
X44958571Y-82662380D01*
%TO.C,R18*%
X119417392Y-35321380D02*
X119084059Y-34845190D01*
X118845964Y-35321380D02*
X118845964Y-34321380D01*
X119226916Y-34321380D01*
X119322154Y-34369000D01*
X119369773Y-34416619D01*
X119417392Y-34511857D01*
X119417392Y-34654714D01*
X119369773Y-34749952D01*
X119322154Y-34797571D01*
X119226916Y-34845190D01*
X118845964Y-34845190D01*
X120369773Y-35321380D02*
X119798345Y-35321380D01*
X120084059Y-35321380D02*
X120084059Y-34321380D01*
X119988821Y-34464238D01*
X119893583Y-34559476D01*
X119798345Y-34607095D01*
X120941202Y-34749952D02*
X120845964Y-34702333D01*
X120798345Y-34654714D01*
X120750726Y-34559476D01*
X120750726Y-34511857D01*
X120798345Y-34416619D01*
X120845964Y-34369000D01*
X120941202Y-34321380D01*
X121131678Y-34321380D01*
X121226916Y-34369000D01*
X121274535Y-34416619D01*
X121322154Y-34511857D01*
X121322154Y-34559476D01*
X121274535Y-34654714D01*
X121226916Y-34702333D01*
X121131678Y-34749952D01*
X120941202Y-34749952D01*
X120845964Y-34797571D01*
X120798345Y-34845190D01*
X120750726Y-34940428D01*
X120750726Y-35130904D01*
X120798345Y-35226142D01*
X120845964Y-35273761D01*
X120941202Y-35321380D01*
X121131678Y-35321380D01*
X121226916Y-35273761D01*
X121274535Y-35226142D01*
X121322154Y-35130904D01*
X121322154Y-34940428D01*
X121274535Y-34845190D01*
X121226916Y-34797571D01*
X121131678Y-34749952D01*
%TO.C,R11*%
X118229142Y-67584580D02*
X117895809Y-67108390D01*
X117657714Y-67584580D02*
X117657714Y-66584580D01*
X118038666Y-66584580D01*
X118133904Y-66632200D01*
X118181523Y-66679819D01*
X118229142Y-66775057D01*
X118229142Y-66917914D01*
X118181523Y-67013152D01*
X118133904Y-67060771D01*
X118038666Y-67108390D01*
X117657714Y-67108390D01*
X119181523Y-67584580D02*
X118610095Y-67584580D01*
X118895809Y-67584580D02*
X118895809Y-66584580D01*
X118800571Y-66727438D01*
X118705333Y-66822676D01*
X118610095Y-66870295D01*
X120133904Y-67584580D02*
X119562476Y-67584580D01*
X119848190Y-67584580D02*
X119848190Y-66584580D01*
X119752952Y-66727438D01*
X119657714Y-66822676D01*
X119562476Y-66870295D01*
%TO.C,D4*%
X141933704Y-32303980D02*
X141933704Y-31303980D01*
X142171800Y-31303980D01*
X142314657Y-31351600D01*
X142409895Y-31446838D01*
X142457514Y-31542076D01*
X142505133Y-31732552D01*
X142505133Y-31875409D01*
X142457514Y-32065885D01*
X142409895Y-32161123D01*
X142314657Y-32256361D01*
X142171800Y-32303980D01*
X141933704Y-32303980D01*
X143362276Y-31637314D02*
X143362276Y-32303980D01*
X143124180Y-31256361D02*
X142886085Y-31970647D01*
X143505133Y-31970647D01*
X138318095Y-32162380D02*
X138318095Y-31162380D01*
X138889523Y-32162380D02*
X138460952Y-31590952D01*
X138889523Y-31162380D02*
X138318095Y-31733809D01*
%TO.C,C16*%
X76477892Y-61698142D02*
X76430273Y-61745761D01*
X76287416Y-61793380D01*
X76192178Y-61793380D01*
X76049321Y-61745761D01*
X75954083Y-61650523D01*
X75906464Y-61555285D01*
X75858845Y-61364809D01*
X75858845Y-61221952D01*
X75906464Y-61031476D01*
X75954083Y-60936238D01*
X76049321Y-60841000D01*
X76192178Y-60793380D01*
X76287416Y-60793380D01*
X76430273Y-60841000D01*
X76477892Y-60888619D01*
X77430273Y-61793380D02*
X76858845Y-61793380D01*
X77144559Y-61793380D02*
X77144559Y-60793380D01*
X77049321Y-60936238D01*
X76954083Y-61031476D01*
X76858845Y-61079095D01*
X78287416Y-60793380D02*
X78096940Y-60793380D01*
X78001702Y-60841000D01*
X77954083Y-60888619D01*
X77858845Y-61031476D01*
X77811226Y-61221952D01*
X77811226Y-61602904D01*
X77858845Y-61698142D01*
X77906464Y-61745761D01*
X78001702Y-61793380D01*
X78192178Y-61793380D01*
X78287416Y-61745761D01*
X78335035Y-61698142D01*
X78382654Y-61602904D01*
X78382654Y-61364809D01*
X78335035Y-61269571D01*
X78287416Y-61221952D01*
X78192178Y-61174333D01*
X78001702Y-61174333D01*
X77906464Y-61221952D01*
X77858845Y-61269571D01*
X77811226Y-61364809D01*
%TO.C,D5*%
X174201904Y-50662380D02*
X174201904Y-49662380D01*
X174440000Y-49662380D01*
X174582857Y-49710000D01*
X174678095Y-49805238D01*
X174725714Y-49900476D01*
X174773333Y-50090952D01*
X174773333Y-50233809D01*
X174725714Y-50424285D01*
X174678095Y-50519523D01*
X174582857Y-50614761D01*
X174440000Y-50662380D01*
X174201904Y-50662380D01*
X175678095Y-49662380D02*
X175201904Y-49662380D01*
X175154285Y-50138571D01*
X175201904Y-50090952D01*
X175297142Y-50043333D01*
X175535238Y-50043333D01*
X175630476Y-50090952D01*
X175678095Y-50138571D01*
X175725714Y-50233809D01*
X175725714Y-50471904D01*
X175678095Y-50567142D01*
X175630476Y-50614761D01*
X175535238Y-50662380D01*
X175297142Y-50662380D01*
X175201904Y-50614761D01*
X175154285Y-50567142D01*
X177532380Y-37751904D02*
X176532380Y-37751904D01*
X177532380Y-37180476D02*
X176960952Y-37609047D01*
X176532380Y-37180476D02*
X177103809Y-37751904D01*
%TO.C,R17*%
X115957392Y-35291380D02*
X115624059Y-34815190D01*
X115385964Y-35291380D02*
X115385964Y-34291380D01*
X115766916Y-34291380D01*
X115862154Y-34339000D01*
X115909773Y-34386619D01*
X115957392Y-34481857D01*
X115957392Y-34624714D01*
X115909773Y-34719952D01*
X115862154Y-34767571D01*
X115766916Y-34815190D01*
X115385964Y-34815190D01*
X116909773Y-35291380D02*
X116338345Y-35291380D01*
X116624059Y-35291380D02*
X116624059Y-34291380D01*
X116528821Y-34434238D01*
X116433583Y-34529476D01*
X116338345Y-34577095D01*
X117243107Y-34291380D02*
X117909773Y-34291380D01*
X117481202Y-35291380D01*
%TO.C,F1*%
X66876666Y-31518571D02*
X66543333Y-31518571D01*
X66543333Y-32042380D02*
X66543333Y-31042380D01*
X67019523Y-31042380D01*
X67924285Y-32042380D02*
X67352857Y-32042380D01*
X67638571Y-32042380D02*
X67638571Y-31042380D01*
X67543333Y-31185238D01*
X67448095Y-31280476D01*
X67352857Y-31328095D01*
%TO.C,R10*%
X118584742Y-60447180D02*
X118251409Y-59970990D01*
X118013314Y-60447180D02*
X118013314Y-59447180D01*
X118394266Y-59447180D01*
X118489504Y-59494800D01*
X118537123Y-59542419D01*
X118584742Y-59637657D01*
X118584742Y-59780514D01*
X118537123Y-59875752D01*
X118489504Y-59923371D01*
X118394266Y-59970990D01*
X118013314Y-59970990D01*
X119537123Y-60447180D02*
X118965695Y-60447180D01*
X119251409Y-60447180D02*
X119251409Y-59447180D01*
X119156171Y-59590038D01*
X119060933Y-59685276D01*
X118965695Y-59732895D01*
X120156171Y-59447180D02*
X120251409Y-59447180D01*
X120346647Y-59494800D01*
X120394266Y-59542419D01*
X120441885Y-59637657D01*
X120489504Y-59828133D01*
X120489504Y-60066228D01*
X120441885Y-60256704D01*
X120394266Y-60351942D01*
X120346647Y-60399561D01*
X120251409Y-60447180D01*
X120156171Y-60447180D01*
X120060933Y-60399561D01*
X120013314Y-60351942D01*
X119965695Y-60256704D01*
X119918076Y-60066228D01*
X119918076Y-59828133D01*
X119965695Y-59637657D01*
X120013314Y-59542419D01*
X120060933Y-59494800D01*
X120156171Y-59447180D01*
%TO.C,C13*%
X103457142Y-34923142D02*
X103409523Y-34970761D01*
X103266666Y-35018380D01*
X103171428Y-35018380D01*
X103028571Y-34970761D01*
X102933333Y-34875523D01*
X102885714Y-34780285D01*
X102838095Y-34589809D01*
X102838095Y-34446952D01*
X102885714Y-34256476D01*
X102933333Y-34161238D01*
X103028571Y-34066000D01*
X103171428Y-34018380D01*
X103266666Y-34018380D01*
X103409523Y-34066000D01*
X103457142Y-34113619D01*
X104409523Y-35018380D02*
X103838095Y-35018380D01*
X104123809Y-35018380D02*
X104123809Y-34018380D01*
X104028571Y-34161238D01*
X103933333Y-34256476D01*
X103838095Y-34304095D01*
X104742857Y-34018380D02*
X105361904Y-34018380D01*
X105028571Y-34399333D01*
X105171428Y-34399333D01*
X105266666Y-34446952D01*
X105314285Y-34494571D01*
X105361904Y-34589809D01*
X105361904Y-34827904D01*
X105314285Y-34923142D01*
X105266666Y-34970761D01*
X105171428Y-35018380D01*
X104885714Y-35018380D01*
X104790476Y-34970761D01*
X104742857Y-34923142D01*
%TO.C,R9*%
X119162533Y-56535580D02*
X118829200Y-56059390D01*
X118591104Y-56535580D02*
X118591104Y-55535580D01*
X118972057Y-55535580D01*
X119067295Y-55583200D01*
X119114914Y-55630819D01*
X119162533Y-55726057D01*
X119162533Y-55868914D01*
X119114914Y-55964152D01*
X119067295Y-56011771D01*
X118972057Y-56059390D01*
X118591104Y-56059390D01*
X119638723Y-56535580D02*
X119829200Y-56535580D01*
X119924438Y-56487961D01*
X119972057Y-56440342D01*
X120067295Y-56297485D01*
X120114914Y-56107009D01*
X120114914Y-55726057D01*
X120067295Y-55630819D01*
X120019676Y-55583200D01*
X119924438Y-55535580D01*
X119733961Y-55535580D01*
X119638723Y-55583200D01*
X119591104Y-55630819D01*
X119543485Y-55726057D01*
X119543485Y-55964152D01*
X119591104Y-56059390D01*
X119638723Y-56107009D01*
X119733961Y-56154628D01*
X119924438Y-56154628D01*
X120019676Y-56107009D01*
X120067295Y-56059390D01*
X120114914Y-55964152D01*
%TO.C,R1*%
X96139380Y-39912666D02*
X95663190Y-40246000D01*
X96139380Y-40484095D02*
X95139380Y-40484095D01*
X95139380Y-40103142D01*
X95187000Y-40007904D01*
X95234619Y-39960285D01*
X95329857Y-39912666D01*
X95472714Y-39912666D01*
X95567952Y-39960285D01*
X95615571Y-40007904D01*
X95663190Y-40103142D01*
X95663190Y-40484095D01*
X96139380Y-38960285D02*
X96139380Y-39531714D01*
X96139380Y-39246000D02*
X95139380Y-39246000D01*
X95282238Y-39341238D01*
X95377476Y-39436476D01*
X95425095Y-39531714D01*
%TO.C,R20*%
X95521542Y-74391780D02*
X95188209Y-73915590D01*
X94950114Y-74391780D02*
X94950114Y-73391780D01*
X95331066Y-73391780D01*
X95426304Y-73439400D01*
X95473923Y-73487019D01*
X95521542Y-73582257D01*
X95521542Y-73725114D01*
X95473923Y-73820352D01*
X95426304Y-73867971D01*
X95331066Y-73915590D01*
X94950114Y-73915590D01*
X95902495Y-73487019D02*
X95950114Y-73439400D01*
X96045352Y-73391780D01*
X96283447Y-73391780D01*
X96378685Y-73439400D01*
X96426304Y-73487019D01*
X96473923Y-73582257D01*
X96473923Y-73677495D01*
X96426304Y-73820352D01*
X95854876Y-74391780D01*
X96473923Y-74391780D01*
X97092971Y-73391780D02*
X97188209Y-73391780D01*
X97283447Y-73439400D01*
X97331066Y-73487019D01*
X97378685Y-73582257D01*
X97426304Y-73772733D01*
X97426304Y-74010828D01*
X97378685Y-74201304D01*
X97331066Y-74296542D01*
X97283447Y-74344161D01*
X97188209Y-74391780D01*
X97092971Y-74391780D01*
X96997733Y-74344161D01*
X96950114Y-74296542D01*
X96902495Y-74201304D01*
X96854876Y-74010828D01*
X96854876Y-73772733D01*
X96902495Y-73582257D01*
X96950114Y-73487019D01*
X96997733Y-73439400D01*
X97092971Y-73391780D01*
%TO.C,R8*%
X168922380Y-44996666D02*
X168446190Y-45330000D01*
X168922380Y-45568095D02*
X167922380Y-45568095D01*
X167922380Y-45187142D01*
X167970000Y-45091904D01*
X168017619Y-45044285D01*
X168112857Y-44996666D01*
X168255714Y-44996666D01*
X168350952Y-45044285D01*
X168398571Y-45091904D01*
X168446190Y-45187142D01*
X168446190Y-45568095D01*
X168350952Y-44425238D02*
X168303333Y-44520476D01*
X168255714Y-44568095D01*
X168160476Y-44615714D01*
X168112857Y-44615714D01*
X168017619Y-44568095D01*
X167970000Y-44520476D01*
X167922380Y-44425238D01*
X167922380Y-44234761D01*
X167970000Y-44139523D01*
X168017619Y-44091904D01*
X168112857Y-44044285D01*
X168160476Y-44044285D01*
X168255714Y-44091904D01*
X168303333Y-44139523D01*
X168350952Y-44234761D01*
X168350952Y-44425238D01*
X168398571Y-44520476D01*
X168446190Y-44568095D01*
X168541428Y-44615714D01*
X168731904Y-44615714D01*
X168827142Y-44568095D01*
X168874761Y-44520476D01*
X168922380Y-44425238D01*
X168922380Y-44234761D01*
X168874761Y-44139523D01*
X168827142Y-44091904D01*
X168731904Y-44044285D01*
X168541428Y-44044285D01*
X168446190Y-44091904D01*
X168398571Y-44139523D01*
X168350952Y-44234761D01*
%TO.C,R14*%
X75263392Y-77752380D02*
X74930059Y-77276190D01*
X74691964Y-77752380D02*
X74691964Y-76752380D01*
X75072916Y-76752380D01*
X75168154Y-76800000D01*
X75215773Y-76847619D01*
X75263392Y-76942857D01*
X75263392Y-77085714D01*
X75215773Y-77180952D01*
X75168154Y-77228571D01*
X75072916Y-77276190D01*
X74691964Y-77276190D01*
X76215773Y-77752380D02*
X75644345Y-77752380D01*
X75930059Y-77752380D02*
X75930059Y-76752380D01*
X75834821Y-76895238D01*
X75739583Y-76990476D01*
X75644345Y-77038095D01*
X77072916Y-77085714D02*
X77072916Y-77752380D01*
X76834821Y-76704761D02*
X76596726Y-77419047D01*
X77215773Y-77419047D01*
%TO.C,D3*%
X142467104Y-49626780D02*
X142467104Y-48626780D01*
X142705200Y-48626780D01*
X142848057Y-48674400D01*
X142943295Y-48769638D01*
X142990914Y-48864876D01*
X143038533Y-49055352D01*
X143038533Y-49198209D01*
X142990914Y-49388685D01*
X142943295Y-49483923D01*
X142848057Y-49579161D01*
X142705200Y-49626780D01*
X142467104Y-49626780D01*
X143371866Y-48626780D02*
X143990914Y-48626780D01*
X143657580Y-49007733D01*
X143800438Y-49007733D01*
X143895676Y-49055352D01*
X143943295Y-49102971D01*
X143990914Y-49198209D01*
X143990914Y-49436304D01*
X143943295Y-49531542D01*
X143895676Y-49579161D01*
X143800438Y-49626780D01*
X143514723Y-49626780D01*
X143419485Y-49579161D01*
X143371866Y-49531542D01*
X139048095Y-44822380D02*
X139048095Y-43822380D01*
X139619523Y-44822380D02*
X139190952Y-44250952D01*
X139619523Y-43822380D02*
X139048095Y-44393809D01*
%TO.C,U4*%
X104368695Y-59167780D02*
X104368695Y-59977304D01*
X104416314Y-60072542D01*
X104463933Y-60120161D01*
X104559171Y-60167780D01*
X104749647Y-60167780D01*
X104844885Y-60120161D01*
X104892504Y-60072542D01*
X104940123Y-59977304D01*
X104940123Y-59167780D01*
X105844885Y-59501114D02*
X105844885Y-60167780D01*
X105606790Y-59120161D02*
X105368695Y-59834447D01*
X105987742Y-59834447D01*
%TO.C,C18*%
X70254892Y-61825142D02*
X70207273Y-61872761D01*
X70064416Y-61920380D01*
X69969178Y-61920380D01*
X69826321Y-61872761D01*
X69731083Y-61777523D01*
X69683464Y-61682285D01*
X69635845Y-61491809D01*
X69635845Y-61348952D01*
X69683464Y-61158476D01*
X69731083Y-61063238D01*
X69826321Y-60968000D01*
X69969178Y-60920380D01*
X70064416Y-60920380D01*
X70207273Y-60968000D01*
X70254892Y-61015619D01*
X71207273Y-61920380D02*
X70635845Y-61920380D01*
X70921559Y-61920380D02*
X70921559Y-60920380D01*
X70826321Y-61063238D01*
X70731083Y-61158476D01*
X70635845Y-61206095D01*
X71778702Y-61348952D02*
X71683464Y-61301333D01*
X71635845Y-61253714D01*
X71588226Y-61158476D01*
X71588226Y-61110857D01*
X71635845Y-61015619D01*
X71683464Y-60968000D01*
X71778702Y-60920380D01*
X71969178Y-60920380D01*
X72064416Y-60968000D01*
X72112035Y-61015619D01*
X72159654Y-61110857D01*
X72159654Y-61158476D01*
X72112035Y-61253714D01*
X72064416Y-61301333D01*
X71969178Y-61348952D01*
X71778702Y-61348952D01*
X71683464Y-61396571D01*
X71635845Y-61444190D01*
X71588226Y-61539428D01*
X71588226Y-61729904D01*
X71635845Y-61825142D01*
X71683464Y-61872761D01*
X71778702Y-61920380D01*
X71969178Y-61920380D01*
X72064416Y-61872761D01*
X72112035Y-61825142D01*
X72159654Y-61729904D01*
X72159654Y-61539428D01*
X72112035Y-61444190D01*
X72064416Y-61396571D01*
X71969178Y-61348952D01*
%TO.C,C12*%
X115138142Y-58827142D02*
X115090523Y-58874761D01*
X114947666Y-58922380D01*
X114852428Y-58922380D01*
X114709571Y-58874761D01*
X114614333Y-58779523D01*
X114566714Y-58684285D01*
X114519095Y-58493809D01*
X114519095Y-58350952D01*
X114566714Y-58160476D01*
X114614333Y-58065238D01*
X114709571Y-57970000D01*
X114852428Y-57922380D01*
X114947666Y-57922380D01*
X115090523Y-57970000D01*
X115138142Y-58017619D01*
X116090523Y-58922380D02*
X115519095Y-58922380D01*
X115804809Y-58922380D02*
X115804809Y-57922380D01*
X115709571Y-58065238D01*
X115614333Y-58160476D01*
X115519095Y-58208095D01*
X116471476Y-58017619D02*
X116519095Y-57970000D01*
X116614333Y-57922380D01*
X116852428Y-57922380D01*
X116947666Y-57970000D01*
X116995285Y-58017619D01*
X117042904Y-58112857D01*
X117042904Y-58208095D01*
X116995285Y-58350952D01*
X116423857Y-58922380D01*
X117042904Y-58922380D01*
%TO.C,R5*%
X143673533Y-72435980D02*
X143340200Y-71959790D01*
X143102104Y-72435980D02*
X143102104Y-71435980D01*
X143483057Y-71435980D01*
X143578295Y-71483600D01*
X143625914Y-71531219D01*
X143673533Y-71626457D01*
X143673533Y-71769314D01*
X143625914Y-71864552D01*
X143578295Y-71912171D01*
X143483057Y-71959790D01*
X143102104Y-71959790D01*
X144578295Y-71435980D02*
X144102104Y-71435980D01*
X144054485Y-71912171D01*
X144102104Y-71864552D01*
X144197342Y-71816933D01*
X144435438Y-71816933D01*
X144530676Y-71864552D01*
X144578295Y-71912171D01*
X144625914Y-72007409D01*
X144625914Y-72245504D01*
X144578295Y-72340742D01*
X144530676Y-72388361D01*
X144435438Y-72435980D01*
X144197342Y-72435980D01*
X144102104Y-72388361D01*
X144054485Y-72340742D01*
%TO.C,R19*%
X122893392Y-35321380D02*
X122560059Y-34845190D01*
X122321964Y-35321380D02*
X122321964Y-34321380D01*
X122702916Y-34321380D01*
X122798154Y-34369000D01*
X122845773Y-34416619D01*
X122893392Y-34511857D01*
X122893392Y-34654714D01*
X122845773Y-34749952D01*
X122798154Y-34797571D01*
X122702916Y-34845190D01*
X122321964Y-34845190D01*
X123845773Y-35321380D02*
X123274345Y-35321380D01*
X123560059Y-35321380D02*
X123560059Y-34321380D01*
X123464821Y-34464238D01*
X123369583Y-34559476D01*
X123274345Y-34607095D01*
X124321964Y-35321380D02*
X124512440Y-35321380D01*
X124607678Y-35273761D01*
X124655297Y-35226142D01*
X124750535Y-35083285D01*
X124798154Y-34892809D01*
X124798154Y-34511857D01*
X124750535Y-34416619D01*
X124702916Y-34369000D01*
X124607678Y-34321380D01*
X124417202Y-34321380D01*
X124321964Y-34369000D01*
X124274345Y-34416619D01*
X124226726Y-34511857D01*
X124226726Y-34749952D01*
X124274345Y-34845190D01*
X124321964Y-34892809D01*
X124417202Y-34940428D01*
X124607678Y-34940428D01*
X124702916Y-34892809D01*
X124750535Y-34845190D01*
X124798154Y-34749952D01*
%TO.C,C19*%
X43387142Y-73677142D02*
X43339523Y-73724761D01*
X43196666Y-73772380D01*
X43101428Y-73772380D01*
X42958571Y-73724761D01*
X42863333Y-73629523D01*
X42815714Y-73534285D01*
X42768095Y-73343809D01*
X42768095Y-73200952D01*
X42815714Y-73010476D01*
X42863333Y-72915238D01*
X42958571Y-72820000D01*
X43101428Y-72772380D01*
X43196666Y-72772380D01*
X43339523Y-72820000D01*
X43387142Y-72867619D01*
X44339523Y-73772380D02*
X43768095Y-73772380D01*
X44053809Y-73772380D02*
X44053809Y-72772380D01*
X43958571Y-72915238D01*
X43863333Y-73010476D01*
X43768095Y-73058095D01*
X44815714Y-73772380D02*
X45006190Y-73772380D01*
X45101428Y-73724761D01*
X45149047Y-73677142D01*
X45244285Y-73534285D01*
X45291904Y-73343809D01*
X45291904Y-72962857D01*
X45244285Y-72867619D01*
X45196666Y-72820000D01*
X45101428Y-72772380D01*
X44910952Y-72772380D01*
X44815714Y-72820000D01*
X44768095Y-72867619D01*
X44720476Y-72962857D01*
X44720476Y-73200952D01*
X44768095Y-73296190D01*
X44815714Y-73343809D01*
X44910952Y-73391428D01*
X45101428Y-73391428D01*
X45196666Y-73343809D01*
X45244285Y-73296190D01*
X45291904Y-73200952D01*
%TO.C,RV1*%
X73904761Y-108952380D02*
X73571428Y-108476190D01*
X73333333Y-108952380D02*
X73333333Y-107952380D01*
X73714285Y-107952380D01*
X73809523Y-108000000D01*
X73857142Y-108047619D01*
X73904761Y-108142857D01*
X73904761Y-108285714D01*
X73857142Y-108380952D01*
X73809523Y-108428571D01*
X73714285Y-108476190D01*
X73333333Y-108476190D01*
X74190476Y-107952380D02*
X74523809Y-108952380D01*
X74857142Y-107952380D01*
X75714285Y-108952380D02*
X75142857Y-108952380D01*
X75428571Y-108952380D02*
X75428571Y-107952380D01*
X75333333Y-108095238D01*
X75238095Y-108190476D01*
X75142857Y-108238095D01*
%TO.C,U6*%
X56683845Y-56949380D02*
X56683845Y-57758904D01*
X56731464Y-57854142D01*
X56779083Y-57901761D01*
X56874321Y-57949380D01*
X57064797Y-57949380D01*
X57160035Y-57901761D01*
X57207654Y-57854142D01*
X57255273Y-57758904D01*
X57255273Y-56949380D01*
X58160035Y-56949380D02*
X57969559Y-56949380D01*
X57874321Y-56997000D01*
X57826702Y-57044619D01*
X57731464Y-57187476D01*
X57683845Y-57377952D01*
X57683845Y-57758904D01*
X57731464Y-57854142D01*
X57779083Y-57901761D01*
X57874321Y-57949380D01*
X58064797Y-57949380D01*
X58160035Y-57901761D01*
X58207654Y-57854142D01*
X58255273Y-57758904D01*
X58255273Y-57520809D01*
X58207654Y-57425571D01*
X58160035Y-57377952D01*
X58064797Y-57330333D01*
X57874321Y-57330333D01*
X57779083Y-57377952D01*
X57731464Y-57425571D01*
X57683845Y-57520809D01*
%TO.C,R4*%
X143775133Y-68651380D02*
X143441800Y-68175190D01*
X143203704Y-68651380D02*
X143203704Y-67651380D01*
X143584657Y-67651380D01*
X143679895Y-67699000D01*
X143727514Y-67746619D01*
X143775133Y-67841857D01*
X143775133Y-67984714D01*
X143727514Y-68079952D01*
X143679895Y-68127571D01*
X143584657Y-68175190D01*
X143203704Y-68175190D01*
X144632276Y-67984714D02*
X144632276Y-68651380D01*
X144394180Y-67603761D02*
X144156085Y-68318047D01*
X144775133Y-68318047D01*
%TO.C,R23*%
X95521542Y-62072780D02*
X95188209Y-61596590D01*
X94950114Y-62072780D02*
X94950114Y-61072780D01*
X95331066Y-61072780D01*
X95426304Y-61120400D01*
X95473923Y-61168019D01*
X95521542Y-61263257D01*
X95521542Y-61406114D01*
X95473923Y-61501352D01*
X95426304Y-61548971D01*
X95331066Y-61596590D01*
X94950114Y-61596590D01*
X95902495Y-61168019D02*
X95950114Y-61120400D01*
X96045352Y-61072780D01*
X96283447Y-61072780D01*
X96378685Y-61120400D01*
X96426304Y-61168019D01*
X96473923Y-61263257D01*
X96473923Y-61358495D01*
X96426304Y-61501352D01*
X95854876Y-62072780D01*
X96473923Y-62072780D01*
X96807257Y-61072780D02*
X97426304Y-61072780D01*
X97092971Y-61453733D01*
X97235828Y-61453733D01*
X97331066Y-61501352D01*
X97378685Y-61548971D01*
X97426304Y-61644209D01*
X97426304Y-61882304D01*
X97378685Y-61977542D01*
X97331066Y-62025161D01*
X97235828Y-62072780D01*
X96950114Y-62072780D01*
X96854876Y-62025161D01*
X96807257Y-61977542D01*
%TO.C,Q1*%
X111138011Y-54996619D02*
X111042773Y-54949000D01*
X110947535Y-54853761D01*
X110804678Y-54710904D01*
X110709440Y-54663285D01*
X110614202Y-54663285D01*
X110661821Y-54901380D02*
X110566583Y-54853761D01*
X110471345Y-54758523D01*
X110423726Y-54568047D01*
X110423726Y-54234714D01*
X110471345Y-54044238D01*
X110566583Y-53949000D01*
X110661821Y-53901380D01*
X110852297Y-53901380D01*
X110947535Y-53949000D01*
X111042773Y-54044238D01*
X111090392Y-54234714D01*
X111090392Y-54568047D01*
X111042773Y-54758523D01*
X110947535Y-54853761D01*
X110852297Y-54901380D01*
X110661821Y-54901380D01*
X112042773Y-54901380D02*
X111471345Y-54901380D01*
X111757059Y-54901380D02*
X111757059Y-53901380D01*
X111661821Y-54044238D01*
X111566583Y-54139476D01*
X111471345Y-54187095D01*
%TO.C,R21*%
X77557142Y-74452380D02*
X77223809Y-73976190D01*
X76985714Y-74452380D02*
X76985714Y-73452380D01*
X77366666Y-73452380D01*
X77461904Y-73500000D01*
X77509523Y-73547619D01*
X77557142Y-73642857D01*
X77557142Y-73785714D01*
X77509523Y-73880952D01*
X77461904Y-73928571D01*
X77366666Y-73976190D01*
X76985714Y-73976190D01*
X77938095Y-73547619D02*
X77985714Y-73500000D01*
X78080952Y-73452380D01*
X78319047Y-73452380D01*
X78414285Y-73500000D01*
X78461904Y-73547619D01*
X78509523Y-73642857D01*
X78509523Y-73738095D01*
X78461904Y-73880952D01*
X77890476Y-74452380D01*
X78509523Y-74452380D01*
X79461904Y-74452380D02*
X78890476Y-74452380D01*
X79176190Y-74452380D02*
X79176190Y-73452380D01*
X79080952Y-73595238D01*
X78985714Y-73690476D01*
X78890476Y-73738095D01*
%TO.C,C10*%
X162617142Y-70357142D02*
X162569523Y-70404761D01*
X162426666Y-70452380D01*
X162331428Y-70452380D01*
X162188571Y-70404761D01*
X162093333Y-70309523D01*
X162045714Y-70214285D01*
X161998095Y-70023809D01*
X161998095Y-69880952D01*
X162045714Y-69690476D01*
X162093333Y-69595238D01*
X162188571Y-69500000D01*
X162331428Y-69452380D01*
X162426666Y-69452380D01*
X162569523Y-69500000D01*
X162617142Y-69547619D01*
X163569523Y-70452380D02*
X162998095Y-70452380D01*
X163283809Y-70452380D02*
X163283809Y-69452380D01*
X163188571Y-69595238D01*
X163093333Y-69690476D01*
X162998095Y-69738095D01*
X164188571Y-69452380D02*
X164283809Y-69452380D01*
X164379047Y-69500000D01*
X164426666Y-69547619D01*
X164474285Y-69642857D01*
X164521904Y-69833333D01*
X164521904Y-70071428D01*
X164474285Y-70261904D01*
X164426666Y-70357142D01*
X164379047Y-70404761D01*
X164283809Y-70452380D01*
X164188571Y-70452380D01*
X164093333Y-70404761D01*
X164045714Y-70357142D01*
X163998095Y-70261904D01*
X163950476Y-70071428D01*
X163950476Y-69833333D01*
X163998095Y-69642857D01*
X164045714Y-69547619D01*
X164093333Y-69500000D01*
X164188571Y-69452380D01*
%TO.C,F2*%
X164146666Y-27178571D02*
X163813333Y-27178571D01*
X163813333Y-27702380D02*
X163813333Y-26702380D01*
X164289523Y-26702380D01*
X164622857Y-26797619D02*
X164670476Y-26750000D01*
X164765714Y-26702380D01*
X165003809Y-26702380D01*
X165099047Y-26750000D01*
X165146666Y-26797619D01*
X165194285Y-26892857D01*
X165194285Y-26988095D01*
X165146666Y-27130952D01*
X164575238Y-27702380D01*
X165194285Y-27702380D01*
%TO.C,HS1*%
X126931904Y-34972380D02*
X126931904Y-33972380D01*
X126931904Y-34448571D02*
X127503333Y-34448571D01*
X127503333Y-34972380D02*
X127503333Y-33972380D01*
X127931904Y-34924761D02*
X128074761Y-34972380D01*
X128312857Y-34972380D01*
X128408095Y-34924761D01*
X128455714Y-34877142D01*
X128503333Y-34781904D01*
X128503333Y-34686666D01*
X128455714Y-34591428D01*
X128408095Y-34543809D01*
X128312857Y-34496190D01*
X128122380Y-34448571D01*
X128027142Y-34400952D01*
X127979523Y-34353333D01*
X127931904Y-34258095D01*
X127931904Y-34162857D01*
X127979523Y-34067619D01*
X128027142Y-34020000D01*
X128122380Y-33972380D01*
X128360476Y-33972380D01*
X128503333Y-34020000D01*
X129455714Y-34972380D02*
X128884285Y-34972380D01*
X129170000Y-34972380D02*
X129170000Y-33972380D01*
X129074761Y-34115238D01*
X128979523Y-34210476D01*
X128884285Y-34258095D01*
%TO.C,C11*%
X162298142Y-38330142D02*
X162250523Y-38377761D01*
X162107666Y-38425380D01*
X162012428Y-38425380D01*
X161869571Y-38377761D01*
X161774333Y-38282523D01*
X161726714Y-38187285D01*
X161679095Y-37996809D01*
X161679095Y-37853952D01*
X161726714Y-37663476D01*
X161774333Y-37568238D01*
X161869571Y-37473000D01*
X162012428Y-37425380D01*
X162107666Y-37425380D01*
X162250523Y-37473000D01*
X162298142Y-37520619D01*
X163250523Y-38425380D02*
X162679095Y-38425380D01*
X162964809Y-38425380D02*
X162964809Y-37425380D01*
X162869571Y-37568238D01*
X162774333Y-37663476D01*
X162679095Y-37711095D01*
X164202904Y-38425380D02*
X163631476Y-38425380D01*
X163917190Y-38425380D02*
X163917190Y-37425380D01*
X163821952Y-37568238D01*
X163726714Y-37663476D01*
X163631476Y-37711095D01*
%TO.C,C14*%
X78503142Y-98782142D02*
X78455523Y-98829761D01*
X78312666Y-98877380D01*
X78217428Y-98877380D01*
X78074571Y-98829761D01*
X77979333Y-98734523D01*
X77931714Y-98639285D01*
X77884095Y-98448809D01*
X77884095Y-98305952D01*
X77931714Y-98115476D01*
X77979333Y-98020238D01*
X78074571Y-97925000D01*
X78217428Y-97877380D01*
X78312666Y-97877380D01*
X78455523Y-97925000D01*
X78503142Y-97972619D01*
X79455523Y-98877380D02*
X78884095Y-98877380D01*
X79169809Y-98877380D02*
X79169809Y-97877380D01*
X79074571Y-98020238D01*
X78979333Y-98115476D01*
X78884095Y-98163095D01*
X80312666Y-98210714D02*
X80312666Y-98877380D01*
X80074571Y-97829761D02*
X79836476Y-98544047D01*
X80455523Y-98544047D01*
%TO.C,U3*%
X150008095Y-37572380D02*
X150008095Y-38381904D01*
X150055714Y-38477142D01*
X150103333Y-38524761D01*
X150198571Y-38572380D01*
X150389047Y-38572380D01*
X150484285Y-38524761D01*
X150531904Y-38477142D01*
X150579523Y-38381904D01*
X150579523Y-37572380D01*
X150960476Y-37572380D02*
X151579523Y-37572380D01*
X151246190Y-37953333D01*
X151389047Y-37953333D01*
X151484285Y-38000952D01*
X151531904Y-38048571D01*
X151579523Y-38143809D01*
X151579523Y-38381904D01*
X151531904Y-38477142D01*
X151484285Y-38524761D01*
X151389047Y-38572380D01*
X151103333Y-38572380D01*
X151008095Y-38524761D01*
X150960476Y-38477142D01*
%TO.C,D1*%
X54452780Y-47982095D02*
X53452780Y-47982095D01*
X53452780Y-47744000D01*
X53500400Y-47601142D01*
X53595638Y-47505904D01*
X53690876Y-47458285D01*
X53881352Y-47410666D01*
X54024209Y-47410666D01*
X54214685Y-47458285D01*
X54309923Y-47505904D01*
X54405161Y-47601142D01*
X54452780Y-47744000D01*
X54452780Y-47982095D01*
X54452780Y-46458285D02*
X54452780Y-47029714D01*
X54452780Y-46744000D02*
X53452780Y-46744000D01*
X53595638Y-46839238D01*
X53690876Y-46934476D01*
X53738495Y-47029714D01*
X54478180Y-43416504D02*
X53478180Y-43416504D01*
X54478180Y-42845076D02*
X53906752Y-43273647D01*
X53478180Y-42845076D02*
X54049609Y-43416504D01*
%TO.C,C21*%
X71524892Y-73128142D02*
X71477273Y-73175761D01*
X71334416Y-73223380D01*
X71239178Y-73223380D01*
X71096321Y-73175761D01*
X71001083Y-73080523D01*
X70953464Y-72985285D01*
X70905845Y-72794809D01*
X70905845Y-72651952D01*
X70953464Y-72461476D01*
X71001083Y-72366238D01*
X71096321Y-72271000D01*
X71239178Y-72223380D01*
X71334416Y-72223380D01*
X71477273Y-72271000D01*
X71524892Y-72318619D01*
X71905845Y-72318619D02*
X71953464Y-72271000D01*
X72048702Y-72223380D01*
X72286797Y-72223380D01*
X72382035Y-72271000D01*
X72429654Y-72318619D01*
X72477273Y-72413857D01*
X72477273Y-72509095D01*
X72429654Y-72651952D01*
X71858226Y-73223380D01*
X72477273Y-73223380D01*
X73429654Y-73223380D02*
X72858226Y-73223380D01*
X73143940Y-73223380D02*
X73143940Y-72223380D01*
X73048702Y-72366238D01*
X72953464Y-72461476D01*
X72858226Y-72509095D01*
%TO.C,R24*%
X68222892Y-85796380D02*
X67889559Y-85320190D01*
X67651464Y-85796380D02*
X67651464Y-84796380D01*
X68032416Y-84796380D01*
X68127654Y-84844000D01*
X68175273Y-84891619D01*
X68222892Y-84986857D01*
X68222892Y-85129714D01*
X68175273Y-85224952D01*
X68127654Y-85272571D01*
X68032416Y-85320190D01*
X67651464Y-85320190D01*
X68603845Y-84891619D02*
X68651464Y-84844000D01*
X68746702Y-84796380D01*
X68984797Y-84796380D01*
X69080035Y-84844000D01*
X69127654Y-84891619D01*
X69175273Y-84986857D01*
X69175273Y-85082095D01*
X69127654Y-85224952D01*
X68556226Y-85796380D01*
X69175273Y-85796380D01*
X70032416Y-85129714D02*
X70032416Y-85796380D01*
X69794321Y-84748761D02*
X69556226Y-85463047D01*
X70175273Y-85463047D01*
%TO.C,U5*%
X90035130Y-67690904D02*
X90844654Y-67690904D01*
X90939892Y-67643285D01*
X90987511Y-67595666D01*
X91035130Y-67500428D01*
X91035130Y-67309952D01*
X90987511Y-67214714D01*
X90939892Y-67167095D01*
X90844654Y-67119476D01*
X90035130Y-67119476D01*
X90035130Y-66167095D02*
X90035130Y-66643285D01*
X90511321Y-66690904D01*
X90463702Y-66643285D01*
X90416083Y-66548047D01*
X90416083Y-66309952D01*
X90463702Y-66214714D01*
X90511321Y-66167095D01*
X90606559Y-66119476D01*
X90844654Y-66119476D01*
X90939892Y-66167095D01*
X90987511Y-66214714D01*
X91035130Y-66309952D01*
X91035130Y-66548047D01*
X90987511Y-66643285D01*
X90939892Y-66690904D01*
%TO.C,R2*%
X83557583Y-100217380D02*
X83224250Y-99741190D01*
X82986154Y-100217380D02*
X82986154Y-99217380D01*
X83367107Y-99217380D01*
X83462345Y-99265000D01*
X83509964Y-99312619D01*
X83557583Y-99407857D01*
X83557583Y-99550714D01*
X83509964Y-99645952D01*
X83462345Y-99693571D01*
X83367107Y-99741190D01*
X82986154Y-99741190D01*
X83938535Y-99312619D02*
X83986154Y-99265000D01*
X84081392Y-99217380D01*
X84319488Y-99217380D01*
X84414726Y-99265000D01*
X84462345Y-99312619D01*
X84509964Y-99407857D01*
X84509964Y-99503095D01*
X84462345Y-99645952D01*
X83890916Y-100217380D01*
X84509964Y-100217380D01*
%TO.C,R6*%
X156218333Y-64800380D02*
X155885000Y-64324190D01*
X155646904Y-64800380D02*
X155646904Y-63800380D01*
X156027857Y-63800380D01*
X156123095Y-63848000D01*
X156170714Y-63895619D01*
X156218333Y-63990857D01*
X156218333Y-64133714D01*
X156170714Y-64228952D01*
X156123095Y-64276571D01*
X156027857Y-64324190D01*
X155646904Y-64324190D01*
X157075476Y-63800380D02*
X156885000Y-63800380D01*
X156789761Y-63848000D01*
X156742142Y-63895619D01*
X156646904Y-64038476D01*
X156599285Y-64228952D01*
X156599285Y-64609904D01*
X156646904Y-64705142D01*
X156694523Y-64752761D01*
X156789761Y-64800380D01*
X156980238Y-64800380D01*
X157075476Y-64752761D01*
X157123095Y-64705142D01*
X157170714Y-64609904D01*
X157170714Y-64371809D01*
X157123095Y-64276571D01*
X157075476Y-64228952D01*
X156980238Y-64181333D01*
X156789761Y-64181333D01*
X156694523Y-64228952D01*
X156646904Y-64276571D01*
X156599285Y-64371809D01*
%TO.C,Y1*%
X46373809Y-75936190D02*
X46373809Y-76412380D01*
X46040476Y-75412380D02*
X46373809Y-75936190D01*
X46707142Y-75412380D01*
X47564285Y-76412380D02*
X46992857Y-76412380D01*
X47278571Y-76412380D02*
X47278571Y-75412380D01*
X47183333Y-75555238D01*
X47088095Y-75650476D01*
X46992857Y-75698095D01*
%TO.C,C4*%
X70731083Y-43156142D02*
X70683464Y-43203761D01*
X70540607Y-43251380D01*
X70445369Y-43251380D01*
X70302511Y-43203761D01*
X70207273Y-43108523D01*
X70159654Y-43013285D01*
X70112035Y-42822809D01*
X70112035Y-42679952D01*
X70159654Y-42489476D01*
X70207273Y-42394238D01*
X70302511Y-42299000D01*
X70445369Y-42251380D01*
X70540607Y-42251380D01*
X70683464Y-42299000D01*
X70731083Y-42346619D01*
X71588226Y-42584714D02*
X71588226Y-43251380D01*
X71350130Y-42203761D02*
X71112035Y-42918047D01*
X71731083Y-42918047D01*
%TO.C,C15*%
X78757142Y-78704142D02*
X78709523Y-78751761D01*
X78566666Y-78799380D01*
X78471428Y-78799380D01*
X78328571Y-78751761D01*
X78233333Y-78656523D01*
X78185714Y-78561285D01*
X78138095Y-78370809D01*
X78138095Y-78227952D01*
X78185714Y-78037476D01*
X78233333Y-77942238D01*
X78328571Y-77847000D01*
X78471428Y-77799380D01*
X78566666Y-77799380D01*
X78709523Y-77847000D01*
X78757142Y-77894619D01*
X79709523Y-78799380D02*
X79138095Y-78799380D01*
X79423809Y-78799380D02*
X79423809Y-77799380D01*
X79328571Y-77942238D01*
X79233333Y-78037476D01*
X79138095Y-78085095D01*
X80614285Y-77799380D02*
X80138095Y-77799380D01*
X80090476Y-78275571D01*
X80138095Y-78227952D01*
X80233333Y-78180333D01*
X80471428Y-78180333D01*
X80566666Y-78227952D01*
X80614285Y-78275571D01*
X80661904Y-78370809D01*
X80661904Y-78608904D01*
X80614285Y-78704142D01*
X80566666Y-78751761D01*
X80471428Y-78799380D01*
X80233333Y-78799380D01*
X80138095Y-78751761D01*
X80090476Y-78704142D01*
%TO.C,Q2*%
X152279361Y-57723019D02*
X152184123Y-57675400D01*
X152088885Y-57580161D01*
X151946028Y-57437304D01*
X151850790Y-57389685D01*
X151755552Y-57389685D01*
X151803171Y-57627780D02*
X151707933Y-57580161D01*
X151612695Y-57484923D01*
X151565076Y-57294447D01*
X151565076Y-56961114D01*
X151612695Y-56770638D01*
X151707933Y-56675400D01*
X151803171Y-56627780D01*
X151993647Y-56627780D01*
X152088885Y-56675400D01*
X152184123Y-56770638D01*
X152231742Y-56961114D01*
X152231742Y-57294447D01*
X152184123Y-57484923D01*
X152088885Y-57580161D01*
X151993647Y-57627780D01*
X151803171Y-57627780D01*
X152612695Y-56723019D02*
X152660314Y-56675400D01*
X152755552Y-56627780D01*
X152993647Y-56627780D01*
X153088885Y-56675400D01*
X153136504Y-56723019D01*
X153184123Y-56818257D01*
X153184123Y-56913495D01*
X153136504Y-57056352D01*
X152565076Y-57627780D01*
X153184123Y-57627780D01*
%TO.C,U7*%
X88925495Y-78573380D02*
X88925495Y-79382904D01*
X88973114Y-79478142D01*
X89020733Y-79525761D01*
X89115971Y-79573380D01*
X89306447Y-79573380D01*
X89401685Y-79525761D01*
X89449304Y-79478142D01*
X89496923Y-79382904D01*
X89496923Y-78573380D01*
X89877876Y-78573380D02*
X90544542Y-78573380D01*
X90115971Y-79573380D01*
%TO.C,R7*%
X146569133Y-52801780D02*
X146235800Y-52325590D01*
X145997704Y-52801780D02*
X145997704Y-51801780D01*
X146378657Y-51801780D01*
X146473895Y-51849400D01*
X146521514Y-51897019D01*
X146569133Y-51992257D01*
X146569133Y-52135114D01*
X146521514Y-52230352D01*
X146473895Y-52277971D01*
X146378657Y-52325590D01*
X145997704Y-52325590D01*
X146902466Y-51801780D02*
X147569133Y-51801780D01*
X147140561Y-52801780D01*
%TO.C,C3*%
X88130083Y-50395142D02*
X88082464Y-50442761D01*
X87939607Y-50490380D01*
X87844369Y-50490380D01*
X87701511Y-50442761D01*
X87606273Y-50347523D01*
X87558654Y-50252285D01*
X87511035Y-50061809D01*
X87511035Y-49918952D01*
X87558654Y-49728476D01*
X87606273Y-49633238D01*
X87701511Y-49538000D01*
X87844369Y-49490380D01*
X87939607Y-49490380D01*
X88082464Y-49538000D01*
X88130083Y-49585619D01*
X88463416Y-49490380D02*
X89082464Y-49490380D01*
X88749130Y-49871333D01*
X88891988Y-49871333D01*
X88987226Y-49918952D01*
X89034845Y-49966571D01*
X89082464Y-50061809D01*
X89082464Y-50299904D01*
X89034845Y-50395142D01*
X88987226Y-50442761D01*
X88891988Y-50490380D01*
X88606273Y-50490380D01*
X88511035Y-50442761D01*
X88463416Y-50395142D01*
%TO.C,R15*%
X100814130Y-67698857D02*
X100337940Y-68032190D01*
X100814130Y-68270285D02*
X99814130Y-68270285D01*
X99814130Y-67889333D01*
X99861750Y-67794095D01*
X99909369Y-67746476D01*
X100004607Y-67698857D01*
X100147464Y-67698857D01*
X100242702Y-67746476D01*
X100290321Y-67794095D01*
X100337940Y-67889333D01*
X100337940Y-68270285D01*
X100814130Y-66746476D02*
X100814130Y-67317904D01*
X100814130Y-67032190D02*
X99814130Y-67032190D01*
X99956988Y-67127428D01*
X100052226Y-67222666D01*
X100099845Y-67317904D01*
X99814130Y-65841714D02*
X99814130Y-66317904D01*
X100290321Y-66365523D01*
X100242702Y-66317904D01*
X100195083Y-66222666D01*
X100195083Y-65984571D01*
X100242702Y-65889333D01*
X100290321Y-65841714D01*
X100385559Y-65794095D01*
X100623654Y-65794095D01*
X100718892Y-65841714D01*
X100766511Y-65889333D01*
X100814130Y-65984571D01*
X100814130Y-66222666D01*
X100766511Y-66317904D01*
X100718892Y-66365523D01*
%TO.C,R16*%
X112367392Y-35291380D02*
X112034059Y-34815190D01*
X111795964Y-35291380D02*
X111795964Y-34291380D01*
X112176916Y-34291380D01*
X112272154Y-34339000D01*
X112319773Y-34386619D01*
X112367392Y-34481857D01*
X112367392Y-34624714D01*
X112319773Y-34719952D01*
X112272154Y-34767571D01*
X112176916Y-34815190D01*
X111795964Y-34815190D01*
X113319773Y-35291380D02*
X112748345Y-35291380D01*
X113034059Y-35291380D02*
X113034059Y-34291380D01*
X112938821Y-34434238D01*
X112843583Y-34529476D01*
X112748345Y-34577095D01*
X114176916Y-34291380D02*
X113986440Y-34291380D01*
X113891202Y-34339000D01*
X113843583Y-34386619D01*
X113748345Y-34529476D01*
X113700726Y-34719952D01*
X113700726Y-35100904D01*
X113748345Y-35196142D01*
X113795964Y-35243761D01*
X113891202Y-35291380D01*
X114081678Y-35291380D01*
X114176916Y-35243761D01*
X114224535Y-35196142D01*
X114272154Y-35100904D01*
X114272154Y-34862809D01*
X114224535Y-34767571D01*
X114176916Y-34719952D01*
X114081678Y-34672333D01*
X113891202Y-34672333D01*
X113795964Y-34719952D01*
X113748345Y-34767571D01*
X113700726Y-34862809D01*
%TO.C,C9*%
X86033333Y-88857142D02*
X85985714Y-88904761D01*
X85842857Y-88952380D01*
X85747619Y-88952380D01*
X85604761Y-88904761D01*
X85509523Y-88809523D01*
X85461904Y-88714285D01*
X85414285Y-88523809D01*
X85414285Y-88380952D01*
X85461904Y-88190476D01*
X85509523Y-88095238D01*
X85604761Y-88000000D01*
X85747619Y-87952380D01*
X85842857Y-87952380D01*
X85985714Y-88000000D01*
X86033333Y-88047619D01*
X86509523Y-88952380D02*
X86700000Y-88952380D01*
X86795238Y-88904761D01*
X86842857Y-88857142D01*
X86938095Y-88714285D01*
X86985714Y-88523809D01*
X86985714Y-88142857D01*
X86938095Y-88047619D01*
X86890476Y-88000000D01*
X86795238Y-87952380D01*
X86604761Y-87952380D01*
X86509523Y-88000000D01*
X86461904Y-88047619D01*
X86414285Y-88142857D01*
X86414285Y-88380952D01*
X86461904Y-88476190D01*
X86509523Y-88523809D01*
X86604761Y-88571428D01*
X86795238Y-88571428D01*
X86890476Y-88523809D01*
X86938095Y-88476190D01*
X86985714Y-88380952D01*
%TO.C,C1*%
X84762583Y-32457142D02*
X84714964Y-32504761D01*
X84572107Y-32552380D01*
X84476869Y-32552380D01*
X84334011Y-32504761D01*
X84238773Y-32409523D01*
X84191154Y-32314285D01*
X84143535Y-32123809D01*
X84143535Y-31980952D01*
X84191154Y-31790476D01*
X84238773Y-31695238D01*
X84334011Y-31600000D01*
X84476869Y-31552380D01*
X84572107Y-31552380D01*
X84714964Y-31600000D01*
X84762583Y-31647619D01*
X85714964Y-32552380D02*
X85143535Y-32552380D01*
X85429250Y-32552380D02*
X85429250Y-31552380D01*
X85334011Y-31695238D01*
X85238773Y-31790476D01*
X85143535Y-31838095D01*
%TO.C,R22*%
X84732892Y-57602380D02*
X84399559Y-57126190D01*
X84161464Y-57602380D02*
X84161464Y-56602380D01*
X84542416Y-56602380D01*
X84637654Y-56650000D01*
X84685273Y-56697619D01*
X84732892Y-56792857D01*
X84732892Y-56935714D01*
X84685273Y-57030952D01*
X84637654Y-57078571D01*
X84542416Y-57126190D01*
X84161464Y-57126190D01*
X85113845Y-56697619D02*
X85161464Y-56650000D01*
X85256702Y-56602380D01*
X85494797Y-56602380D01*
X85590035Y-56650000D01*
X85637654Y-56697619D01*
X85685273Y-56792857D01*
X85685273Y-56888095D01*
X85637654Y-57030952D01*
X85066226Y-57602380D01*
X85685273Y-57602380D01*
X86066226Y-56697619D02*
X86113845Y-56650000D01*
X86209083Y-56602380D01*
X86447178Y-56602380D01*
X86542416Y-56650000D01*
X86590035Y-56697619D01*
X86637654Y-56792857D01*
X86637654Y-56888095D01*
X86590035Y-57030952D01*
X86018607Y-57602380D01*
X86637654Y-57602380D01*
%TO.C,C6*%
X62730083Y-50837029D02*
X62682464Y-50884648D01*
X62539607Y-50932267D01*
X62444369Y-50932267D01*
X62301511Y-50884648D01*
X62206273Y-50789410D01*
X62158654Y-50694172D01*
X62111035Y-50503696D01*
X62111035Y-50360839D01*
X62158654Y-50170363D01*
X62206273Y-50075125D01*
X62301511Y-49979887D01*
X62444369Y-49932267D01*
X62539607Y-49932267D01*
X62682464Y-49979887D01*
X62730083Y-50027506D01*
X63587226Y-49932267D02*
X63396750Y-49932267D01*
X63301511Y-49979887D01*
X63253892Y-50027506D01*
X63158654Y-50170363D01*
X63111035Y-50360839D01*
X63111035Y-50741791D01*
X63158654Y-50837029D01*
X63206273Y-50884648D01*
X63301511Y-50932267D01*
X63491988Y-50932267D01*
X63587226Y-50884648D01*
X63634845Y-50837029D01*
X63682464Y-50741791D01*
X63682464Y-50503696D01*
X63634845Y-50408458D01*
X63587226Y-50360839D01*
X63491988Y-50313220D01*
X63301511Y-50313220D01*
X63206273Y-50360839D01*
X63158654Y-50408458D01*
X63111035Y-50503696D01*
%TO.C,FB1*%
X66716666Y-57378571D02*
X66383333Y-57378571D01*
X66383333Y-57902380D02*
X66383333Y-56902380D01*
X66859523Y-56902380D01*
X67573809Y-57378571D02*
X67716666Y-57426190D01*
X67764285Y-57473809D01*
X67811904Y-57569047D01*
X67811904Y-57711904D01*
X67764285Y-57807142D01*
X67716666Y-57854761D01*
X67621428Y-57902380D01*
X67240476Y-57902380D01*
X67240476Y-56902380D01*
X67573809Y-56902380D01*
X67669047Y-56950000D01*
X67716666Y-56997619D01*
X67764285Y-57092857D01*
X67764285Y-57188095D01*
X67716666Y-57283333D01*
X67669047Y-57330952D01*
X67573809Y-57378571D01*
X67240476Y-57378571D01*
X68764285Y-57902380D02*
X68192857Y-57902380D01*
X68478571Y-57902380D02*
X68478571Y-56902380D01*
X68383333Y-57045238D01*
X68288095Y-57140476D01*
X68192857Y-57188095D01*
%TO.C,R12*%
X118178342Y-64206380D02*
X117845009Y-63730190D01*
X117606914Y-64206380D02*
X117606914Y-63206380D01*
X117987866Y-63206380D01*
X118083104Y-63254000D01*
X118130723Y-63301619D01*
X118178342Y-63396857D01*
X118178342Y-63539714D01*
X118130723Y-63634952D01*
X118083104Y-63682571D01*
X117987866Y-63730190D01*
X117606914Y-63730190D01*
X119130723Y-64206380D02*
X118559295Y-64206380D01*
X118845009Y-64206380D02*
X118845009Y-63206380D01*
X118749771Y-63349238D01*
X118654533Y-63444476D01*
X118559295Y-63492095D01*
X119511676Y-63301619D02*
X119559295Y-63254000D01*
X119654533Y-63206380D01*
X119892628Y-63206380D01*
X119987866Y-63254000D01*
X120035485Y-63301619D01*
X120083104Y-63396857D01*
X120083104Y-63492095D01*
X120035485Y-63634952D01*
X119464057Y-64206380D01*
X120083104Y-64206380D01*
%TO.C,C7*%
X142653333Y-54447142D02*
X142605714Y-54494761D01*
X142462857Y-54542380D01*
X142367619Y-54542380D01*
X142224761Y-54494761D01*
X142129523Y-54399523D01*
X142081904Y-54304285D01*
X142034285Y-54113809D01*
X142034285Y-53970952D01*
X142081904Y-53780476D01*
X142129523Y-53685238D01*
X142224761Y-53590000D01*
X142367619Y-53542380D01*
X142462857Y-53542380D01*
X142605714Y-53590000D01*
X142653333Y-53637619D01*
X142986666Y-53542380D02*
X143653333Y-53542380D01*
X143224761Y-54542380D01*
D12*
%TO.C,D2*%
X83162750Y-47572000D02*
X80222750Y-47572000D01*
X80222750Y-53012000D02*
X83162750Y-53012000D01*
X80222750Y-47572000D02*
X80222750Y-53012000D01*
X81692750Y-46552000D02*
X81692750Y-47572000D01*
X83162750Y-53012000D02*
X83162750Y-47572000D01*
X83162750Y-48352000D02*
X80222750Y-48352000D01*
X83162750Y-48472000D02*
X80222750Y-48472000D01*
X81692750Y-54032000D02*
X81692750Y-53012000D01*
X83162750Y-48592000D02*
X80222750Y-48592000D01*
%TO.C,C5*%
X71849750Y-56615000D02*
X71849750Y-53875000D01*
X79089750Y-56615000D02*
X71849750Y-56615000D01*
X79089750Y-53875000D02*
X71849750Y-53875000D01*
X79089750Y-56615000D02*
X79089750Y-53875000D01*
%TO.C,R3*%
X81430000Y-86709000D02*
X81760000Y-86709000D01*
X84170000Y-86709000D02*
X83840000Y-86709000D01*
X83840000Y-80169000D02*
X84170000Y-80169000D01*
X81760000Y-80169000D02*
X81430000Y-80169000D01*
X84170000Y-80169000D02*
X84170000Y-86709000D01*
X81430000Y-80169000D02*
X81430000Y-86709000D01*
%TO.C,C8*%
X87570000Y-90080000D02*
X84830000Y-90080000D01*
X84830000Y-90080000D02*
X84830000Y-97320000D01*
X87570000Y-97320000D02*
X84830000Y-97320000D01*
X87570000Y-90080000D02*
X87570000Y-97320000D01*
%TO.C,U2*%
X143575000Y-66810000D02*
X143575000Y-56410000D01*
X135785000Y-66750000D02*
X141085000Y-66750000D01*
X141085000Y-56470000D02*
X139435000Y-56470000D01*
X137435000Y-56470000D02*
X135785000Y-56470000D01*
X133295000Y-56410000D02*
X133295000Y-66810000D01*
X133295000Y-66810000D02*
X143575000Y-66810000D01*
X141085000Y-66750000D02*
X141085000Y-56470000D01*
X143575000Y-56410000D02*
X133295000Y-56410000D01*
X135785000Y-56470000D02*
X135785000Y-66750000D01*
X137435000Y-56470000D02*
G75*
G03*
X139435000Y-56470000I1000000J0D01*
G01*
%TO.C,R13*%
X74630000Y-90329000D02*
X74630000Y-96869000D01*
X77370000Y-96869000D02*
X77040000Y-96869000D01*
X74630000Y-96869000D02*
X74960000Y-96869000D01*
X77040000Y-90329000D02*
X77370000Y-90329000D01*
X74960000Y-90329000D02*
X74630000Y-90329000D01*
X77370000Y-90329000D02*
X77370000Y-96869000D01*
%TO.C,J5*%
X62963750Y-98044000D02*
X62963750Y-96714000D01*
X65563750Y-99314000D02*
X65563750Y-96714000D01*
X62963750Y-104454000D02*
X68163750Y-104454000D01*
X65563750Y-96714000D02*
X68163750Y-96714000D01*
X62963750Y-96714000D02*
X64293750Y-96714000D01*
X62963750Y-99314000D02*
X62963750Y-104454000D01*
X62963750Y-99314000D02*
X65563750Y-99314000D01*
X68163750Y-96714000D02*
X68163750Y-104454000D01*
%TO.C,C17*%
X49207750Y-76304000D02*
X51947750Y-76304000D01*
X49207750Y-69064000D02*
X51947750Y-69064000D01*
X51947750Y-76304000D02*
X51947750Y-69064000D01*
X49207750Y-76304000D02*
X49207750Y-69064000D01*
%TO.C,C2*%
X102765750Y-51832000D02*
X99316750Y-51832000D01*
X103072750Y-50792000D02*
X93078750Y-50792000D01*
X96834750Y-53352000D02*
X94359750Y-53352000D01*
X100964750Y-54072000D02*
X95186750Y-54072000D01*
X99705750Y-54712000D02*
X96445750Y-54712000D01*
X102972750Y-51232000D02*
X99316750Y-51232000D01*
X100112750Y-54552000D02*
X96038750Y-54552000D01*
X96834750Y-51512000D02*
X93264750Y-51512000D01*
X103155750Y-49911000D02*
X92995750Y-49911000D01*
X96834750Y-52832000D02*
X93937750Y-52832000D01*
X96834750Y-51432000D02*
X93238750Y-51432000D01*
X103143750Y-50231000D02*
X93007750Y-50231000D01*
X100720750Y-54232000D02*
X95430750Y-54232000D01*
X102470750Y-52432000D02*
X99316750Y-52432000D01*
X100654750Y-54272000D02*
X95496750Y-54272000D01*
X103140750Y-50271000D02*
X93010750Y-50271000D01*
X96834750Y-52672000D02*
X93828750Y-52672000D01*
X102296750Y-52712000D02*
X99316750Y-52712000D01*
X96834750Y-52312000D02*
X93613750Y-52312000D01*
X101864750Y-53272000D02*
X99316750Y-53272000D01*
X102398750Y-52552000D02*
X99316750Y-52552000D01*
X100950750Y-44391354D02*
X100950750Y-45391354D01*
X96834750Y-52072000D02*
X93491750Y-52072000D01*
X102348750Y-52632000D02*
X99316750Y-52632000D01*
X102696750Y-51992000D02*
X99316750Y-51992000D01*
X103003750Y-51112000D02*
X93147750Y-51112000D01*
X102373750Y-52592000D02*
X99316750Y-52592000D01*
X103120750Y-50471000D02*
X93030750Y-50471000D01*
X102925750Y-51392000D02*
X99316750Y-51392000D01*
X100200750Y-54512000D02*
X95950750Y-54512000D01*
X103137750Y-50311000D02*
X93013750Y-50311000D01*
X100845750Y-54152000D02*
X95305750Y-54152000D01*
X96834750Y-52112000D02*
X93511750Y-52112000D01*
X103049750Y-50912000D02*
X93101750Y-50912000D01*
X96834750Y-52232000D02*
X93571750Y-52232000D01*
X96834750Y-51592000D02*
X93292750Y-51592000D01*
X103013750Y-51072000D02*
X93137750Y-51072000D01*
X98674750Y-54952000D02*
X97476750Y-54952000D01*
X96834750Y-51832000D02*
X93385750Y-51832000D01*
X103145750Y-50191000D02*
X93005750Y-50191000D01*
X102858750Y-51592000D02*
X99316750Y-51592000D01*
X103110750Y-50551000D02*
X93040750Y-50551000D01*
X102912750Y-51432000D02*
X99316750Y-51432000D01*
X96834750Y-52472000D02*
X93704750Y-52472000D01*
X103031750Y-50992000D02*
X93119750Y-50992000D01*
X96834750Y-53192000D02*
X94217750Y-53192000D01*
X103155750Y-49871000D02*
X92995750Y-49871000D01*
X98937750Y-54912000D02*
X97213750Y-54912000D01*
X96834750Y-53152000D02*
X94183750Y-53152000D01*
X101553750Y-53592000D02*
X99316750Y-53592000D01*
X96834750Y-51552000D02*
X93278750Y-51552000D01*
X103057750Y-50872000D02*
X93093750Y-50872000D01*
X96834750Y-53552000D02*
X94555750Y-53552000D01*
X96834750Y-52992000D02*
X94055750Y-52992000D01*
X102813750Y-51712000D02*
X99316750Y-51712000D01*
X103150750Y-50111000D02*
X93000750Y-50111000D01*
X96834750Y-52432000D02*
X93680750Y-52432000D01*
X103152750Y-50071000D02*
X92998750Y-50071000D01*
X99585750Y-54752000D02*
X96565750Y-54752000D01*
X101967750Y-53152000D02*
X99316750Y-53152000D01*
X102982750Y-51192000D02*
X99316750Y-51192000D01*
X103154750Y-49991000D02*
X92996750Y-49991000D01*
X101715750Y-53432000D02*
X99316750Y-53432000D01*
X99817750Y-54672000D02*
X96333750Y-54672000D01*
X96834750Y-51192000D02*
X93168750Y-51192000D01*
X103129750Y-50391000D02*
X93021750Y-50391000D01*
X103125750Y-50431000D02*
X93025750Y-50431000D01*
X101933750Y-53192000D02*
X99316750Y-53192000D01*
X96834750Y-51872000D02*
X93401750Y-51872000D01*
X96834750Y-51792000D02*
X93368750Y-51792000D01*
X96834750Y-52632000D02*
X93802750Y-52632000D01*
X101181750Y-53912000D02*
X94969750Y-53912000D01*
X100284750Y-54472000D02*
X95866750Y-54472000D01*
X96834750Y-51152000D02*
X93157750Y-51152000D01*
X96834750Y-51312000D02*
X93201750Y-51312000D01*
X99305750Y-54832000D02*
X96845750Y-54832000D01*
X96834750Y-53392000D02*
X94396750Y-53392000D01*
X102095750Y-52992000D02*
X99316750Y-52992000D01*
X96834750Y-53312000D02*
X94322750Y-53312000D01*
X96834750Y-53232000D02*
X94251750Y-53232000D01*
X96834750Y-52952000D02*
X94025750Y-52952000D01*
X96834750Y-53512000D02*
X94514750Y-53512000D01*
X102960750Y-51272000D02*
X99316750Y-51272000D01*
X103115750Y-50511000D02*
X93035750Y-50511000D01*
X102949750Y-51312000D02*
X99316750Y-51312000D01*
X96834750Y-51752000D02*
X93352750Y-51752000D01*
X102899750Y-51472000D02*
X99316750Y-51472000D01*
X102032750Y-53072000D02*
X99316750Y-53072000D01*
X99453750Y-54792000D02*
X96697750Y-54792000D01*
X102659750Y-52072000D02*
X99316750Y-52072000D01*
X102993750Y-51152000D02*
X99316750Y-51152000D01*
X96834750Y-53432000D02*
X94435750Y-53432000D01*
X102064750Y-53032000D02*
X99316750Y-53032000D01*
X96834750Y-52792000D02*
X93909750Y-52792000D01*
X96834750Y-51672000D02*
X93321750Y-51672000D01*
X100440750Y-54392000D02*
X95710750Y-54392000D01*
X102000750Y-53112000D02*
X99316750Y-53112000D01*
X102537750Y-52312000D02*
X99316750Y-52312000D01*
X103065750Y-50832000D02*
X93085750Y-50832000D01*
X96834750Y-52192000D02*
X93550750Y-52192000D01*
X96834750Y-51632000D02*
X93307750Y-51632000D01*
X101329750Y-53792000D02*
X94821750Y-53792000D01*
X102558750Y-52272000D02*
X99316750Y-52272000D01*
X102886750Y-51512000D02*
X99316750Y-51512000D01*
X96834750Y-51232000D02*
X93178750Y-51232000D01*
X101754750Y-53392000D02*
X99316750Y-53392000D01*
X99921750Y-54632000D02*
X96229750Y-54632000D01*
X101828750Y-53312000D02*
X99316750Y-53312000D01*
X96834750Y-51272000D02*
X93190750Y-51272000D01*
X102620750Y-52152000D02*
X99316750Y-52152000D01*
X96834750Y-52512000D02*
X93728750Y-52512000D01*
X100784750Y-54192000D02*
X95366750Y-54192000D01*
X96834750Y-51912000D02*
X93418750Y-51912000D01*
X96834750Y-51992000D02*
X93454750Y-51992000D01*
X103040750Y-50952000D02*
X93110750Y-50952000D01*
X102446750Y-52472000D02*
X99316750Y-52472000D01*
X102241750Y-52792000D02*
X99316750Y-52792000D01*
X103133750Y-50351000D02*
X93017750Y-50351000D01*
X96834750Y-52272000D02*
X93592750Y-52272000D01*
X102782750Y-51792000D02*
X99316750Y-51792000D01*
X96834750Y-52912000D02*
X93995750Y-52912000D01*
X101129750Y-53952000D02*
X95021750Y-53952000D01*
X96834750Y-51472000D02*
X93251750Y-51472000D01*
X103155750Y-49951000D02*
X92995750Y-49951000D01*
X96834750Y-52712000D02*
X93854750Y-52712000D01*
X100019750Y-54592000D02*
X96131750Y-54592000D01*
X102600750Y-52192000D02*
X99316750Y-52192000D01*
X96834750Y-53112000D02*
X94150750Y-53112000D01*
X102422750Y-52512000D02*
X99316750Y-52512000D01*
X100905750Y-54112000D02*
X95245750Y-54112000D01*
X102322750Y-52672000D02*
X99316750Y-52672000D01*
X101595750Y-53552000D02*
X99316750Y-53552000D01*
X102213750Y-52832000D02*
X99316750Y-52832000D01*
X101231750Y-53872000D02*
X94919750Y-53872000D01*
X101636750Y-53512000D02*
X99316750Y-53512000D01*
X96834750Y-53272000D02*
X94286750Y-53272000D01*
X96834750Y-52032000D02*
X93472750Y-52032000D01*
X103079750Y-50752000D02*
X93071750Y-50752000D01*
X102515750Y-52352000D02*
X99316750Y-52352000D01*
X96834750Y-52552000D02*
X93752750Y-52552000D01*
X102185750Y-52872000D02*
X99316750Y-52872000D01*
X102798750Y-51752000D02*
X99316750Y-51752000D01*
X101676750Y-53472000D02*
X99316750Y-53472000D01*
X103105750Y-50592000D02*
X93045750Y-50592000D01*
X101422750Y-53712000D02*
X94728750Y-53712000D01*
X102579750Y-52232000D02*
X99316750Y-52232000D01*
X103093750Y-50672000D02*
X93057750Y-50672000D01*
X103099750Y-50632000D02*
X93051750Y-50632000D01*
X101020750Y-54032000D02*
X95130750Y-54032000D01*
X101450750Y-44891354D02*
X100450750Y-44891354D01*
X102829750Y-51672000D02*
X99316750Y-51672000D01*
X96834750Y-51952000D02*
X93436750Y-51952000D01*
X96834750Y-51352000D02*
X93213750Y-51352000D01*
X102678750Y-52032000D02*
X99316750Y-52032000D01*
X96834750Y-52392000D02*
X93658750Y-52392000D01*
X101511750Y-53632000D02*
X94639750Y-53632000D01*
X96834750Y-52592000D02*
X93777750Y-52592000D01*
X96834750Y-51712000D02*
X93337750Y-51712000D01*
X103086750Y-50712000D02*
X93064750Y-50712000D01*
X102125750Y-52952000D02*
X99316750Y-52952000D01*
X96834750Y-53072000D02*
X94118750Y-53072000D01*
X102492750Y-52392000D02*
X99316750Y-52392000D01*
X100364750Y-54432000D02*
X95786750Y-54432000D01*
X102639750Y-52112000D02*
X99316750Y-52112000D01*
X96834750Y-52752000D02*
X93881750Y-52752000D01*
X101075750Y-53992000D02*
X95075750Y-53992000D01*
X103022750Y-51032000D02*
X93128750Y-51032000D01*
X96834750Y-53592000D02*
X94597750Y-53592000D01*
X103148750Y-50151000D02*
X93002750Y-50151000D01*
X96834750Y-52352000D02*
X93635750Y-52352000D01*
X96834750Y-52152000D02*
X93530750Y-52152000D01*
X96834750Y-53472000D02*
X94474750Y-53472000D01*
X102872750Y-51552000D02*
X99316750Y-51552000D01*
X102269750Y-52752000D02*
X99316750Y-52752000D01*
X96834750Y-51392000D02*
X93225750Y-51392000D01*
X102937750Y-51352000D02*
X99316750Y-51352000D01*
X100514750Y-54352000D02*
X95636750Y-54352000D01*
X100585750Y-54312000D02*
X95565750Y-54312000D01*
X102732750Y-51912000D02*
X99316750Y-51912000D01*
X102155750Y-52912000D02*
X99316750Y-52912000D01*
X101899750Y-53232000D02*
X99316750Y-53232000D01*
X101467750Y-53672000D02*
X94683750Y-53672000D01*
X101791750Y-53352000D02*
X99316750Y-53352000D01*
X99137750Y-54872000D02*
X97013750Y-54872000D01*
X96834750Y-52872000D02*
X93965750Y-52872000D01*
X96834750Y-53032000D02*
X94086750Y-53032000D01*
X102714750Y-51952000D02*
X99316750Y-51952000D01*
X102843750Y-51632000D02*
X99316750Y-51632000D01*
X101281750Y-53832000D02*
X94869750Y-53832000D01*
X102749750Y-51872000D02*
X99316750Y-51872000D01*
X101376750Y-53752000D02*
X94774750Y-53752000D01*
X103153750Y-50031000D02*
X92997750Y-50031000D01*
X103195750Y-49871000D02*
G75*
G03*
X103195750Y-49871000I-5120000J0D01*
G01*
%TO.C,U8*%
X70461750Y-79397000D02*
X70461750Y-75797000D01*
X70450228Y-75758522D02*
G75*
G03*
X66011750Y-77597000I-1838478J-1838478D01*
G01*
X66011749Y-77597000D02*
G75*
G03*
X70450228Y-79435478I2600001J0D01*
G01*
%TO.C,U1*%
X78739750Y-42505000D02*
X74098750Y-42505000D01*
X78739750Y-49476000D02*
X77229750Y-49476000D01*
X78739750Y-42505000D02*
X78739750Y-52745000D01*
X78739750Y-52745000D02*
X74098750Y-52745000D01*
X77229750Y-42505000D02*
X77229750Y-52745000D01*
X78739750Y-45775000D02*
X77229750Y-45775000D01*
X74098750Y-42505000D02*
X74098750Y-52745000D01*
%TO.C,C20*%
X45420000Y-91520000D02*
X45420000Y-84280000D01*
X42680000Y-91520000D02*
X42680000Y-84280000D01*
X42680000Y-91520000D02*
X45420000Y-91520000D01*
X42680000Y-84280000D02*
X45420000Y-84280000D01*
%TO.C,R18*%
X118960000Y-43820000D02*
X118960000Y-37280000D01*
X121370000Y-43820000D02*
X121700000Y-43820000D01*
X121700000Y-37280000D02*
X121370000Y-37280000D01*
X121700000Y-43820000D02*
X121700000Y-37280000D01*
X119290000Y-43820000D02*
X118960000Y-43820000D01*
X118960000Y-37280000D02*
X119290000Y-37280000D01*
%TO.C,R11*%
X122310000Y-68930000D02*
X122310000Y-68600000D01*
X128850000Y-68600000D02*
X128850000Y-68930000D01*
X128850000Y-66520000D02*
X128850000Y-66190000D01*
X128850000Y-68930000D02*
X122310000Y-68930000D01*
X122310000Y-66190000D02*
X122310000Y-66520000D01*
X128850000Y-66190000D02*
X122310000Y-66190000D01*
%TO.C,D4*%
X141740000Y-32730000D02*
X141740000Y-35670000D01*
X141620000Y-32730000D02*
X141620000Y-35670000D01*
X146280000Y-32730000D02*
X140840000Y-32730000D01*
X141860000Y-32730000D02*
X141860000Y-35670000D01*
X140840000Y-32730000D02*
X140840000Y-35670000D01*
X146280000Y-35670000D02*
X146280000Y-32730000D01*
X140840000Y-35670000D02*
X146280000Y-35670000D01*
X147300000Y-34200000D02*
X146280000Y-34200000D01*
X139820000Y-34200000D02*
X140840000Y-34200000D01*
%TO.C,C16*%
X78363750Y-70001000D02*
X75623750Y-70001000D01*
X78363750Y-62761000D02*
X75623750Y-62761000D01*
X75623750Y-62761000D02*
X75623750Y-70001000D01*
X78363750Y-62761000D02*
X78363750Y-70001000D01*
%TO.C,D5*%
X174980000Y-38830000D02*
X174980000Y-39850000D01*
X176450000Y-40630000D02*
X173510000Y-40630000D01*
X176450000Y-40870000D02*
X173510000Y-40870000D01*
X173510000Y-45290000D02*
X176450000Y-45290000D01*
X176450000Y-40750000D02*
X173510000Y-40750000D01*
X174980000Y-46310000D02*
X174980000Y-45290000D01*
X176450000Y-39850000D02*
X173510000Y-39850000D01*
X173510000Y-39850000D02*
X173510000Y-45290000D01*
X176450000Y-45290000D02*
X176450000Y-39850000D01*
%TO.C,J3*%
X189650000Y-43180000D02*
G75*
G03*
X189650000Y-43180000I-5500000J0D01*
G01*
%TO.C,R17*%
X115520000Y-37250000D02*
X115850000Y-37250000D01*
X115520000Y-43790000D02*
X115520000Y-37250000D01*
X118260000Y-37250000D02*
X117930000Y-37250000D01*
X115850000Y-43790000D02*
X115520000Y-43790000D01*
X118260000Y-43790000D02*
X118260000Y-37250000D01*
X117930000Y-43790000D02*
X118260000Y-43790000D01*
%TO.C,J4*%
X189650000Y-60960000D02*
G75*
G03*
X189650000Y-60960000I-5500000J0D01*
G01*
%TO.C,F1*%
X55210000Y-32840000D02*
X79210000Y-32840000D01*
X55210000Y-38940000D02*
X55210000Y-32840000D01*
X79210000Y-32840000D02*
X79210000Y-38940000D01*
X79210000Y-38940000D02*
X55210000Y-38940000D01*
%TO.C,R10*%
X122320000Y-61340000D02*
X128860000Y-61340000D01*
X128860000Y-58600000D02*
X128860000Y-58930000D01*
X122320000Y-61010000D02*
X122320000Y-61340000D01*
X122320000Y-58930000D02*
X122320000Y-58600000D01*
X122320000Y-58600000D02*
X128860000Y-58600000D01*
X128860000Y-61340000D02*
X128860000Y-61010000D01*
%TO.C,C13*%
X105470000Y-42845000D02*
X102730000Y-42845000D01*
X105470000Y-35605000D02*
X102730000Y-35605000D01*
X102730000Y-35605000D02*
X102730000Y-42845000D01*
X105470000Y-35605000D02*
X105470000Y-42845000D01*
%TO.C,R9*%
X122270000Y-54710000D02*
X128810000Y-54710000D01*
X122270000Y-57120000D02*
X122270000Y-57450000D01*
X128810000Y-54710000D02*
X128810000Y-55040000D01*
X128810000Y-57450000D02*
X128810000Y-57120000D01*
X122270000Y-57450000D02*
X128810000Y-57450000D01*
X122270000Y-55040000D02*
X122270000Y-54710000D01*
%TO.C,R1*%
X99470000Y-36095000D02*
X99140000Y-36095000D01*
X96730000Y-36095000D02*
X97060000Y-36095000D01*
X96730000Y-42635000D02*
X96730000Y-36095000D01*
X97060000Y-42635000D02*
X96730000Y-42635000D01*
X99140000Y-42635000D02*
X99470000Y-42635000D01*
X99470000Y-42635000D02*
X99470000Y-36095000D01*
%TO.C,R20*%
X91625750Y-76422000D02*
X91625750Y-69882000D01*
X91955750Y-76422000D02*
X91625750Y-76422000D01*
X94365750Y-69882000D02*
X94035750Y-69882000D01*
X91625750Y-69882000D02*
X91955750Y-69882000D01*
X94035750Y-76422000D02*
X94365750Y-76422000D01*
X94365750Y-76422000D02*
X94365750Y-69882000D01*
%TO.C,R8*%
X171830000Y-39180000D02*
X172160000Y-39180000D01*
X172160000Y-39180000D02*
X172160000Y-45720000D01*
X169420000Y-39180000D02*
X169420000Y-45720000D01*
X169420000Y-45720000D02*
X169750000Y-45720000D01*
X169750000Y-39180000D02*
X169420000Y-39180000D01*
X172160000Y-45720000D02*
X171830000Y-45720000D01*
%TO.C,R14*%
X74630000Y-80082000D02*
X74630000Y-86622000D01*
X77370000Y-86622000D02*
X77040000Y-86622000D01*
X74630000Y-86622000D02*
X74960000Y-86622000D01*
X77370000Y-80082000D02*
X77370000Y-86622000D01*
X77040000Y-80082000D02*
X77370000Y-80082000D01*
X74960000Y-80082000D02*
X74630000Y-80082000D01*
%TO.C,D3*%
X146950000Y-48160000D02*
X146950000Y-45220000D01*
X141510000Y-48160000D02*
X146950000Y-48160000D01*
X140490000Y-46690000D02*
X141510000Y-46690000D01*
X147970000Y-46690000D02*
X146950000Y-46690000D01*
X141510000Y-45220000D02*
X141510000Y-48160000D01*
X146950000Y-45220000D02*
X141510000Y-45220000D01*
X142410000Y-45220000D02*
X142410000Y-48160000D01*
X142290000Y-45220000D02*
X142290000Y-48160000D01*
X142530000Y-45220000D02*
X142530000Y-48160000D01*
%TO.C,U4*%
X115671750Y-71377000D02*
X115671750Y-60977000D01*
X113181750Y-61037000D02*
X111531750Y-61037000D01*
X105391750Y-60977000D02*
X105391750Y-71377000D01*
X107881750Y-71317000D02*
X113181750Y-71317000D01*
X107881750Y-61037000D02*
X107881750Y-71317000D01*
X109531750Y-61037000D02*
X107881750Y-61037000D01*
X105391750Y-71377000D02*
X115671750Y-71377000D01*
X115671750Y-60977000D02*
X105391750Y-60977000D01*
X113181750Y-71317000D02*
X113181750Y-61037000D01*
X109531750Y-61037000D02*
G75*
G03*
X111531750Y-61037000I1000000J0D01*
G01*
%TO.C,C18*%
X69654750Y-62460000D02*
X72394750Y-62460000D01*
X72394750Y-69700000D02*
X72394750Y-62460000D01*
X69654750Y-69700000D02*
X69654750Y-62460000D01*
X69654750Y-69700000D02*
X72394750Y-69700000D01*
%TO.C,C12*%
X113940000Y-59840000D02*
X106700000Y-59840000D01*
X113940000Y-59840000D02*
X113940000Y-57100000D01*
X106700000Y-59840000D02*
X106700000Y-57100000D01*
X113940000Y-57100000D02*
X106700000Y-57100000D01*
%TO.C,R5*%
X146621750Y-70893000D02*
X146621750Y-71223000D01*
X153161750Y-73633000D02*
X146621750Y-73633000D01*
X153161750Y-73303000D02*
X153161750Y-73633000D01*
X153161750Y-71223000D02*
X153161750Y-70893000D01*
X153161750Y-70893000D02*
X146621750Y-70893000D01*
X146621750Y-73633000D02*
X146621750Y-73303000D01*
%TO.C,R19*%
X124880000Y-43820000D02*
X125210000Y-43820000D01*
X125210000Y-37280000D02*
X124880000Y-37280000D01*
X122470000Y-37280000D02*
X122800000Y-37280000D01*
X122800000Y-43820000D02*
X122470000Y-43820000D01*
X122470000Y-43820000D02*
X122470000Y-37280000D01*
X125210000Y-43820000D02*
X125210000Y-37280000D01*
%TO.C,J1*%
X49950000Y-43180000D02*
G75*
G03*
X49950000Y-43180000I-5500000J0D01*
G01*
%TO.C,C19*%
X42680000Y-81570000D02*
X42680000Y-74330000D01*
X42680000Y-74330000D02*
X45420000Y-74330000D01*
X45420000Y-81570000D02*
X45420000Y-74330000D01*
X42680000Y-81570000D02*
X45420000Y-81570000D01*
%TO.C,RV1*%
X86470000Y-111480000D02*
X84000000Y-111480000D01*
X74130000Y-111480000D02*
X74130000Y-116146000D01*
X81600000Y-111480000D02*
X81170000Y-111480000D01*
X79429000Y-111480000D02*
X78670000Y-111480000D01*
X76930000Y-111480000D02*
X74130000Y-111480000D01*
X86470000Y-120055000D02*
X86470000Y-123070000D01*
X86470000Y-111480000D02*
X86470000Y-116146000D01*
X74130000Y-120055000D02*
X74130000Y-123070000D01*
X86470000Y-123070000D02*
X74130000Y-123070000D01*
X82300000Y-113100000D02*
X78300000Y-113100000D01*
X78300000Y-113100000D02*
X78300000Y-114600000D01*
X78300000Y-114600000D02*
X82300000Y-114600000D01*
X82300000Y-114600000D02*
X82300000Y-113100000D01*
X82300000Y-121600000D02*
X78300000Y-121600000D01*
X78300000Y-121600000D02*
X78300000Y-123100000D01*
X78300000Y-123100000D02*
X82300000Y-123100000D01*
X82300000Y-123100000D02*
X82300000Y-121600000D01*
%TO.C,SW2*%
X180200000Y-108800000D02*
X176100000Y-108800000D01*
X174700000Y-99100000D02*
X174400000Y-98800000D01*
X174400000Y-98800000D02*
X175000000Y-98800000D01*
X175000000Y-98800000D02*
X174700000Y-99100000D01*
X188300000Y-108800000D02*
X184200000Y-108800000D01*
X184200000Y-97000000D02*
X188300000Y-97000000D01*
X188300000Y-106200000D02*
X188300000Y-108800000D01*
X180200000Y-97100000D02*
X176100000Y-97100000D01*
X182200000Y-102400000D02*
X182200000Y-103400000D01*
X188300000Y-97000000D02*
X188300000Y-99600000D01*
X176100000Y-97100000D02*
X176100000Y-108800000D01*
X181700000Y-102900000D02*
X182700000Y-102900000D01*
X188300000Y-101600000D02*
X188300000Y-104200000D01*
X185200000Y-102900000D02*
G75*
G03*
X185200000Y-102900000I-3000000J0D01*
G01*
%TO.C,U6*%
X54795750Y-94177000D02*
X60095750Y-94177000D01*
X52305750Y-94237000D02*
X62585750Y-94237000D01*
X52305750Y-58437000D02*
X52305750Y-94237000D01*
X60095750Y-58497000D02*
X58445750Y-58497000D01*
X56445750Y-58497000D02*
X54795750Y-58497000D01*
X54795750Y-58497000D02*
X54795750Y-94177000D01*
X62585750Y-58437000D02*
X52305750Y-58437000D01*
X62585750Y-94237000D02*
X62585750Y-58437000D01*
X60095750Y-94177000D02*
X60095750Y-58497000D01*
X56445750Y-58497000D02*
G75*
G03*
X58445750Y-58497000I1000000J0D01*
G01*
%TO.C,R4*%
X146875750Y-67159000D02*
X146875750Y-66829000D01*
X146875750Y-69239000D02*
X146875750Y-69569000D01*
X146875750Y-69569000D02*
X153415750Y-69569000D01*
X153415750Y-66829000D02*
X153415750Y-67159000D01*
X146875750Y-66829000D02*
X153415750Y-66829000D01*
X153415750Y-69569000D02*
X153415750Y-69239000D01*
%TO.C,R23*%
X91625750Y-59722000D02*
X91625750Y-66262000D01*
X94365750Y-59722000D02*
X94365750Y-66262000D01*
X91955750Y-59722000D02*
X91625750Y-59722000D01*
X91625750Y-66262000D02*
X91955750Y-66262000D01*
X94035750Y-59722000D02*
X94365750Y-59722000D01*
X94365750Y-66262000D02*
X94035750Y-66262000D01*
%TO.C,Q1*%
X110510000Y-48760000D02*
X106660000Y-48760000D01*
X106621389Y-48769878D02*
G75*
G03*
X110510000Y-48760000I1948611J-1690122D01*
G01*
%TO.C,R21*%
X81597750Y-75081000D02*
X81597750Y-75411000D01*
X81597750Y-73001000D02*
X81597750Y-72671000D01*
X88137750Y-72671000D02*
X88137750Y-73001000D01*
X81597750Y-75411000D02*
X88137750Y-75411000D01*
X88137750Y-75411000D02*
X88137750Y-75081000D01*
X81597750Y-72671000D02*
X88137750Y-72671000D01*
%TO.C,C10*%
X159840000Y-69135113D02*
X161291000Y-69135113D01*
X157075000Y-72369888D02*
X157575000Y-72369888D01*
X159840000Y-68814113D02*
X161182000Y-68814113D01*
X159840000Y-69415113D02*
X161350000Y-69415113D01*
X156280000Y-69255113D02*
X157760000Y-69255113D01*
X159840000Y-69054113D02*
X161268000Y-69054113D01*
X156244000Y-69455113D02*
X157760000Y-69455113D01*
X159840000Y-68934113D02*
X161228000Y-68934113D01*
X157195000Y-67774113D02*
X160405000Y-67774113D01*
X159840000Y-68854113D02*
X161198000Y-68854113D01*
X159840000Y-69255113D02*
X161320000Y-69255113D01*
X159840000Y-69094113D02*
X161280000Y-69094113D01*
X159840000Y-69575113D02*
X161369000Y-69575113D01*
X156250000Y-69415113D02*
X157760000Y-69415113D01*
X159840000Y-68094113D02*
X160737000Y-68094113D01*
X159840000Y-68494113D02*
X161024000Y-68494113D01*
X158123000Y-67294113D02*
X159477000Y-67294113D01*
X159840000Y-68974113D02*
X161242000Y-68974113D01*
X159840000Y-68014113D02*
X160664000Y-68014113D01*
X157015000Y-67934113D02*
X157760000Y-67934113D01*
X157789000Y-67414113D02*
X159811000Y-67414113D01*
X159840000Y-68174113D02*
X160804000Y-68174113D01*
X159840000Y-68134113D02*
X160771000Y-68134113D01*
X156289000Y-69215113D02*
X157760000Y-69215113D01*
X159840000Y-68054113D02*
X160701000Y-68054113D01*
X156899000Y-68054113D02*
X157760000Y-68054113D01*
X156231000Y-69575113D02*
X157760000Y-69575113D01*
X159840000Y-69815113D02*
X161380000Y-69815113D01*
X156600000Y-68454113D02*
X157760000Y-68454113D01*
X156309000Y-69135113D02*
X157760000Y-69135113D01*
X157481000Y-67574113D02*
X160119000Y-67574113D01*
X157622000Y-67494113D02*
X159978000Y-67494113D01*
X156651000Y-68374113D02*
X157760000Y-68374113D01*
X156705000Y-68294113D02*
X157760000Y-68294113D01*
X159840000Y-69014113D02*
X161255000Y-69014113D01*
X156222000Y-69695113D02*
X157760000Y-69695113D01*
X159840000Y-69775113D02*
X161380000Y-69775113D01*
X159840000Y-68694113D02*
X161129000Y-68694113D01*
X159840000Y-67814113D02*
X160453000Y-67814113D01*
X159840000Y-69295113D02*
X161328000Y-69295113D01*
X156227000Y-69615113D02*
X157760000Y-69615113D01*
X156358000Y-68974113D02*
X157760000Y-68974113D01*
X156452000Y-68734113D02*
X157760000Y-68734113D01*
X159840000Y-69655113D02*
X161376000Y-69655113D01*
X157357000Y-67654113D02*
X160243000Y-67654113D01*
X157057000Y-67894113D02*
X157760000Y-67894113D01*
X159840000Y-68614113D02*
X161090000Y-68614113D01*
X159840000Y-69535113D02*
X161365000Y-69535113D01*
X159840000Y-68214113D02*
X160835000Y-68214113D01*
X156576000Y-68494113D02*
X157760000Y-68494113D01*
X156221000Y-69735113D02*
X157760000Y-69735113D01*
X159840000Y-67934113D02*
X160585000Y-67934113D01*
X156418000Y-68814113D02*
X157760000Y-68814113D01*
X156936000Y-68014113D02*
X157760000Y-68014113D01*
X156435000Y-68774113D02*
X157760000Y-68774113D01*
X159840000Y-69215113D02*
X161311000Y-69215113D01*
X157702000Y-67454113D02*
X159898000Y-67454113D01*
X157246000Y-67734113D02*
X160354000Y-67734113D01*
X159840000Y-67854113D02*
X160499000Y-67854113D01*
X156553000Y-68534113D02*
X157760000Y-68534113D01*
X156510000Y-68614113D02*
X157760000Y-68614113D01*
X156320000Y-69094113D02*
X157760000Y-69094113D01*
X156974000Y-67974113D02*
X157760000Y-67974113D01*
X157995000Y-67334113D02*
X159605000Y-67334113D01*
X158282000Y-67254113D02*
X159318000Y-67254113D01*
X156386000Y-68894113D02*
X157760000Y-68894113D01*
X159840000Y-69455113D02*
X161356000Y-69455113D01*
X159840000Y-69375113D02*
X161343000Y-69375113D01*
X156471000Y-68694113D02*
X157760000Y-68694113D01*
X159840000Y-68734113D02*
X161148000Y-68734113D01*
X157101000Y-67854113D02*
X157760000Y-67854113D01*
X159840000Y-69735113D02*
X161379000Y-69735113D01*
X159840000Y-68334113D02*
X160922000Y-68334113D01*
X156220000Y-69815113D02*
X157760000Y-69815113D01*
X156345000Y-69014113D02*
X157760000Y-69014113D01*
X156257000Y-69375113D02*
X157760000Y-69375113D01*
X157300000Y-67694113D02*
X160300000Y-67694113D01*
X156402000Y-68854113D02*
X157760000Y-68854113D01*
X156765000Y-68214113D02*
X157760000Y-68214113D01*
X156796000Y-68174113D02*
X157760000Y-68174113D01*
X156272000Y-69295113D02*
X157760000Y-69295113D01*
X159840000Y-68254113D02*
X160865000Y-68254113D01*
X159840000Y-68454113D02*
X161000000Y-68454113D01*
X157147000Y-67814113D02*
X157760000Y-67814113D01*
X156224000Y-69655113D02*
X157760000Y-69655113D01*
X156239000Y-69495113D02*
X157760000Y-69495113D01*
X159840000Y-69335113D02*
X161336000Y-69335113D01*
X159840000Y-67974113D02*
X160626000Y-67974113D01*
X156863000Y-68094113D02*
X157760000Y-68094113D01*
X156735000Y-68254113D02*
X157760000Y-68254113D01*
X159840000Y-68774113D02*
X161165000Y-68774113D01*
X156332000Y-69054113D02*
X157760000Y-69054113D01*
X159840000Y-68894113D02*
X161214000Y-68894113D01*
X156299000Y-69175113D02*
X157760000Y-69175113D01*
X159840000Y-69495113D02*
X161361000Y-69495113D01*
X156625000Y-68414113D02*
X157760000Y-68414113D01*
X157885000Y-67374113D02*
X159715000Y-67374113D01*
X156235000Y-69535113D02*
X157760000Y-69535113D01*
X159840000Y-69615113D02*
X161373000Y-69615113D01*
X158516000Y-67214113D02*
X159084000Y-67214113D01*
X159840000Y-67894113D02*
X160543000Y-67894113D01*
X157417000Y-67614113D02*
X160183000Y-67614113D01*
X156264000Y-69335113D02*
X157760000Y-69335113D01*
X159840000Y-69175113D02*
X161301000Y-69175113D01*
X159840000Y-68414113D02*
X160975000Y-68414113D01*
X156532000Y-68574113D02*
X157760000Y-68574113D01*
X156490000Y-68654113D02*
X157760000Y-68654113D01*
X159840000Y-68294113D02*
X160895000Y-68294113D01*
X156220000Y-69775113D02*
X157760000Y-69775113D01*
X159840000Y-69695113D02*
X161378000Y-69695113D01*
X156829000Y-68134113D02*
X157760000Y-68134113D01*
X159840000Y-68574113D02*
X161068000Y-68574113D01*
X159840000Y-68534113D02*
X161047000Y-68534113D01*
X157549000Y-67534113D02*
X160051000Y-67534113D01*
X156678000Y-68334113D02*
X157760000Y-68334113D01*
X159840000Y-68374113D02*
X160949000Y-68374113D01*
X156372000Y-68934113D02*
X157760000Y-68934113D01*
X157325000Y-72619888D02*
X157325000Y-72119888D01*
X159840000Y-68654113D02*
X161110000Y-68654113D01*
X161420000Y-69815113D02*
G75*
G03*
X161420000Y-69815113I-2620000J0D01*
G01*
%TO.C,F2*%
X152480000Y-28500000D02*
X176480000Y-28500000D01*
X152480000Y-34600000D02*
X152480000Y-28500000D01*
X176480000Y-34600000D02*
X152480000Y-34600000D01*
X176480000Y-28500000D02*
X176480000Y-34600000D01*
%TO.C,J2*%
X49950000Y-60960000D02*
G75*
G03*
X49950000Y-60960000I-5500000J0D01*
G01*
%TO.C,SW3*%
X188300000Y-80900000D02*
X188300000Y-83500000D01*
X188300000Y-90100000D02*
X188300000Y-92700000D01*
X180200000Y-81000000D02*
X176100000Y-81000000D01*
X184200000Y-80900000D02*
X188300000Y-80900000D01*
X175000000Y-82700000D02*
X174700000Y-83000000D01*
X174400000Y-82700000D02*
X175000000Y-82700000D01*
X182200000Y-86300000D02*
X182200000Y-87300000D01*
X180200000Y-92700000D02*
X176100000Y-92700000D01*
X188300000Y-92700000D02*
X184200000Y-92700000D01*
X181700000Y-86800000D02*
X182700000Y-86800000D01*
X188300000Y-85500000D02*
X188300000Y-88100000D01*
X176100000Y-81000000D02*
X176100000Y-92700000D01*
X174700000Y-83000000D02*
X174400000Y-82700000D01*
X185200000Y-86800000D02*
G75*
G03*
X185200000Y-86800000I-3000000J0D01*
G01*
%TO.C,HS1*%
X126850000Y-45850000D02*
X128810000Y-43960000D01*
X136570000Y-35980000D02*
X135900000Y-35980000D01*
X144470000Y-43430000D02*
X136570000Y-43430000D01*
X162090000Y-39310000D02*
X160130000Y-41200000D01*
X126840000Y-36070000D02*
X128990000Y-39840000D01*
X128990000Y-45320000D02*
X126940000Y-46000000D01*
X126960000Y-35950000D02*
X126840000Y-36070000D01*
X153040000Y-49180000D02*
X154650000Y-45470000D01*
X159950000Y-39840000D02*
X162000000Y-39160000D01*
X162100000Y-49090000D02*
X159950000Y-45320000D01*
X131780000Y-49190000D02*
X131600000Y-49130000D01*
X157340000Y-36030000D02*
X156680000Y-38830000D01*
X162090000Y-45850000D02*
X160130000Y-43960000D01*
X134280000Y-39690000D02*
X131780000Y-35970000D01*
X134280000Y-45470000D02*
X131780000Y-49190000D01*
X135900000Y-49180000D02*
X134290000Y-45470000D01*
X161980000Y-35950000D02*
X162100000Y-36070000D01*
X132260000Y-38830000D02*
X126960000Y-35950000D01*
X126850000Y-39310000D02*
X128810000Y-41200000D01*
X126840000Y-49090000D02*
X128990000Y-45320000D01*
X131600000Y-49130000D02*
X132260000Y-46330000D01*
X144470000Y-41730000D02*
X136570000Y-41730000D01*
X157160000Y-35970000D02*
X157340000Y-36030000D01*
X156680000Y-38830000D02*
X161980000Y-35950000D01*
X131600000Y-36030000D02*
X132260000Y-38830000D01*
X154660000Y-45470000D02*
X157160000Y-49190000D01*
X136570000Y-41730000D02*
X136570000Y-35980000D01*
X152370000Y-49180000D02*
X153040000Y-49180000D01*
X162100000Y-36070000D02*
X159950000Y-39840000D01*
X162000000Y-46000000D02*
X162090000Y-45850000D01*
X157340000Y-49130000D02*
X156680000Y-46330000D01*
X162000000Y-39160000D02*
X162090000Y-39310000D01*
X152370000Y-43430000D02*
X152370000Y-49180000D01*
X161980000Y-49210000D02*
X162100000Y-49090000D01*
X126940000Y-46000000D02*
X126850000Y-45850000D01*
X128990000Y-39840000D02*
X126940000Y-39160000D01*
X136570000Y-43430000D02*
X136570000Y-49180000D01*
X144470000Y-41730000D02*
X152370000Y-41730000D01*
X152370000Y-41730000D02*
X152370000Y-35980000D01*
X153040000Y-35980000D02*
X154650000Y-39690000D01*
X159950000Y-45320000D02*
X162000000Y-46000000D01*
X135900000Y-35980000D02*
X134290000Y-39690000D01*
X152370000Y-35980000D02*
X153040000Y-35980000D01*
X154660000Y-39690000D02*
X157160000Y-35970000D01*
X144470000Y-43430000D02*
X152370000Y-43430000D01*
X126940000Y-39160000D02*
X126850000Y-39310000D01*
X126960000Y-49210000D02*
X126840000Y-49090000D01*
X157160000Y-49190000D02*
X157340000Y-49130000D01*
X156680000Y-46330000D02*
X161980000Y-49210000D01*
X132260000Y-46330000D02*
X126960000Y-49210000D01*
X131780000Y-35970000D02*
X131600000Y-36030000D01*
X136570000Y-49180000D02*
X135900000Y-49180000D01*
%TO.C,C11*%
X167284000Y-42925888D02*
X166320000Y-42925888D01*
X164240000Y-41644888D02*
X162724000Y-41644888D01*
X167429000Y-42725888D02*
X166320000Y-42725888D01*
X164240000Y-41764888D02*
X162744000Y-41764888D01*
X164240000Y-42805888D02*
X163185000Y-42805888D01*
X167455000Y-42685888D02*
X166320000Y-42685888D01*
X166378000Y-43645888D02*
X164182000Y-43645888D01*
X167849000Y-41524888D02*
X166320000Y-41524888D01*
X164240000Y-42885888D02*
X163245000Y-42885888D01*
X166085000Y-43765888D02*
X164475000Y-43765888D01*
X164240000Y-43045888D02*
X163379000Y-43045888D01*
X164240000Y-41284888D02*
X162700000Y-41284888D01*
X164240000Y-41484888D02*
X162707000Y-41484888D01*
X164240000Y-41604888D02*
X162719000Y-41604888D01*
X166458000Y-43605888D02*
X164102000Y-43605888D01*
X164240000Y-42365888D02*
X162932000Y-42365888D01*
X164240000Y-42565888D02*
X163033000Y-42565888D01*
X167860000Y-41324888D02*
X166320000Y-41324888D01*
X167217000Y-43005888D02*
X166320000Y-43005888D01*
X167853000Y-41484888D02*
X166320000Y-41484888D01*
X167375000Y-42805888D02*
X166320000Y-42805888D01*
X167678000Y-42245888D02*
X166320000Y-42245888D01*
X164240000Y-41884888D02*
X162769000Y-41884888D01*
X164240000Y-42925888D02*
X163276000Y-42925888D01*
X167548000Y-42525888D02*
X166320000Y-42525888D01*
X164240000Y-43085888D02*
X163416000Y-43085888D01*
X164240000Y-42525888D02*
X163012000Y-42525888D01*
X164240000Y-42325888D02*
X162915000Y-42325888D01*
X164240000Y-43005888D02*
X163343000Y-43005888D01*
X167708000Y-42165888D02*
X166320000Y-42165888D01*
X164240000Y-41924888D02*
X162779000Y-41924888D01*
X164240000Y-42605888D02*
X163056000Y-42605888D01*
X167065000Y-43165888D02*
X166320000Y-43165888D01*
X167860000Y-41284888D02*
X166320000Y-41284888D01*
X164240000Y-41844888D02*
X162760000Y-41844888D01*
X164240000Y-41564888D02*
X162715000Y-41564888D01*
X164240000Y-41444888D02*
X162704000Y-41444888D01*
X167251000Y-42965888D02*
X166320000Y-42965888D01*
X166933000Y-43285888D02*
X166320000Y-43285888D01*
X167144000Y-43085888D02*
X166320000Y-43085888D01*
X167845000Y-41564888D02*
X166320000Y-41564888D01*
X167106000Y-43125888D02*
X166320000Y-43125888D01*
X164240000Y-42085888D02*
X162825000Y-42085888D01*
X167402000Y-42765888D02*
X166320000Y-42765888D01*
X167315000Y-42885888D02*
X166320000Y-42885888D01*
X167527000Y-42565888D02*
X166320000Y-42565888D01*
X167791000Y-41884888D02*
X166320000Y-41884888D01*
X164240000Y-41684888D02*
X162730000Y-41684888D01*
X167590000Y-42445888D02*
X166320000Y-42445888D01*
X166723000Y-43445888D02*
X163837000Y-43445888D01*
X165564000Y-43885888D02*
X164996000Y-43885888D01*
X165957000Y-43805888D02*
X164603000Y-43805888D01*
X167645000Y-42325888D02*
X166320000Y-42325888D01*
X167023000Y-43205888D02*
X166320000Y-43205888D01*
X164240000Y-41524888D02*
X162711000Y-41524888D01*
X167760000Y-42005888D02*
X166320000Y-42005888D01*
X164240000Y-42165888D02*
X162852000Y-42165888D01*
X164240000Y-42485888D02*
X162990000Y-42485888D01*
X167856000Y-41444888D02*
X166320000Y-41444888D01*
X164240000Y-43285888D02*
X163627000Y-43285888D01*
X164240000Y-42405888D02*
X162951000Y-42405888D01*
X167662000Y-42285888D02*
X166320000Y-42285888D01*
X164240000Y-42965888D02*
X163309000Y-42965888D01*
X167005000Y-38730113D02*
X166505000Y-38730113D01*
X164240000Y-42685888D02*
X163105000Y-42685888D01*
X164240000Y-42205888D02*
X162866000Y-42205888D01*
X167841000Y-41604888D02*
X166320000Y-41604888D01*
X167628000Y-42365888D02*
X166320000Y-42365888D01*
X167181000Y-43045888D02*
X166320000Y-43045888D01*
X167694000Y-42205888D02*
X166320000Y-42205888D01*
X167858000Y-41404888D02*
X166320000Y-41404888D01*
X167800000Y-41844888D02*
X166320000Y-41844888D01*
X167345000Y-42845888D02*
X166320000Y-42845888D01*
X164240000Y-42645888D02*
X163080000Y-42645888D01*
X164240000Y-42285888D02*
X162898000Y-42285888D01*
X165798000Y-43845888D02*
X164762000Y-43845888D01*
X167771000Y-41964888D02*
X166320000Y-41964888D01*
X164240000Y-41804888D02*
X162752000Y-41804888D01*
X164240000Y-42765888D02*
X163158000Y-42765888D01*
X167480000Y-42645888D02*
X166320000Y-42645888D01*
X167781000Y-41924888D02*
X166320000Y-41924888D01*
X164240000Y-41324888D02*
X162700000Y-41324888D01*
X167859000Y-41364888D02*
X166320000Y-41364888D01*
X167735000Y-42085888D02*
X166320000Y-42085888D01*
X166599000Y-43525888D02*
X163961000Y-43525888D01*
X164240000Y-41724888D02*
X162737000Y-41724888D01*
X164240000Y-43125888D02*
X163454000Y-43125888D01*
X167722000Y-42125888D02*
X166320000Y-42125888D01*
X164240000Y-42445888D02*
X162970000Y-42445888D01*
X166755000Y-38480113D02*
X166755000Y-38980113D01*
X166885000Y-43325888D02*
X163675000Y-43325888D01*
X167609000Y-42405888D02*
X166320000Y-42405888D01*
X164240000Y-42005888D02*
X162800000Y-42005888D01*
X167836000Y-41644888D02*
X166320000Y-41644888D01*
X164240000Y-41964888D02*
X162789000Y-41964888D01*
X166531000Y-43565888D02*
X164029000Y-43565888D01*
X164240000Y-42845888D02*
X163215000Y-42845888D01*
X164240000Y-43245888D02*
X163581000Y-43245888D01*
X166979000Y-43245888D02*
X166320000Y-43245888D01*
X167504000Y-42605888D02*
X166320000Y-42605888D01*
X164240000Y-42245888D02*
X162882000Y-42245888D01*
X164240000Y-42045888D02*
X162812000Y-42045888D01*
X167570000Y-42485888D02*
X166320000Y-42485888D01*
X167830000Y-41684888D02*
X166320000Y-41684888D01*
X166780000Y-43405888D02*
X163780000Y-43405888D01*
X166663000Y-43485888D02*
X163897000Y-43485888D01*
X167823000Y-41724888D02*
X166320000Y-41724888D01*
X167816000Y-41764888D02*
X166320000Y-41764888D01*
X164240000Y-42125888D02*
X162838000Y-42125888D01*
X164240000Y-42725888D02*
X163131000Y-42725888D01*
X167808000Y-41804888D02*
X166320000Y-41804888D01*
X164240000Y-41404888D02*
X162702000Y-41404888D01*
X166834000Y-43365888D02*
X163726000Y-43365888D01*
X166291000Y-43685888D02*
X164269000Y-43685888D01*
X164240000Y-41364888D02*
X162701000Y-41364888D01*
X166195000Y-43725888D02*
X164365000Y-43725888D01*
X167748000Y-42045888D02*
X166320000Y-42045888D01*
X164240000Y-43205888D02*
X163537000Y-43205888D01*
X164240000Y-43165888D02*
X163495000Y-43165888D01*
X167900000Y-41284888D02*
G75*
G03*
X167900000Y-41284888I-2620000J0D01*
G01*
%TO.C,C14*%
X80770000Y-89979000D02*
X78030000Y-89979000D01*
X80770000Y-97219000D02*
X78030000Y-97219000D01*
X80770000Y-89979000D02*
X80770000Y-97219000D01*
X78030000Y-89979000D02*
X78030000Y-97219000D01*
%TO.C,U3*%
X149310000Y-36734000D02*
X139070000Y-36734000D01*
X149310000Y-41375000D02*
X139070000Y-41375000D01*
X149310000Y-41375000D02*
X149310000Y-36734000D01*
X139070000Y-41375000D02*
X139070000Y-36734000D01*
X142339000Y-41375000D02*
X142339000Y-39865000D01*
X146040000Y-41375000D02*
X146040000Y-39865000D01*
X149310000Y-39865000D02*
X139070000Y-39865000D01*
%TO.C,D1*%
X57970000Y-46480000D02*
X55030000Y-46480000D01*
X55030000Y-45460000D02*
X55030000Y-50900000D01*
X57970000Y-46240000D02*
X55030000Y-46240000D01*
X57970000Y-46360000D02*
X55030000Y-46360000D01*
X56500000Y-44440000D02*
X56500000Y-45460000D01*
X55030000Y-50900000D02*
X57970000Y-50900000D01*
X57970000Y-45460000D02*
X55030000Y-45460000D01*
X56500000Y-51920000D02*
X56500000Y-50900000D01*
X57970000Y-50900000D02*
X57970000Y-45460000D01*
%TO.C,C21*%
X73791750Y-81003000D02*
X73791750Y-73763000D01*
X71051750Y-81003000D02*
X73791750Y-81003000D01*
X71051750Y-73763000D02*
X73791750Y-73763000D01*
X71051750Y-81003000D02*
X71051750Y-73763000D01*
%TO.C,R24*%
X72135750Y-84428000D02*
X72135750Y-84098000D01*
X65595750Y-81688000D02*
X72135750Y-81688000D01*
X65595750Y-82018000D02*
X65595750Y-81688000D01*
X72135750Y-81688000D02*
X72135750Y-82018000D01*
X65595750Y-84098000D02*
X65595750Y-84428000D01*
X65595750Y-84428000D02*
X72135750Y-84428000D01*
%TO.C,U5*%
X79219750Y-67802000D02*
X79219750Y-69452000D01*
X89499750Y-69452000D02*
X89499750Y-64152000D01*
X79159750Y-61662000D02*
X79159750Y-71942000D01*
X79219750Y-64152000D02*
X79219750Y-65802000D01*
X89499750Y-64152000D02*
X79219750Y-64152000D01*
X79159750Y-71942000D02*
X89559750Y-71942000D01*
X89559750Y-61662000D02*
X79159750Y-61662000D01*
X89559750Y-71942000D02*
X89559750Y-61662000D01*
X79219750Y-69452000D02*
X89499750Y-69452000D01*
X79219750Y-67802000D02*
G75*
G03*
X79219750Y-65802000I0J1000000D01*
G01*
%TO.C,R2*%
X81430000Y-96980000D02*
X81760000Y-96980000D01*
X84170000Y-96980000D02*
X83840000Y-96980000D01*
X81430000Y-90440000D02*
X81430000Y-96980000D01*
X83840000Y-90440000D02*
X84170000Y-90440000D01*
X84170000Y-90440000D02*
X84170000Y-96980000D01*
X81760000Y-90440000D02*
X81430000Y-90440000D01*
%TO.C,R6*%
X153305000Y-63105000D02*
X153305000Y-63435000D01*
X146765000Y-63435000D02*
X146765000Y-63105000D01*
X146765000Y-63105000D02*
X153305000Y-63105000D01*
X153305000Y-65845000D02*
X153305000Y-65515000D01*
X146765000Y-65845000D02*
X153305000Y-65845000D01*
X146765000Y-65515000D02*
X146765000Y-65845000D01*
%TO.C,Y1*%
X51375000Y-79750000D02*
X51375000Y-86150000D01*
X46325000Y-79750000D02*
X46325000Y-86150000D01*
X46325000Y-86150000D02*
G75*
G03*
X51375000Y-86150000I2525000J0D01*
G01*
X51375000Y-79750000D02*
G75*
G03*
X46325000Y-79750000I-2525000J0D01*
G01*
%TO.C,C4*%
X69527750Y-43965000D02*
X69527750Y-51205000D01*
X72267750Y-43965000D02*
X69527750Y-43965000D01*
X72267750Y-43965000D02*
X72267750Y-51205000D01*
X72267750Y-51205000D02*
X69527750Y-51205000D01*
%TO.C,C15*%
X80770000Y-79680000D02*
X78030000Y-79680000D01*
X80770000Y-86920000D02*
X78030000Y-86920000D01*
X78030000Y-79680000D02*
X78030000Y-86920000D01*
X80770000Y-79680000D02*
X80770000Y-86920000D01*
%TO.C,Q2*%
X146525000Y-60875000D02*
X150375000Y-60875000D01*
X150413611Y-60865122D02*
G75*
G03*
X146525000Y-60875000I-1948611J1690122D01*
G01*
%TO.C,U7*%
X88580000Y-119090000D02*
X90400000Y-119090000D01*
X166500000Y-116200000D02*
X95500000Y-116200000D01*
X171000000Y-121310000D02*
X172860000Y-121310000D01*
X172860000Y-119090000D02*
X171000000Y-119090000D01*
X172860000Y-121310000D02*
X172860000Y-124340000D01*
X88580000Y-121310000D02*
X90400000Y-121310000D01*
X172860000Y-124340000D02*
X88580000Y-124340000D01*
X97500000Y-111200000D02*
X97500000Y-97200000D01*
X172860000Y-80060000D02*
X172860000Y-119090000D01*
X95500000Y-116200000D02*
X95500000Y-91200000D01*
X128000000Y-79700000D02*
X131000000Y-79700000D01*
X166500000Y-91200000D02*
X166500000Y-116200000D01*
X95500000Y-91200000D02*
X166500000Y-91200000D01*
X162500000Y-112200000D02*
X98500000Y-112200000D01*
X98500000Y-96200000D02*
X162500000Y-96200000D01*
X88580000Y-80060000D02*
X172860000Y-80060000D01*
X88580000Y-124340000D02*
X88580000Y-121310000D01*
X88580000Y-119090000D02*
X88580000Y-80060000D01*
X163530000Y-97200000D02*
X163530000Y-111200000D01*
X97504600Y-111222940D02*
G75*
G03*
X98505360Y-112223700I1000761J1D01*
G01*
X162525740Y-112203700D02*
G75*
G03*
X163526500Y-111202940I-40J1000800D01*
G01*
X98495360Y-96204240D02*
G75*
G03*
X97497140Y-97202460I0J-998220D01*
G01*
X171010000Y-121320000D02*
G75*
G03*
X171340000Y-119410000I-790000J1120000D01*
G01*
X163533960Y-97192460D02*
G75*
G03*
X162535740Y-96194240I-998260J-40D01*
G01*
X171340000Y-120970000D02*
G75*
G03*
X171000000Y-119090000I-1110000J770000D01*
G01*
X90110000Y-119380000D02*
G75*
G03*
X90400000Y-121310000I1110000J-820000D01*
G01*
X90400000Y-119090000D02*
G75*
G03*
X90110000Y-121020000I820000J-1110000D01*
G01*
%TO.C,R7*%
X145790000Y-55665000D02*
X145790000Y-55995000D01*
X145790000Y-53255000D02*
X152330000Y-53255000D01*
X152330000Y-55995000D02*
X152330000Y-55665000D01*
X152330000Y-53255000D02*
X152330000Y-53585000D01*
X145790000Y-55995000D02*
X152330000Y-55995000D01*
X145790000Y-53585000D02*
X145790000Y-53255000D01*
%TO.C,C3*%
X89336750Y-44655112D02*
X90471750Y-44655112D01*
X89336750Y-44935112D02*
X90625750Y-44935112D01*
X89336750Y-45496112D02*
X90816750Y-45496112D01*
X89336750Y-44375112D02*
X90267750Y-44375112D01*
X86821750Y-48860887D02*
X86821750Y-48360887D01*
X85746750Y-45656112D02*
X87256750Y-45656112D01*
X87198750Y-43695112D02*
X89394750Y-43695112D01*
X89336750Y-44775112D02*
X90543750Y-44775112D01*
X89336750Y-44175112D02*
X90081750Y-44175112D01*
X89336750Y-45255112D02*
X90751750Y-45255112D01*
X89336750Y-45776112D02*
X90861750Y-45776112D01*
X86359750Y-44335112D02*
X87256750Y-44335112D01*
X89336750Y-44135112D02*
X90039750Y-44135112D01*
X86174750Y-44575112D02*
X87256750Y-44575112D01*
X89336750Y-44495112D02*
X90361750Y-44495112D01*
X89336750Y-44735112D02*
X90520750Y-44735112D01*
X89336750Y-45696112D02*
X90852750Y-45696112D01*
X85854750Y-45215112D02*
X87256750Y-45215112D01*
X85760750Y-45576112D02*
X87256750Y-45576112D01*
X89336750Y-45295112D02*
X90764750Y-45295112D01*
X86691750Y-44015112D02*
X89901750Y-44015112D01*
X87045750Y-43775112D02*
X89547750Y-43775112D01*
X85753750Y-45616112D02*
X87256750Y-45616112D01*
X89336750Y-45576112D02*
X90832750Y-45576112D01*
X85723750Y-45856112D02*
X87256750Y-45856112D01*
X89336750Y-45656112D02*
X90846750Y-45656112D01*
X86006750Y-44855112D02*
X87256750Y-44855112D01*
X85768750Y-45536112D02*
X87256750Y-45536112D01*
X89336750Y-45976112D02*
X90875750Y-45976112D01*
X86977750Y-43815112D02*
X89615750Y-43815112D01*
X89336750Y-45936112D02*
X90874750Y-45936112D01*
X85948750Y-44975112D02*
X87256750Y-44975112D01*
X86511750Y-44175112D02*
X87256750Y-44175112D01*
X89336750Y-44215112D02*
X90122750Y-44215112D01*
X89336750Y-46056112D02*
X90876750Y-46056112D01*
X85868750Y-45175112D02*
X87256750Y-45175112D01*
X89336750Y-45896112D02*
X90872750Y-45896112D01*
X86643750Y-44055112D02*
X87256750Y-44055112D01*
X85716750Y-46056112D02*
X87256750Y-46056112D01*
X86096750Y-44695112D02*
X87256750Y-44695112D01*
X86028750Y-44815112D02*
X87256750Y-44815112D01*
X89336750Y-45175112D02*
X90724750Y-45175112D01*
X85718750Y-45936112D02*
X87256750Y-45936112D01*
X86121750Y-44655112D02*
X87256750Y-44655112D01*
X85986750Y-44895112D02*
X87256750Y-44895112D01*
X89336750Y-44455112D02*
X90331750Y-44455112D01*
X85716750Y-46016112D02*
X87256750Y-46016112D01*
X89336750Y-45816112D02*
X90865750Y-45816112D01*
X86261750Y-44455112D02*
X87256750Y-44455112D01*
X89336750Y-44855112D02*
X90586750Y-44855112D01*
X87118750Y-43735112D02*
X89474750Y-43735112D01*
X86292750Y-44415112D02*
X87256750Y-44415112D01*
X89336750Y-45416112D02*
X90797750Y-45416112D01*
X85717750Y-45976112D02*
X87256750Y-45976112D01*
X86231750Y-44495112D02*
X87256750Y-44495112D01*
X89336750Y-45215112D02*
X90738750Y-45215112D01*
X86853750Y-43895112D02*
X89739750Y-43895112D01*
X86553750Y-44135112D02*
X87256750Y-44135112D01*
X85735750Y-45736112D02*
X87256750Y-45736112D01*
X86470750Y-44215112D02*
X87256750Y-44215112D01*
X89336750Y-44255112D02*
X90160750Y-44255112D01*
X86796750Y-43935112D02*
X89796750Y-43935112D01*
X87778750Y-43495112D02*
X88814750Y-43495112D01*
X85816750Y-45335112D02*
X87256750Y-45335112D01*
X85727750Y-45816112D02*
X87256750Y-45816112D01*
X89336750Y-45335112D02*
X90776750Y-45335112D01*
X89336750Y-45456112D02*
X90807750Y-45456112D01*
X85931750Y-45015112D02*
X87256750Y-45015112D01*
X89336750Y-44815112D02*
X90564750Y-44815112D01*
X87491750Y-43575112D02*
X89101750Y-43575112D01*
X85882750Y-45135112D02*
X87256750Y-45135112D01*
X87285750Y-43655112D02*
X89307750Y-43655112D01*
X89336750Y-44895112D02*
X90606750Y-44895112D01*
X89336750Y-45856112D02*
X90869750Y-45856112D01*
X85731750Y-45776112D02*
X87256750Y-45776112D01*
X89336750Y-45055112D02*
X90678750Y-45055112D01*
X89336750Y-44415112D02*
X90300750Y-44415112D01*
X85967750Y-44935112D02*
X87256750Y-44935112D01*
X85740750Y-45696112D02*
X87256750Y-45696112D01*
X85785750Y-45456112D02*
X87256750Y-45456112D01*
X89336750Y-44055112D02*
X89949750Y-44055112D01*
X87619750Y-43535112D02*
X88973750Y-43535112D01*
X85828750Y-45295112D02*
X87256750Y-45295112D01*
X86913750Y-43855112D02*
X89679750Y-43855112D01*
X86147750Y-44615112D02*
X87256750Y-44615112D01*
X87381750Y-43615112D02*
X89211750Y-43615112D01*
X89336750Y-45135112D02*
X90710750Y-45135112D01*
X86201750Y-44535112D02*
X87256750Y-44535112D01*
X86432750Y-44255112D02*
X87256750Y-44255112D01*
X89336750Y-44335112D02*
X90233750Y-44335112D01*
X86597750Y-44095112D02*
X87256750Y-44095112D01*
X89336750Y-44535112D02*
X90391750Y-44535112D01*
X89336750Y-44295112D02*
X90197750Y-44295112D01*
X85898750Y-45095112D02*
X87256750Y-45095112D01*
X89336750Y-44975112D02*
X90644750Y-44975112D01*
X85914750Y-45055112D02*
X87256750Y-45055112D01*
X85795750Y-45416112D02*
X87256750Y-45416112D01*
X86742750Y-43975112D02*
X89850750Y-43975112D01*
X86049750Y-44775112D02*
X87256750Y-44775112D01*
X85841750Y-45255112D02*
X87256750Y-45255112D01*
X88012750Y-43455112D02*
X88580750Y-43455112D01*
X89336750Y-45015112D02*
X90661750Y-45015112D01*
X85720750Y-45896112D02*
X87256750Y-45896112D01*
X86571750Y-48610887D02*
X87071750Y-48610887D01*
X89336750Y-44575112D02*
X90418750Y-44575112D01*
X89336750Y-44095112D02*
X89995750Y-44095112D01*
X89336750Y-44615112D02*
X90445750Y-44615112D01*
X86395750Y-44295112D02*
X87256750Y-44295112D01*
X89336750Y-45536112D02*
X90824750Y-45536112D01*
X86072750Y-44735112D02*
X87256750Y-44735112D01*
X89336750Y-44695112D02*
X90496750Y-44695112D01*
X89336750Y-45616112D02*
X90839750Y-45616112D01*
X89336750Y-45376112D02*
X90787750Y-45376112D01*
X89336750Y-45736112D02*
X90857750Y-45736112D01*
X85805750Y-45376112D02*
X87256750Y-45376112D01*
X89336750Y-45095112D02*
X90694750Y-45095112D01*
X89336750Y-46016112D02*
X90876750Y-46016112D01*
X86325750Y-44375112D02*
X87256750Y-44375112D01*
X85776750Y-45496112D02*
X87256750Y-45496112D01*
X90916750Y-46056112D02*
G75*
G03*
X90916750Y-46056112I-2620000J0D01*
G01*
%TO.C,R15*%
X101277750Y-69437000D02*
X101277750Y-62897000D01*
X104017750Y-62897000D02*
X103687750Y-62897000D01*
X103687750Y-69437000D02*
X104017750Y-69437000D01*
X101277750Y-62897000D02*
X101607750Y-62897000D01*
X104017750Y-69437000D02*
X104017750Y-62897000D01*
X101607750Y-69437000D02*
X101277750Y-69437000D01*
%TO.C,R16*%
X114590000Y-43790000D02*
X114590000Y-37250000D01*
X114590000Y-37250000D02*
X114260000Y-37250000D01*
X112180000Y-43790000D02*
X111850000Y-43790000D01*
X111850000Y-43790000D02*
X111850000Y-37250000D01*
X114260000Y-43790000D02*
X114590000Y-43790000D01*
X111850000Y-37250000D02*
X112180000Y-37250000D01*
%TO.C,C9*%
X87570000Y-87273000D02*
X84830000Y-87273000D01*
X84830000Y-80033000D02*
X84830000Y-87273000D01*
X87570000Y-80033000D02*
X84830000Y-80033000D01*
X87570000Y-80033000D02*
X87570000Y-87273000D01*
%TO.C,C1*%
X90104000Y-39240323D02*
X80096000Y-39240323D01*
X89517000Y-40880323D02*
X86341000Y-40880323D01*
X90175000Y-38599323D02*
X80025000Y-38599323D01*
X89868000Y-40120323D02*
X86341000Y-40120323D01*
X88306000Y-42320323D02*
X81894000Y-42320323D01*
X83859000Y-41160323D02*
X80853000Y-41160323D01*
X87465000Y-42880323D02*
X82735000Y-42880323D01*
X90168000Y-38719323D02*
X80032000Y-38719323D01*
X90135000Y-39039323D02*
X80065000Y-39039323D01*
X90154000Y-38879323D02*
X80046000Y-38879323D01*
X86946000Y-43120323D02*
X83254000Y-43120323D01*
X89807000Y-40280323D02*
X86341000Y-40280323D01*
X89180000Y-41400323D02*
X86341000Y-41400323D01*
X90179000Y-38479323D02*
X80021000Y-38479323D01*
X90082000Y-39360323D02*
X80118000Y-39360323D01*
X83859000Y-39720323D02*
X80203000Y-39720323D01*
X88924000Y-41720323D02*
X86341000Y-41720323D01*
X88816000Y-41840323D02*
X86341000Y-41840323D01*
X83859000Y-40320323D02*
X80410000Y-40320323D01*
X83859000Y-41600323D02*
X81175000Y-41600323D01*
X89974000Y-39800323D02*
X86341000Y-39800323D01*
X90118000Y-39160323D02*
X80082000Y-39160323D01*
X83859000Y-41400323D02*
X81020000Y-41400323D01*
X83859000Y-41200323D02*
X80879000Y-41200323D01*
X83859000Y-40480323D02*
X80479000Y-40480323D01*
X83859000Y-40160323D02*
X80346000Y-40160323D01*
X86842000Y-43160323D02*
X83358000Y-43160323D01*
X83859000Y-40880323D02*
X80683000Y-40880323D01*
X83859000Y-42080323D02*
X81622000Y-42080323D01*
X83859000Y-40080323D02*
X80317000Y-40080323D01*
X83859000Y-41880323D02*
X81421000Y-41880323D01*
X88256000Y-42360323D02*
X81944000Y-42360323D01*
X83859000Y-40640323D02*
X80555000Y-40640323D01*
X89721000Y-40480323D02*
X86341000Y-40480323D01*
X89210000Y-41360323D02*
X86341000Y-41360323D01*
X83859000Y-41000323D02*
X80753000Y-41000323D01*
X83859000Y-40440323D02*
X80461000Y-40440323D01*
X89266000Y-41280323D02*
X86341000Y-41280323D01*
X88889000Y-41760323D02*
X86341000Y-41760323D01*
X89540000Y-40840323D02*
X86341000Y-40840323D01*
X90111000Y-39200323D02*
X80089000Y-39200323D01*
X83859000Y-41840323D02*
X81384000Y-41840323D01*
X83859000Y-41920323D02*
X81460000Y-41920323D01*
X88661000Y-42000323D02*
X86341000Y-42000323D01*
X89774000Y-40360323D02*
X86341000Y-40360323D01*
X83859000Y-39880323D02*
X80250000Y-39880323D01*
X83859000Y-39680323D02*
X80193000Y-39680323D01*
X83859000Y-40040323D02*
X80303000Y-40040323D01*
X90028000Y-39600323D02*
X80172000Y-39600323D01*
X87610000Y-42800323D02*
X82590000Y-42800323D01*
X83859000Y-41040323D02*
X80777000Y-41040323D01*
X89664000Y-40600323D02*
X86341000Y-40600323D01*
X89347000Y-41160323D02*
X86341000Y-41160323D01*
X83859000Y-41120323D02*
X80827000Y-41120323D01*
X88492000Y-42160323D02*
X81708000Y-42160323D01*
X89790000Y-40320323D02*
X86341000Y-40320323D01*
X89883000Y-40080323D02*
X86341000Y-40080323D01*
X85962000Y-43400323D02*
X84238000Y-43400323D01*
X89997000Y-39720323D02*
X86341000Y-39720323D01*
X89684000Y-40560323D02*
X86341000Y-40560323D01*
X86330000Y-43320323D02*
X83870000Y-43320323D01*
X88401000Y-42240323D02*
X81799000Y-42240323D01*
X89854000Y-40160323D02*
X86341000Y-40160323D01*
X83859000Y-41360323D02*
X80990000Y-41360323D01*
X89150000Y-41440323D02*
X86341000Y-41440323D01*
X89057000Y-41560323D02*
X86341000Y-41560323D01*
X89238000Y-41320323D02*
X86341000Y-41320323D01*
X83859000Y-40240323D02*
X80377000Y-40240323D01*
X83859000Y-41240323D02*
X80906000Y-41240323D01*
X90007000Y-39680323D02*
X86341000Y-39680323D01*
X83859000Y-40520323D02*
X80497000Y-40520323D01*
X83859000Y-40120323D02*
X80332000Y-40120323D01*
X89562000Y-40800323D02*
X86341000Y-40800323D01*
X89739000Y-40440323D02*
X86341000Y-40440323D01*
X83859000Y-39960323D02*
X80276000Y-39960323D01*
X87809000Y-42680323D02*
X82391000Y-42680323D01*
X87539000Y-42840323D02*
X82661000Y-42840323D01*
X83859000Y-39760323D02*
X80215000Y-39760323D01*
X83859000Y-40960323D02*
X80729000Y-40960323D01*
X88620000Y-42040323D02*
X86341000Y-42040323D01*
X88447000Y-42200323D02*
X81753000Y-42200323D01*
X88992000Y-41640323D02*
X86341000Y-41640323D01*
X83859000Y-39920323D02*
X80263000Y-39920323D01*
X90038000Y-39560323D02*
X80162000Y-39560323D01*
X89937000Y-39920323D02*
X86341000Y-39920323D01*
X88779000Y-41880323D02*
X86341000Y-41880323D01*
X89823000Y-40240323D02*
X86341000Y-40240323D01*
X88045000Y-42520323D02*
X82155000Y-42520323D01*
X89025000Y-41600323D02*
X86341000Y-41600323D01*
X89583000Y-40760323D02*
X86341000Y-40760323D01*
X87930000Y-42600323D02*
X82270000Y-42600323D01*
X83859000Y-42040323D02*
X81580000Y-42040323D01*
X87975000Y-32879677D02*
X87975000Y-33879677D01*
X87309000Y-42960323D02*
X82891000Y-42960323D01*
X83859000Y-41960323D02*
X81499000Y-41960323D01*
X83859000Y-41280323D02*
X80934000Y-41280323D01*
X89950000Y-39880323D02*
X86341000Y-39880323D01*
X89838000Y-40200323D02*
X86341000Y-40200323D01*
X90097000Y-39280323D02*
X80103000Y-39280323D01*
X83859000Y-40280323D02*
X80393000Y-40280323D01*
X83859000Y-41640323D02*
X81208000Y-41640323D01*
X83859000Y-41440323D02*
X81050000Y-41440323D01*
X88958000Y-41680323D02*
X86341000Y-41680323D01*
X89398000Y-41080323D02*
X86341000Y-41080323D01*
X88740000Y-41920323D02*
X86341000Y-41920323D01*
X90074000Y-39400323D02*
X80126000Y-39400323D01*
X89321000Y-41200323D02*
X86341000Y-41200323D01*
X83859000Y-40600323D02*
X80536000Y-40600323D01*
X83859000Y-40720323D02*
X80596000Y-40720323D01*
X89423000Y-41040323D02*
X86341000Y-41040323D01*
X86162000Y-43360323D02*
X84038000Y-43360323D01*
X90140000Y-38999323D02*
X80060000Y-38999323D01*
X89495000Y-40920323D02*
X86341000Y-40920323D01*
X83859000Y-40400323D02*
X80443000Y-40400323D01*
X87745000Y-42720323D02*
X82455000Y-42720323D01*
X89089000Y-41520323D02*
X86341000Y-41520323D01*
X89625000Y-40680323D02*
X86341000Y-40680323D01*
X90180000Y-38439323D02*
X80020000Y-38439323D01*
X88354000Y-42280323D02*
X81846000Y-42280323D01*
X83859000Y-41680323D02*
X81242000Y-41680323D01*
X83859000Y-40200323D02*
X80362000Y-40200323D01*
X83859000Y-39840323D02*
X80238000Y-39840323D01*
X90170000Y-38679323D02*
X80030000Y-38679323D01*
X83859000Y-40360323D02*
X80426000Y-40360323D01*
X86478000Y-43280323D02*
X83722000Y-43280323D01*
X83859000Y-40680323D02*
X80575000Y-40680323D01*
X88701000Y-41960323D02*
X86341000Y-41960323D01*
X83859000Y-40840323D02*
X80660000Y-40840323D01*
X83859000Y-41320323D02*
X80962000Y-41320323D01*
X89645000Y-40640323D02*
X86341000Y-40640323D01*
X87044000Y-43080323D02*
X83156000Y-43080323D01*
X90180000Y-38359323D02*
X80020000Y-38359323D01*
X90173000Y-38639323D02*
X80027000Y-38639323D01*
X89471000Y-40960323D02*
X86341000Y-40960323D01*
X88154000Y-42440323D02*
X82046000Y-42440323D01*
X90162000Y-38799323D02*
X80038000Y-38799323D01*
X89924000Y-39960323D02*
X86341000Y-39960323D01*
X83859000Y-42000323D02*
X81539000Y-42000323D01*
X88206000Y-42400323D02*
X81994000Y-42400323D01*
X89962000Y-39840323D02*
X86341000Y-39840323D01*
X89120000Y-41480323D02*
X86341000Y-41480323D01*
X89703000Y-40520323D02*
X86341000Y-40520323D01*
X90180000Y-38399323D02*
X80020000Y-38399323D01*
X90158000Y-38839323D02*
X80042000Y-38839323D01*
X83859000Y-40560323D02*
X80516000Y-40560323D01*
X90150000Y-38919323D02*
X80050000Y-38919323D01*
X83859000Y-39800323D02*
X80226000Y-39800323D01*
X90165000Y-38759323D02*
X80035000Y-38759323D01*
X90177000Y-38559323D02*
X80023000Y-38559323D01*
X89373000Y-41120323D02*
X86341000Y-41120323D01*
X85699000Y-43440323D02*
X84501000Y-43440323D01*
X88578000Y-42080323D02*
X86341000Y-42080323D01*
X83859000Y-41560323D02*
X81143000Y-41560323D01*
X89985000Y-39760323D02*
X86341000Y-39760323D01*
X83859000Y-41080323D02*
X80802000Y-41080323D01*
X87225000Y-43000323D02*
X82975000Y-43000323D01*
X88536000Y-42120323D02*
X81664000Y-42120323D01*
X89447000Y-41000323D02*
X86341000Y-41000323D01*
X88853000Y-41800323D02*
X86341000Y-41800323D01*
X83859000Y-40800323D02*
X80638000Y-40800323D01*
X90047000Y-39520323D02*
X80153000Y-39520323D01*
X87989000Y-42560323D02*
X82211000Y-42560323D01*
X90178000Y-38519323D02*
X80022000Y-38519323D01*
X83859000Y-40920323D02*
X80705000Y-40920323D01*
X89911000Y-40000323D02*
X86341000Y-40000323D01*
X88100000Y-42480323D02*
X82100000Y-42480323D01*
X90065000Y-39440323D02*
X80135000Y-39440323D01*
X83859000Y-41760323D02*
X81311000Y-41760323D01*
X86610000Y-43240323D02*
X83590000Y-43240323D01*
X88475000Y-33379677D02*
X87475000Y-33379677D01*
X90145000Y-38959323D02*
X80055000Y-38959323D01*
X90018000Y-39640323D02*
X86341000Y-39640323D01*
X83859000Y-41800323D02*
X81347000Y-41800323D01*
X83859000Y-40760323D02*
X80617000Y-40760323D01*
X90124000Y-39120323D02*
X80076000Y-39120323D01*
X87389000Y-42920323D02*
X82811000Y-42920323D01*
X89294000Y-41240323D02*
X86341000Y-41240323D01*
X83859000Y-41520323D02*
X81111000Y-41520323D01*
X90056000Y-39480323D02*
X80144000Y-39480323D01*
X87137000Y-43040323D02*
X83063000Y-43040323D01*
X87870000Y-42640323D02*
X82330000Y-42640323D01*
X90130000Y-39080323D02*
X80070000Y-39080323D01*
X83859000Y-41480323D02*
X81080000Y-41480323D01*
X87679000Y-42760323D02*
X82521000Y-42760323D01*
X89757000Y-40400323D02*
X86341000Y-40400323D01*
X90090000Y-39320323D02*
X80110000Y-39320323D01*
X89897000Y-40040323D02*
X86341000Y-40040323D01*
X83859000Y-41720323D02*
X81276000Y-41720323D01*
X86730000Y-43200323D02*
X83470000Y-43200323D01*
X89604000Y-40720323D02*
X86341000Y-40720323D01*
X83859000Y-40000323D02*
X80289000Y-40000323D01*
X83859000Y-39640323D02*
X80182000Y-39640323D01*
X90220000Y-38359323D02*
G75*
G03*
X90220000Y-38359323I-5120000J0D01*
G01*
%TO.C,R22*%
X81597750Y-60806000D02*
X81597750Y-60476000D01*
X81597750Y-58066000D02*
X81597750Y-58396000D01*
X88137750Y-60806000D02*
X81597750Y-60806000D01*
X88137750Y-60476000D02*
X88137750Y-60806000D01*
X88137750Y-58396000D02*
X88137750Y-58066000D01*
X88137750Y-58066000D02*
X81597750Y-58066000D01*
%TO.C,C6*%
X66603750Y-53043000D02*
X68106750Y-53043000D01*
X66603750Y-53003000D02*
X68099750Y-53003000D01*
X63043750Y-52923000D02*
X64523750Y-52923000D01*
X63699750Y-51682000D02*
X64523750Y-51682000D01*
X66603750Y-52722000D02*
X68031750Y-52722000D01*
X66603750Y-53083000D02*
X68113750Y-53083000D01*
X63095750Y-52722000D02*
X64523750Y-52722000D01*
X66603750Y-52322000D02*
X67873750Y-52322000D01*
X62990750Y-53283000D02*
X64523750Y-53283000D01*
X65045750Y-50922000D02*
X66081750Y-50922000D01*
X66603750Y-51882000D02*
X67598750Y-51882000D01*
X62987750Y-53323000D02*
X64523750Y-53323000D01*
X63910750Y-51482000D02*
X64523750Y-51482000D01*
X62985750Y-53363000D02*
X64523750Y-53363000D01*
X64312750Y-51202000D02*
X66814750Y-51202000D01*
X63528750Y-51882000D02*
X64523750Y-51882000D01*
X66603750Y-51762000D02*
X67500750Y-51762000D01*
X63626750Y-51762000D02*
X64523750Y-51762000D01*
X63498750Y-51922000D02*
X64523750Y-51922000D01*
X63363750Y-52122000D02*
X64523750Y-52122000D01*
X63181750Y-52482000D02*
X64523750Y-52482000D01*
X66603750Y-51842000D02*
X67567750Y-51842000D01*
X64180750Y-51282000D02*
X66946750Y-51282000D01*
X64758750Y-51002000D02*
X66368750Y-51002000D01*
X62983750Y-53443000D02*
X64523750Y-53443000D01*
X63388750Y-52082000D02*
X64523750Y-52082000D01*
X62994750Y-53243000D02*
X64523750Y-53243000D01*
X63820750Y-51562000D02*
X64523750Y-51562000D01*
X66603750Y-52362000D02*
X67892750Y-52362000D01*
X63253750Y-52322000D02*
X64523750Y-52322000D01*
X63083750Y-52762000D02*
X64523750Y-52762000D01*
X63662750Y-51722000D02*
X64523750Y-51722000D01*
X63295750Y-52242000D02*
X64523750Y-52242000D01*
X62983750Y-53483000D02*
X64523750Y-53483000D01*
X66603750Y-52843000D02*
X68064750Y-52843000D01*
X62984750Y-53403000D02*
X64523750Y-53403000D01*
X64009750Y-51402000D02*
X67117750Y-51402000D01*
X66603750Y-52402000D02*
X67911750Y-52402000D01*
X66603750Y-52682000D02*
X68018750Y-52682000D01*
X66603750Y-51522000D02*
X67262750Y-51522000D01*
X63864750Y-51522000D02*
X64523750Y-51522000D01*
X66603750Y-52923000D02*
X68083750Y-52923000D01*
X66603750Y-53483000D02*
X68143750Y-53483000D01*
X63559750Y-51842000D02*
X64523750Y-51842000D01*
X66603750Y-52642000D02*
X68005750Y-52642000D01*
X66603750Y-52002000D02*
X67685750Y-52002000D01*
X66603750Y-51962000D02*
X67658750Y-51962000D01*
X66603750Y-53243000D02*
X68132750Y-53243000D01*
X63198750Y-52442000D02*
X64523750Y-52442000D01*
X64088750Y-56287775D02*
X64088750Y-55787775D01*
X63013750Y-53083000D02*
X64523750Y-53083000D01*
X63234750Y-52362000D02*
X64523750Y-52362000D01*
X66603750Y-53163000D02*
X68124750Y-53163000D01*
X64552750Y-51082000D02*
X66574750Y-51082000D01*
X66603750Y-53123000D02*
X68119750Y-53123000D01*
X64648750Y-51042000D02*
X66478750Y-51042000D01*
X66603750Y-52883000D02*
X68074750Y-52883000D01*
X63468750Y-51962000D02*
X64523750Y-51962000D01*
X66603750Y-52482000D02*
X67945750Y-52482000D01*
X63020750Y-53043000D02*
X64523750Y-53043000D01*
X63165750Y-52522000D02*
X64523750Y-52522000D01*
X66603750Y-52042000D02*
X67712750Y-52042000D01*
X63108750Y-52682000D02*
X64523750Y-52682000D01*
X63737750Y-51642000D02*
X64523750Y-51642000D01*
X63316750Y-52202000D02*
X64523750Y-52202000D01*
X66603750Y-53443000D02*
X68143750Y-53443000D01*
X66603750Y-52602000D02*
X67991750Y-52602000D01*
X64063750Y-51362000D02*
X67063750Y-51362000D01*
X66603750Y-52963000D02*
X68091750Y-52963000D01*
X66603750Y-52202000D02*
X67810750Y-52202000D01*
X63215750Y-52402000D02*
X64523750Y-52402000D01*
X63002750Y-53163000D02*
X64523750Y-53163000D01*
X66603750Y-52762000D02*
X68043750Y-52762000D01*
X66603750Y-52082000D02*
X67738750Y-52082000D01*
X65279750Y-50882000D02*
X65847750Y-50882000D01*
X62998750Y-53203000D02*
X64523750Y-53203000D01*
X64886750Y-50962000D02*
X66240750Y-50962000D01*
X63592750Y-51802000D02*
X64523750Y-51802000D01*
X66603750Y-52442000D02*
X67928750Y-52442000D01*
X63027750Y-53003000D02*
X64523750Y-53003000D01*
X63339750Y-52162000D02*
X64523750Y-52162000D01*
X64244750Y-51242000D02*
X66882750Y-51242000D01*
X66603750Y-52522000D02*
X67961750Y-52522000D01*
X63149750Y-52562000D02*
X64523750Y-52562000D01*
X63035750Y-52963000D02*
X64523750Y-52963000D01*
X63052750Y-52883000D02*
X64523750Y-52883000D01*
X63062750Y-52843000D02*
X64523750Y-52843000D01*
X66603750Y-52562000D02*
X67977750Y-52562000D01*
X66603750Y-53403000D02*
X68142750Y-53403000D01*
X66603750Y-51922000D02*
X67628750Y-51922000D01*
X66603750Y-53283000D02*
X68136750Y-53283000D01*
X66603750Y-52803000D02*
X68054750Y-52803000D01*
X63778750Y-51602000D02*
X64523750Y-51602000D01*
X66603750Y-52242000D02*
X67831750Y-52242000D01*
X66603750Y-51482000D02*
X67216750Y-51482000D01*
X64120750Y-51322000D02*
X67006750Y-51322000D01*
X64465750Y-51122000D02*
X66661750Y-51122000D01*
X63121750Y-52642000D02*
X64523750Y-52642000D01*
X63414750Y-52042000D02*
X64523750Y-52042000D01*
X66603750Y-52162000D02*
X67787750Y-52162000D01*
X63441750Y-52002000D02*
X64523750Y-52002000D01*
X66603750Y-51802000D02*
X67534750Y-51802000D01*
X63838750Y-56037775D02*
X64338750Y-56037775D01*
X66603750Y-51722000D02*
X67464750Y-51722000D01*
X66603750Y-51602000D02*
X67348750Y-51602000D01*
X64385750Y-51162000D02*
X66741750Y-51162000D01*
X66603750Y-51682000D02*
X67427750Y-51682000D01*
X66603750Y-53203000D02*
X68128750Y-53203000D01*
X63135750Y-52602000D02*
X64523750Y-52602000D01*
X63958750Y-51442000D02*
X67168750Y-51442000D01*
X66603750Y-51562000D02*
X67306750Y-51562000D01*
X66603750Y-53323000D02*
X68139750Y-53323000D01*
X63072750Y-52803000D02*
X64523750Y-52803000D01*
X66603750Y-53363000D02*
X68141750Y-53363000D01*
X66603750Y-52122000D02*
X67763750Y-52122000D01*
X63273750Y-52282000D02*
X64523750Y-52282000D01*
X66603750Y-52282000D02*
X67853750Y-52282000D01*
X66603750Y-51642000D02*
X67389750Y-51642000D01*
X63007750Y-53123000D02*
X64523750Y-53123000D01*
X68183750Y-53483000D02*
G75*
G03*
X68183750Y-53483000I-2620000J0D01*
G01*
%TO.C,FB1*%
X63785000Y-61055000D02*
X63305000Y-61055000D01*
X67145000Y-61055000D02*
X67145000Y-71195000D01*
X63305000Y-71195000D02*
X63785000Y-71195000D01*
X67145000Y-71195000D02*
X66665000Y-71195000D01*
X66665000Y-61055000D02*
X67145000Y-61055000D01*
X63305000Y-61055000D02*
X63305000Y-71195000D01*
%TO.C,R12*%
X128900000Y-64790000D02*
X128900000Y-65120000D01*
X128900000Y-62710000D02*
X128900000Y-62380000D01*
X128900000Y-65120000D02*
X122360000Y-65120000D01*
X122360000Y-62380000D02*
X122360000Y-62710000D01*
X128900000Y-62380000D02*
X122360000Y-62380000D01*
X122360000Y-65120000D02*
X122360000Y-64790000D01*
%TO.C,C7*%
X134305000Y-55320000D02*
X141545000Y-55320000D01*
X134305000Y-52580000D02*
X141545000Y-52580000D01*
X141545000Y-52580000D02*
X141545000Y-55320000D01*
X134305000Y-52580000D02*
X134305000Y-55320000D01*
%TD*%
M02*
