%TF.GenerationSoftware,KiCad,Pcbnew,(6.0.7)*%
%TF.CreationDate,2022-10-29T05:58:59-06:00*%
%TF.ProjectId,atmega-powersupply-v1,61746d65-6761-42d7-906f-776572737570,rev?*%
%TF.SameCoordinates,Original*%
%TF.FileFunction,Copper,L1,Top*%
%TF.FilePolarity,Positive*%
%FSLAX46Y46*%
G04 Gerber Fmt 4.6, Leading zero omitted, Abs format (unit mm)*
G04 Created by KiCad (PCBNEW (6.0.7)) date 2022-10-29 05:58:59*
%MOMM*%
%LPD*%
G01*
G04 APERTURE LIST*
G04 Aperture macros list*
%AMRoundRect*
0 Rectangle with rounded corners*
0 $1 Rounding radius*
0 $2 $3 $4 $5 $6 $7 $8 $9 X,Y pos of 4 corners*
0 Add a 4 corners polygon primitive as box body*
4,1,4,$2,$3,$4,$5,$6,$7,$8,$9,$2,$3,0*
0 Add four circle primitives for the rounded corners*
1,1,$1+$1,$2,$3*
1,1,$1+$1,$4,$5*
1,1,$1+$1,$6,$7*
1,1,$1+$1,$8,$9*
0 Add four rect primitives between the rounded corners*
20,1,$1+$1,$2,$3,$4,$5,0*
20,1,$1+$1,$4,$5,$6,$7,0*
20,1,$1+$1,$6,$7,$8,$9,0*
20,1,$1+$1,$8,$9,$2,$3,0*%
G04 Aperture macros list end*
%TA.AperFunction,ComponentPad*%
%ADD10R,2.200000X2.200000*%
%TD*%
%TA.AperFunction,ComponentPad*%
%ADD11O,2.200000X2.200000*%
%TD*%
%TA.AperFunction,ComponentPad*%
%ADD12C,1.600000*%
%TD*%
%TA.AperFunction,ComponentPad*%
%ADD13O,1.600000X1.600000*%
%TD*%
%TA.AperFunction,ComponentPad*%
%ADD14R,1.600000X1.600000*%
%TD*%
%TA.AperFunction,ComponentPad*%
%ADD15R,1.700000X1.700000*%
%TD*%
%TA.AperFunction,ComponentPad*%
%ADD16O,1.700000X1.700000*%
%TD*%
%TA.AperFunction,ComponentPad*%
%ADD17R,2.000000X2.000000*%
%TD*%
%TA.AperFunction,ComponentPad*%
%ADD18C,2.000000*%
%TD*%
%TA.AperFunction,ComponentPad*%
%ADD19R,1.500000X1.050000*%
%TD*%
%TA.AperFunction,ComponentPad*%
%ADD20O,1.500000X1.050000*%
%TD*%
%TA.AperFunction,ComponentPad*%
%ADD21R,2.000000X1.905000*%
%TD*%
%TA.AperFunction,ComponentPad*%
%ADD22O,2.000000X1.905000*%
%TD*%
%TA.AperFunction,ComponentPad*%
%ADD23C,10.160000*%
%TD*%
%TA.AperFunction,ComponentPad*%
%ADD24C,2.300000*%
%TD*%
%TA.AperFunction,ComponentPad*%
%ADD25R,1.800000X1.800000*%
%TD*%
%TA.AperFunction,ComponentPad*%
%ADD26C,1.800000*%
%TD*%
%TA.AperFunction,ComponentPad*%
%ADD27RoundRect,0.500000X-1.000000X0.500000X-1.000000X-0.500000X1.000000X-0.500000X1.000000X0.500000X0*%
%TD*%
%TA.AperFunction,ComponentPad*%
%ADD28C,1.500000*%
%TD*%
%TA.AperFunction,ComponentPad*%
%ADD29R,3.200000X2.000000*%
%TD*%
%TA.AperFunction,ComponentPad*%
%ADD30R,1.050000X1.500000*%
%TD*%
%TA.AperFunction,ComponentPad*%
%ADD31O,1.050000X1.500000*%
%TD*%
%TA.AperFunction,ComponentPad*%
%ADD32C,6.000000*%
%TD*%
%TA.AperFunction,ComponentPad*%
%ADD33R,1.905000X2.000000*%
%TD*%
%TA.AperFunction,ComponentPad*%
%ADD34O,1.905000X2.000000*%
%TD*%
%TA.AperFunction,ComponentPad*%
%ADD35R,1.800000X2.600000*%
%TD*%
%TA.AperFunction,ComponentPad*%
%ADD36O,1.800000X2.600000*%
%TD*%
%TA.AperFunction,ComponentPad*%
%ADD37C,2.400000*%
%TD*%
%TA.AperFunction,ComponentPad*%
%ADD38O,2.400000X2.400000*%
%TD*%
%TA.AperFunction,Conductor*%
%ADD39C,1.000000*%
%TD*%
%TA.AperFunction,Conductor*%
%ADD40C,0.500000*%
%TD*%
%TA.AperFunction,Conductor*%
%ADD41C,0.250000*%
%TD*%
%TA.AperFunction,Conductor*%
%ADD42C,0.300000*%
%TD*%
G04 APERTURE END LIST*
D10*
%TO.P,D2,1,K*%
%TO.N,VAA*%
X81692750Y-45212000D03*
D11*
%TO.P,D2,2,A*%
%TO.N,+5V*%
X81692750Y-55372000D03*
%TD*%
D12*
%TO.P,C5,1*%
%TO.N,+5V*%
X77969750Y-55245000D03*
%TO.P,C5,2*%
%TO.N,Earth*%
X72969750Y-55245000D03*
%TD*%
%TO.P,R3,1*%
%TO.N,Net-(C9-Pad1)*%
X82800000Y-79629000D03*
D13*
%TO.P,R3,2*%
%TO.N,Net-(C8-Pad1)*%
X82800000Y-87249000D03*
%TD*%
D12*
%TO.P,C8,1*%
%TO.N,Net-(C8-Pad1)*%
X86200000Y-91200000D03*
%TO.P,C8,2*%
%TO.N,Earth*%
X86200000Y-96200000D03*
%TD*%
D14*
%TO.P,U2,1*%
%TO.N,Net-(R12-Pad1)*%
X134625000Y-57800000D03*
D13*
%TO.P,U2,2,-*%
%TO.N,Net-(R10-Pad2)*%
X134625000Y-60340000D03*
%TO.P,U2,3,+*%
%TO.N,Net-(R11-Pad1)*%
X134625000Y-62880000D03*
%TO.P,U2,4,V-*%
%TO.N,Earth*%
X134625000Y-65420000D03*
%TO.P,U2,5,+*%
%TO.N,Net-(C9-Pad1)*%
X142245000Y-65420000D03*
%TO.P,U2,6,-*%
%TO.N,Net-(R4-Pad1)*%
X142245000Y-62880000D03*
%TO.P,U2,7*%
%TO.N,Net-(R6-Pad1)*%
X142245000Y-60340000D03*
%TO.P,U2,8,V+*%
%TO.N,VAA*%
X142245000Y-57800000D03*
%TD*%
D12*
%TO.P,R13,1*%
%TO.N,Net-(C14-Pad1)*%
X76000000Y-89789000D03*
D13*
%TO.P,R13,2*%
%TO.N,Net-(R13-Pad2)*%
X76000000Y-97409000D03*
%TD*%
D15*
%TO.P,J5,1,MISO*%
%TO.N,Net-(J5-Pad1)*%
X64293750Y-98044000D03*
D16*
%TO.P,J5,2,VCC*%
%TO.N,+5V*%
X66833750Y-98044000D03*
%TO.P,J5,3,SCK*%
%TO.N,Net-(J5-Pad3)*%
X64293750Y-100584000D03*
%TO.P,J5,4,MOSI*%
%TO.N,Net-(J5-Pad4)*%
X66833750Y-100584000D03*
%TO.P,J5,5,~{RST}*%
%TO.N,Net-(J5-Pad5)*%
X64293750Y-103124000D03*
%TO.P,J5,6,GND*%
%TO.N,Earth*%
X66833750Y-103124000D03*
%TD*%
D12*
%TO.P,C17,1*%
%TO.N,+5V*%
X50577750Y-75184000D03*
%TO.P,C17,2*%
%TO.N,Earth*%
X50577750Y-70184000D03*
%TD*%
D17*
%TO.P,C2,1*%
%TO.N,Net-(C2-Pad1)*%
X98075750Y-47371000D03*
D18*
%TO.P,C2,2*%
%TO.N,Earth*%
X98075750Y-52371000D03*
%TD*%
D19*
%TO.P,U8,1*%
%TO.N,N/C*%
X68611750Y-78867000D03*
D20*
%TO.P,U8,2,K*%
%TO.N,Net-(C21-Pad1)*%
X68611750Y-77597000D03*
%TO.P,U8,3,A*%
%TO.N,Earth*%
X68611750Y-76327000D03*
%TD*%
D21*
%TO.P,U1,1,VI*%
%TO.N,VAA*%
X75469750Y-45085000D03*
D22*
%TO.P,U1,2,GND*%
%TO.N,Earth*%
X75469750Y-47625000D03*
%TO.P,U1,3,VO*%
%TO.N,+5V*%
X75469750Y-50165000D03*
%TD*%
D12*
%TO.P,C20,1*%
%TO.N,Earth*%
X44050000Y-90400000D03*
%TO.P,C20,2*%
%TO.N,Net-(C20-Pad2)*%
X44050000Y-85400000D03*
%TD*%
%TO.P,R18,1*%
%TO.N,Net-(D3-Pad1)*%
X120330000Y-44360000D03*
D13*
%TO.P,R18,2*%
%TO.N,+VDC*%
X120330000Y-36740000D03*
%TD*%
D12*
%TO.P,R11,1*%
%TO.N,Net-(R11-Pad1)*%
X129390000Y-67560000D03*
D13*
%TO.P,R11,2*%
%TO.N,Earth*%
X121770000Y-67560000D03*
%TD*%
D10*
%TO.P,D4,1,K*%
%TO.N,Net-(C11-Pad1)*%
X138480000Y-34200000D03*
D11*
%TO.P,D4,2,A*%
%TO.N,Net-(C10-Pad1)*%
X148640000Y-34200000D03*
%TD*%
D12*
%TO.P,C16,1*%
%TO.N,+5V*%
X76993750Y-63881000D03*
%TO.P,C16,2*%
%TO.N,Earth*%
X76993750Y-68881000D03*
%TD*%
D10*
%TO.P,D5,1,K*%
%TO.N,Net-(C11-Pad1)*%
X174980000Y-37490000D03*
D11*
%TO.P,D5,2,A*%
%TO.N,Earth*%
X174980000Y-47650000D03*
%TD*%
D23*
%TO.P,J3,1,Pin_1*%
%TO.N,Net-(F2-Pad2)*%
X184150000Y-43180000D03*
%TD*%
D12*
%TO.P,R17,1*%
%TO.N,Net-(D3-Pad1)*%
X116890000Y-44330000D03*
D13*
%TO.P,R17,2*%
%TO.N,+VDC*%
X116890000Y-36710000D03*
%TD*%
D23*
%TO.P,J4,1,Pin_1*%
%TO.N,Earth*%
X184150000Y-60960000D03*
%TD*%
D24*
%TO.P,F1,1*%
%TO.N,Net-(F1-Pad1)*%
X61560000Y-35890000D03*
X56960000Y-35890000D03*
%TO.P,F1,2*%
%TO.N,+VDC*%
X72860000Y-35890000D03*
X77460000Y-35890000D03*
%TD*%
D12*
%TO.P,R10,1*%
%TO.N,Net-(D3-Pad1)*%
X121780000Y-59970000D03*
D13*
%TO.P,R10,2*%
%TO.N,Net-(R10-Pad2)*%
X129400000Y-59970000D03*
%TD*%
D12*
%TO.P,C13,1*%
%TO.N,+VDC*%
X104100000Y-36725000D03*
%TO.P,C13,2*%
%TO.N,Earth*%
X104100000Y-41725000D03*
%TD*%
%TO.P,R9,1*%
%TO.N,+VDC*%
X121730000Y-56080000D03*
D13*
%TO.P,R9,2*%
%TO.N,Net-(R11-Pad1)*%
X129350000Y-56080000D03*
%TD*%
D12*
%TO.P,R1,1*%
%TO.N,Net-(C2-Pad1)*%
X98100000Y-43175000D03*
D13*
%TO.P,R1,2*%
%TO.N,+VDC*%
X98100000Y-35555000D03*
%TD*%
D12*
%TO.P,R20,1*%
%TO.N,Net-(F2-Pad2)*%
X92995750Y-76962000D03*
D13*
%TO.P,R20,2*%
%TO.N,Net-(R20-Pad2)*%
X92995750Y-69342000D03*
%TD*%
D12*
%TO.P,R8,1*%
%TO.N,Net-(C11-Pad1)*%
X170790000Y-38640000D03*
D13*
%TO.P,R8,2*%
%TO.N,Earth*%
X170790000Y-46260000D03*
%TD*%
D12*
%TO.P,R14,1*%
%TO.N,Net-(C15-Pad1)*%
X76000000Y-79542000D03*
D13*
%TO.P,R14,2*%
%TO.N,Net-(C14-Pad1)*%
X76000000Y-87162000D03*
%TD*%
D10*
%TO.P,D3,1,K*%
%TO.N,Net-(D3-Pad1)*%
X139150000Y-46690000D03*
D11*
%TO.P,D3,2,A*%
%TO.N,Net-(C11-Pad1)*%
X149310000Y-46690000D03*
%TD*%
D14*
%TO.P,U4,1*%
%TO.N,Net-(R15-Pad2)*%
X106721750Y-62367000D03*
D13*
%TO.P,U4,2,-*%
%TO.N,Net-(C15-Pad1)*%
X106721750Y-64907000D03*
%TO.P,U4,3,+*%
%TO.N,Net-(R12-Pad1)*%
X106721750Y-67447000D03*
%TO.P,U4,4,V-*%
%TO.N,Earth*%
X106721750Y-69987000D03*
%TO.P,U4,5,+*%
%TO.N,Net-(R12-Pad1)*%
X114341750Y-69987000D03*
%TO.P,U4,6,-*%
%TO.N,Net-(C15-Pad1)*%
X114341750Y-67447000D03*
%TO.P,U4,7*%
%TO.N,unconnected-(U4-Pad7)*%
X114341750Y-64907000D03*
%TO.P,U4,8,V+*%
%TO.N,+5V*%
X114341750Y-62367000D03*
%TD*%
D12*
%TO.P,C18,1*%
%TO.N,+5VA*%
X71024750Y-68580000D03*
%TO.P,C18,2*%
%TO.N,Earth*%
X71024750Y-63580000D03*
%TD*%
%TO.P,C12,1*%
%TO.N,+5V*%
X112820000Y-58470000D03*
%TO.P,C12,2*%
%TO.N,Earth*%
X107820000Y-58470000D03*
%TD*%
%TO.P,R5,1*%
%TO.N,Net-(C10-Pad1)*%
X153701750Y-72263000D03*
D13*
%TO.P,R5,2*%
%TO.N,Net-(R4-Pad1)*%
X146081750Y-72263000D03*
%TD*%
D12*
%TO.P,R19,1*%
%TO.N,Net-(D3-Pad1)*%
X123840000Y-44360000D03*
D13*
%TO.P,R19,2*%
%TO.N,+VDC*%
X123840000Y-36740000D03*
%TD*%
D23*
%TO.P,J1,1,Pin_1*%
%TO.N,Net-(F1-Pad1)*%
X44450000Y-43180000D03*
%TD*%
D12*
%TO.P,C19,1*%
%TO.N,Net-(C19-Pad1)*%
X44050000Y-80450000D03*
%TO.P,C19,2*%
%TO.N,Earth*%
X44050000Y-75450000D03*
%TD*%
D25*
%TO.P,RV1,1,1*%
%TO.N,+5V*%
X82800000Y-110600000D03*
D26*
%TO.P,RV1,2,2*%
%TO.N,Net-(RV1-Pad2)*%
X80300000Y-110600000D03*
%TO.P,RV1,3,3*%
%TO.N,Earth*%
X77800000Y-110600000D03*
D27*
%TO.P,RV1,MP*%
%TO.N,N/C*%
X75550000Y-118100000D03*
X85050000Y-118100000D03*
%TD*%
D28*
%TO.P,SW2,*%
%TO.N,*%
X189200000Y-105400000D03*
X189200000Y-100400000D03*
D17*
%TO.P,SW2,A,A*%
%TO.N,Net-(SW2-PadA)*%
X174700000Y-100400000D03*
D18*
%TO.P,SW2,B,B*%
%TO.N,Net-(SW2-PadB)*%
X174700000Y-105400000D03*
%TO.P,SW2,C,C*%
%TO.N,Earth*%
X174700000Y-102900000D03*
D29*
%TO.P,SW2,MP*%
%TO.N,N/C*%
X182200000Y-108500000D03*
X182200000Y-97300000D03*
%TD*%
D14*
%TO.P,U6,1,~{RESET}/PC6*%
%TO.N,Net-(J5-Pad5)*%
X53635750Y-59827000D03*
D13*
%TO.P,U6,2,PD0*%
%TO.N,Net-(U6-Pad2)*%
X53635750Y-62367000D03*
%TO.P,U6,3,PD1*%
%TO.N,Net-(U6-Pad3)*%
X53635750Y-64907000D03*
%TO.P,U6,4,PD2*%
%TO.N,unconnected-(U6-Pad4)*%
X53635750Y-67447000D03*
%TO.P,U6,5,PD3*%
%TO.N,unconnected-(U6-Pad5)*%
X53635750Y-69987000D03*
%TO.P,U6,6,PD4*%
%TO.N,Net-(U6-Pad6)*%
X53635750Y-72527000D03*
%TO.P,U6,7,VCC*%
%TO.N,+5V*%
X53635750Y-75067000D03*
%TO.P,U6,8,GND*%
%TO.N,Earth*%
X53635750Y-77607000D03*
%TO.P,U6,9,XTAL1/PB6*%
%TO.N,Net-(C19-Pad1)*%
X53635750Y-80147000D03*
%TO.P,U6,10,XTAL2/PB7*%
%TO.N,Net-(C20-Pad2)*%
X53635750Y-82687000D03*
%TO.P,U6,11,PD5*%
%TO.N,Net-(U6-Pad11)*%
X53635750Y-85227000D03*
%TO.P,U6,12,PD6*%
%TO.N,Net-(U6-Pad12)*%
X53635750Y-87767000D03*
%TO.P,U6,13,PD7*%
%TO.N,Net-(U6-Pad13)*%
X53635750Y-90307000D03*
%TO.P,U6,14,PB0*%
%TO.N,unconnected-(U6-Pad14)*%
X53635750Y-92847000D03*
%TO.P,U6,15,PB1*%
%TO.N,Net-(R2-Pad2)*%
X61255750Y-92847000D03*
%TO.P,U6,16,PB2*%
%TO.N,Net-(R13-Pad2)*%
X61255750Y-90307000D03*
%TO.P,U6,17,PB3*%
%TO.N,Net-(J5-Pad1)*%
X61255750Y-87767000D03*
%TO.P,U6,18,PB4*%
%TO.N,Net-(J5-Pad4)*%
X61255750Y-85227000D03*
%TO.P,U6,19,PB5*%
%TO.N,Net-(J5-Pad3)*%
X61255750Y-82687000D03*
%TO.P,U6,20,AVCC*%
%TO.N,+5VA*%
X61255750Y-80147000D03*
%TO.P,U6,21,AREF*%
%TO.N,Net-(C21-Pad1)*%
X61255750Y-77607000D03*
%TO.P,U6,22,GND*%
%TO.N,Earth*%
X61255750Y-75067000D03*
%TO.P,U6,23,PC0*%
%TO.N,Net-(U5-Pad1)*%
X61255750Y-72527000D03*
%TO.P,U6,24,PC1*%
%TO.N,Net-(R22-Pad2)*%
X61255750Y-69987000D03*
%TO.P,U6,25,PC2*%
%TO.N,Net-(SW2-PadB)*%
X61255750Y-67447000D03*
%TO.P,U6,26,PC3*%
%TO.N,Net-(SW2-PadA)*%
X61255750Y-64907000D03*
%TO.P,U6,27,PC4*%
%TO.N,Net-(SW3-PadB)*%
X61255750Y-62367000D03*
%TO.P,U6,28,PC5*%
%TO.N,Net-(SW3-PadA)*%
X61255750Y-59827000D03*
%TD*%
D12*
%TO.P,R4,1*%
%TO.N,Net-(R4-Pad1)*%
X146335750Y-68199000D03*
D13*
%TO.P,R4,2*%
%TO.N,Earth*%
X153955750Y-68199000D03*
%TD*%
D12*
%TO.P,R23,1*%
%TO.N,Net-(R22-Pad1)*%
X92995750Y-59182000D03*
D13*
%TO.P,R23,2*%
%TO.N,Earth*%
X92995750Y-66802000D03*
%TD*%
D30*
%TO.P,Q1,1,E*%
%TO.N,VAA*%
X109760000Y-50460000D03*
D31*
%TO.P,Q1,2,B*%
%TO.N,Net-(C2-Pad1)*%
X108490000Y-50460000D03*
%TO.P,Q1,3,C*%
%TO.N,+VDC*%
X107220000Y-50460000D03*
%TD*%
D12*
%TO.P,R21,1*%
%TO.N,Net-(R20-Pad2)*%
X81057750Y-74041000D03*
D13*
%TO.P,R21,2*%
%TO.N,Earth*%
X88677750Y-74041000D03*
%TD*%
D14*
%TO.P,C10,1*%
%TO.N,Net-(C10-Pad1)*%
X158800000Y-70815113D03*
D12*
%TO.P,C10,2*%
%TO.N,Earth*%
X158800000Y-68815113D03*
%TD*%
D24*
%TO.P,F2,1*%
%TO.N,Net-(C11-Pad1)*%
X154230000Y-31550000D03*
X158830000Y-31550000D03*
%TO.P,F2,2*%
%TO.N,Net-(F2-Pad2)*%
X174730000Y-31550000D03*
X170130000Y-31550000D03*
%TD*%
D23*
%TO.P,J2,1,Pin_1*%
%TO.N,Earth*%
X44450000Y-60960000D03*
%TD*%
D28*
%TO.P,SW3,*%
%TO.N,*%
X189200000Y-84300000D03*
X189200000Y-89300000D03*
D17*
%TO.P,SW3,A,A*%
%TO.N,Net-(SW3-PadA)*%
X174700000Y-84300000D03*
D18*
%TO.P,SW3,B,B*%
%TO.N,Net-(SW3-PadB)*%
X174700000Y-89300000D03*
%TO.P,SW3,C,C*%
%TO.N,Earth*%
X174700000Y-86800000D03*
D29*
%TO.P,SW3,MP*%
%TO.N,N/C*%
X182200000Y-92400000D03*
X182200000Y-81200000D03*
%TD*%
D32*
%TO.P,HS1,1*%
%TO.N,N/C*%
X131770000Y-42580000D03*
X157170000Y-42580000D03*
%TD*%
D14*
%TO.P,C11,1*%
%TO.N,Net-(C11-Pad1)*%
X165280000Y-40284888D03*
D12*
%TO.P,C11,2*%
%TO.N,Earth*%
X165280000Y-42284888D03*
%TD*%
%TO.P,C14,1*%
%TO.N,Net-(C14-Pad1)*%
X79400000Y-91099000D03*
%TO.P,C14,2*%
%TO.N,Earth*%
X79400000Y-96099000D03*
%TD*%
D33*
%TO.P,U3,1,ADJ*%
%TO.N,Net-(C10-Pad1)*%
X146730000Y-38105000D03*
D34*
%TO.P,U3,2,VO*%
%TO.N,Net-(C11-Pad1)*%
X144190000Y-38105000D03*
%TO.P,U3,3,VI*%
%TO.N,Net-(D3-Pad1)*%
X141650000Y-38105000D03*
%TD*%
D10*
%TO.P,D1,1,K*%
%TO.N,+VDC*%
X56500000Y-43100000D03*
D11*
%TO.P,D1,2,A*%
%TO.N,Earth*%
X56500000Y-53260000D03*
%TD*%
D12*
%TO.P,C21,1*%
%TO.N,Net-(C21-Pad1)*%
X72421750Y-79883000D03*
%TO.P,C21,2*%
%TO.N,Earth*%
X72421750Y-74883000D03*
%TD*%
%TO.P,R24,1*%
%TO.N,+5VA*%
X65055750Y-83058000D03*
D13*
%TO.P,R24,2*%
%TO.N,Net-(C21-Pad1)*%
X72675750Y-83058000D03*
%TD*%
D14*
%TO.P,U5,1*%
%TO.N,Net-(U5-Pad1)*%
X80549750Y-70612000D03*
D13*
%TO.P,U5,2,-*%
X83089750Y-70612000D03*
%TO.P,U5,3,+*%
%TO.N,Net-(R20-Pad2)*%
X85629750Y-70612000D03*
%TO.P,U5,4,V-*%
%TO.N,Earth*%
X88169750Y-70612000D03*
%TO.P,U5,5,+*%
%TO.N,Net-(R12-Pad1)*%
X88169750Y-62992000D03*
%TO.P,U5,6,-*%
%TO.N,Net-(R22-Pad1)*%
X85629750Y-62992000D03*
%TO.P,U5,7*%
%TO.N,Net-(R22-Pad2)*%
X83089750Y-62992000D03*
%TO.P,U5,8,V+*%
%TO.N,+5V*%
X80549750Y-62992000D03*
%TD*%
D12*
%TO.P,R2,1*%
%TO.N,Net-(C8-Pad1)*%
X82800000Y-89900000D03*
D13*
%TO.P,R2,2*%
%TO.N,Net-(R2-Pad2)*%
X82800000Y-97520000D03*
%TD*%
D12*
%TO.P,R6,1*%
%TO.N,Net-(R6-Pad1)*%
X146225000Y-64475000D03*
D13*
%TO.P,R6,2*%
%TO.N,Net-(Q2-Pad3)*%
X153845000Y-64475000D03*
%TD*%
D24*
%TO.P,Y1,1,1*%
%TO.N,Net-(C19-Pad1)*%
X48850000Y-80500000D03*
%TO.P,Y1,2,2*%
%TO.N,Net-(C20-Pad2)*%
X48850000Y-85400000D03*
%TD*%
D12*
%TO.P,C4,1*%
%TO.N,VAA*%
X70897750Y-45085000D03*
%TO.P,C4,2*%
%TO.N,Earth*%
X70897750Y-50085000D03*
%TD*%
%TO.P,C15,1*%
%TO.N,Net-(C15-Pad1)*%
X79400000Y-80800000D03*
%TO.P,C15,2*%
%TO.N,Earth*%
X79400000Y-85800000D03*
%TD*%
D30*
%TO.P,Q2,1,E*%
%TO.N,Earth*%
X147275000Y-59175000D03*
D31*
%TO.P,Q2,2,B*%
%TO.N,Net-(Q2-Pad2)*%
X148545000Y-59175000D03*
%TO.P,Q2,3,C*%
%TO.N,Net-(Q2-Pad3)*%
X149815000Y-59175000D03*
%TD*%
D35*
%TO.P,U7,1,VSS*%
%TO.N,Earth*%
X129500000Y-82200000D03*
D36*
%TO.P,U7,2,VDD*%
%TO.N,+5V*%
X132040000Y-82200000D03*
%TO.P,U7,3,VO*%
%TO.N,Net-(RV1-Pad2)*%
X134580000Y-82200000D03*
%TO.P,U7,4,RS*%
%TO.N,Net-(U6-Pad2)*%
X137120000Y-82200000D03*
%TO.P,U7,5,R/W*%
%TO.N,Earth*%
X139660000Y-82200000D03*
%TO.P,U7,6,E*%
%TO.N,Net-(U6-Pad3)*%
X142200000Y-82200000D03*
%TO.P,U7,7,DB0*%
%TO.N,unconnected-(U7-Pad7)*%
X144740000Y-82200000D03*
%TO.P,U7,8,DB1*%
%TO.N,unconnected-(U7-Pad8)*%
X147280000Y-82200000D03*
%TO.P,U7,9,DB2*%
%TO.N,unconnected-(U7-Pad9)*%
X149820000Y-82200000D03*
%TO.P,U7,10,DB3*%
%TO.N,unconnected-(U7-Pad10)*%
X152360000Y-82200000D03*
%TO.P,U7,11,DB4*%
%TO.N,Net-(U6-Pad6)*%
X154900000Y-82200000D03*
%TO.P,U7,12,DB5*%
%TO.N,Net-(U6-Pad11)*%
X157440000Y-82200000D03*
%TO.P,U7,13,DB6*%
%TO.N,Net-(U6-Pad12)*%
X159985080Y-82202540D03*
%TO.P,U7,14,DB7*%
%TO.N,Net-(U6-Pad13)*%
X162520000Y-82200000D03*
%TO.P,U7,15,A/VEE*%
%TO.N,unconnected-(U7-Pad15)*%
X124420000Y-82200000D03*
%TO.P,U7,16,K*%
%TO.N,unconnected-(U7-Pad16)*%
X126965080Y-82202540D03*
D17*
%TO.P,U7,A1*%
%TO.N,N/C*%
X90220000Y-108880000D03*
X92760000Y-106340000D03*
X90220000Y-106340000D03*
%TO.P,U7,K1*%
X90220000Y-98720000D03*
X90220000Y-101260000D03*
X92760000Y-101260000D03*
%TD*%
D12*
%TO.P,R7,1*%
%TO.N,Net-(C10-Pad1)*%
X145250000Y-54625000D03*
D13*
%TO.P,R7,2*%
%TO.N,Net-(Q2-Pad3)*%
X152870000Y-54625000D03*
%TD*%
D14*
%TO.P,C3,1*%
%TO.N,VAA*%
X88296750Y-47056112D03*
D12*
%TO.P,C3,2*%
%TO.N,Earth*%
X88296750Y-45056112D03*
%TD*%
%TO.P,R15,1*%
%TO.N,Net-(Q2-Pad2)*%
X102647750Y-69977000D03*
D13*
%TO.P,R15,2*%
%TO.N,Net-(R15-Pad2)*%
X102647750Y-62357000D03*
%TD*%
D12*
%TO.P,R16,1*%
%TO.N,Net-(D3-Pad1)*%
X113220000Y-44330000D03*
D13*
%TO.P,R16,2*%
%TO.N,+VDC*%
X113220000Y-36710000D03*
%TD*%
D12*
%TO.P,C9,1*%
%TO.N,Net-(C9-Pad1)*%
X86200000Y-81153000D03*
%TO.P,C9,2*%
%TO.N,Earth*%
X86200000Y-86153000D03*
%TD*%
D17*
%TO.P,C1,1*%
%TO.N,+VDC*%
X85100000Y-35859323D03*
D18*
%TO.P,C1,2*%
%TO.N,Earth*%
X85100000Y-40859323D03*
%TD*%
D12*
%TO.P,R22,1*%
%TO.N,Net-(R22-Pad1)*%
X88677750Y-59436000D03*
D13*
%TO.P,R22,2*%
%TO.N,Net-(R22-Pad2)*%
X81057750Y-59436000D03*
%TD*%
D14*
%TO.P,C6,1*%
%TO.N,+5V*%
X65563750Y-54483000D03*
D12*
%TO.P,C6,2*%
%TO.N,Earth*%
X65563750Y-52483000D03*
%TD*%
D37*
%TO.P,FB1,1*%
%TO.N,+5V*%
X65225000Y-59775000D03*
D38*
%TO.P,FB1,2*%
%TO.N,+5VA*%
X65225000Y-72475000D03*
%TD*%
D12*
%TO.P,R12,1*%
%TO.N,Net-(R12-Pad1)*%
X129440000Y-63750000D03*
D13*
%TO.P,R12,2*%
%TO.N,Net-(R10-Pad2)*%
X121820000Y-63750000D03*
%TD*%
D12*
%TO.P,C7,1*%
%TO.N,VAA*%
X135425000Y-53950000D03*
%TO.P,C7,2*%
%TO.N,Earth*%
X140425000Y-53950000D03*
%TD*%
D39*
%TO.N,VAA*%
X75469750Y-45085000D02*
X70897750Y-45085000D01*
X109800000Y-54110000D02*
X109730000Y-54180000D01*
X109760000Y-50460000D02*
X109800000Y-50500000D01*
X109800000Y-50500000D02*
X109800000Y-54110000D01*
X89185750Y-47056112D02*
X83536862Y-47056112D01*
X104884750Y-54180000D02*
X100361750Y-49657000D01*
X135425000Y-53950000D02*
X139275000Y-57800000D01*
X100361750Y-49657000D02*
X91786638Y-49657000D01*
X109730000Y-54180000D02*
X104884750Y-54180000D01*
X83536862Y-47056112D02*
X81692750Y-45212000D01*
X81692750Y-45212000D02*
X81565750Y-45085000D01*
X91786638Y-49657000D02*
X89185750Y-47056112D01*
X139275000Y-57800000D02*
X142245000Y-57800000D01*
X81565750Y-45085000D02*
X75469750Y-45085000D01*
D40*
%TO.N,Earth*%
X158183887Y-68199000D02*
X158800000Y-68815113D01*
X153955750Y-68199000D02*
X158183887Y-68199000D01*
D39*
%TO.N,+VDC*%
X121730000Y-55055000D02*
X121730000Y-56080000D01*
X120330000Y-37150000D02*
X116155000Y-41325000D01*
X120330000Y-36740000D02*
X120330000Y-37150000D01*
X107220000Y-47820000D02*
X108290000Y-46750000D01*
X116155000Y-41325000D02*
X108635000Y-41325000D01*
X108290000Y-41670000D02*
X108290000Y-46750000D01*
X113425000Y-46750000D02*
X121730000Y-55055000D01*
X107220000Y-50460000D02*
X107220000Y-47820000D01*
X108290000Y-46750000D02*
X113425000Y-46750000D01*
X108635000Y-41325000D02*
X108290000Y-41670000D01*
%TO.N,+5V*%
X132000000Y-79300000D02*
X132040000Y-79340000D01*
D40*
X104600000Y-112500000D02*
X83700000Y-112500000D01*
D39*
X81692750Y-55372000D02*
X81720750Y-55400000D01*
X65563750Y-56636774D02*
X65563750Y-54483000D01*
X77969750Y-55245000D02*
X77969750Y-57063000D01*
X66833750Y-96266000D02*
X66833750Y-98044000D01*
X75469750Y-52745000D02*
X77969750Y-55245000D01*
X77969750Y-55245000D02*
X81565750Y-55245000D01*
X62642750Y-57150000D02*
X61626750Y-56134000D01*
X53793214Y-56134000D02*
X59594750Y-56134000D01*
X170800000Y-79300000D02*
X132000000Y-79300000D01*
X76993750Y-63881000D02*
X76866750Y-63881000D01*
X61626750Y-56134000D02*
X59594750Y-56134000D01*
X64674750Y-57150000D02*
X62642750Y-57150000D01*
X45943750Y-70550000D02*
X45850000Y-70550000D01*
X51613982Y-67886018D02*
X51613982Y-58313232D01*
X64862637Y-57337887D02*
X65563750Y-56636774D01*
X76866750Y-63881000D02*
X74009250Y-61023500D01*
X64500000Y-123900000D02*
X151900000Y-123900000D01*
D40*
X132040000Y-82200000D02*
X132040000Y-85060000D01*
D39*
X65055750Y-59605750D02*
X65225000Y-59775000D01*
X151900000Y-123900000D02*
X170800000Y-105000000D01*
D40*
X132040000Y-85060000D02*
X104600000Y-112500000D01*
D39*
X51613982Y-58313232D02*
X53793214Y-56134000D01*
X81565750Y-55245000D02*
X81692750Y-55372000D01*
X50577750Y-75057000D02*
X53625750Y-75057000D01*
X43575000Y-70550000D02*
X40875000Y-73250000D01*
X50577750Y-75184000D02*
X45943750Y-70550000D01*
X112820000Y-58470000D02*
X112820000Y-60845250D01*
X65944750Y-95377000D02*
X66833750Y-96266000D01*
D40*
X83700000Y-112500000D02*
X82800000Y-111600000D01*
D39*
X59594750Y-93726000D02*
X61245750Y-95377000D01*
X40875000Y-100275000D02*
X64500000Y-123900000D01*
X112820000Y-60845250D02*
X114341750Y-62367000D01*
X112820000Y-58091250D02*
X112820000Y-58470000D01*
X51600000Y-67900000D02*
X51613982Y-67886018D01*
X77969750Y-57063000D02*
X74009250Y-61023500D01*
X61245750Y-95377000D02*
X65944750Y-95377000D01*
X132040000Y-79340000D02*
X132040000Y-82200000D01*
X59594750Y-56134000D02*
X59594750Y-93726000D01*
X74009250Y-61023500D02*
X67468750Y-54483000D01*
X45850000Y-70550000D02*
X43575000Y-70550000D01*
X170800000Y-105000000D02*
X170800000Y-79300000D01*
X48500000Y-67900000D02*
X51600000Y-67900000D01*
X53625750Y-75057000D02*
X53635750Y-75067000D01*
X81720750Y-55400000D02*
X110128750Y-55400000D01*
X65055750Y-57531000D02*
X65055750Y-59605750D01*
X110128750Y-55400000D02*
X112820000Y-58091250D01*
D40*
X82800000Y-111600000D02*
X82800000Y-110600000D01*
D39*
X76993750Y-63881000D02*
X79660750Y-63881000D01*
X67468750Y-54483000D02*
X65563750Y-54483000D01*
X79660750Y-63881000D02*
X80549750Y-62992000D01*
X40875000Y-73250000D02*
X40875000Y-100275000D01*
X45850000Y-70550000D02*
X48500000Y-67900000D01*
X75469750Y-50165000D02*
X75469750Y-52745000D01*
X64862637Y-57337887D02*
X64801750Y-57277000D01*
D40*
%TO.N,Net-(C8-Pad1)*%
X83959000Y-91059000D02*
X82800000Y-89900000D01*
X86059000Y-91059000D02*
X83959000Y-91059000D01*
X82800000Y-87249000D02*
X82800000Y-89900000D01*
X86200000Y-91200000D02*
X86059000Y-91059000D01*
%TO.N,Net-(C9-Pad1)*%
X86200000Y-81153000D02*
X86200000Y-77724000D01*
X140752750Y-65420000D02*
X142245000Y-65420000D01*
X86200000Y-77724000D02*
X89185750Y-77724000D01*
X86200000Y-81153000D02*
X84324000Y-81153000D01*
X133572750Y-72600000D02*
X140752750Y-65420000D01*
X94309750Y-72600000D02*
X133572750Y-72600000D01*
X84324000Y-81153000D02*
X82800000Y-79629000D01*
X89185750Y-77724000D02*
X94309750Y-72600000D01*
%TO.N,Net-(C10-Pad1)*%
X146730000Y-43290000D02*
X146730000Y-38105000D01*
X153701750Y-72263000D02*
X147859750Y-66421000D01*
X145250000Y-44770000D02*
X146730000Y-43290000D01*
X153701750Y-72263000D02*
X157352113Y-72263000D01*
X157352113Y-72263000D02*
X158800000Y-70815113D01*
X146730000Y-36110000D02*
X148640000Y-34200000D01*
X145250000Y-54625000D02*
X145250000Y-44770000D01*
X147859750Y-64009750D02*
X145262600Y-61412600D01*
X146730000Y-38105000D02*
X146730000Y-36110000D01*
X145262600Y-54637600D02*
X145250000Y-54625000D01*
X147859750Y-66421000D02*
X147859750Y-64009750D01*
X145262600Y-61412600D02*
X145262600Y-54637600D01*
%TO.N,Net-(C15-Pad1)*%
X111801750Y-64907000D02*
X114341750Y-67447000D01*
X79400000Y-80800000D02*
X79400000Y-78100000D01*
X77258000Y-80800000D02*
X76000000Y-79542000D01*
X79400000Y-78100000D02*
X81200000Y-76300000D01*
X81200000Y-76300000D02*
X88700000Y-76300000D01*
X106721750Y-64907000D02*
X111801750Y-64907000D01*
X100093000Y-64907000D02*
X106721750Y-64907000D01*
X79400000Y-80800000D02*
X77258000Y-80800000D01*
X88700000Y-76300000D02*
X100093000Y-64907000D01*
%TO.N,Net-(C14-Pad1)*%
X79400000Y-91099000D02*
X77310000Y-91099000D01*
X77310000Y-91099000D02*
X76000000Y-89789000D01*
X76000000Y-89789000D02*
X76000000Y-87162000D01*
%TO.N,Net-(C19-Pad1)*%
X49203000Y-80147000D02*
X48850000Y-80500000D01*
X44100000Y-80500000D02*
X44050000Y-80450000D01*
X48850000Y-80500000D02*
X44100000Y-80500000D01*
X53635750Y-80147000D02*
X49203000Y-80147000D01*
%TO.N,Net-(C20-Pad2)*%
X48850000Y-85400000D02*
X44050000Y-85400000D01*
X49200000Y-85400000D02*
X48850000Y-85400000D01*
X53635750Y-82687000D02*
X51913000Y-82687000D01*
X51913000Y-82687000D02*
X49200000Y-85400000D01*
D39*
%TO.N,Net-(D3-Pad1)*%
X123600000Y-48100000D02*
X120330000Y-44830000D01*
X123600000Y-58150000D02*
X123600000Y-48100000D01*
X121780000Y-59970000D02*
X123600000Y-58150000D01*
X120330000Y-44830000D02*
X120330000Y-44360000D01*
%TO.N,Net-(F2-Pad2)*%
X183500000Y-43830000D02*
X184150000Y-43180000D01*
X183500000Y-46960000D02*
X183500000Y-43830000D01*
X171011322Y-59448678D02*
X183500000Y-46960000D01*
X94157750Y-75800000D02*
X169720000Y-75800000D01*
X92995750Y-76962000D02*
X94157750Y-75800000D01*
X169720000Y-75800000D02*
X171011322Y-74508678D01*
X171011322Y-74508678D02*
X171011322Y-59448678D01*
D40*
%TO.N,Net-(J5-Pad5)*%
X57181750Y-98906949D02*
X59874801Y-101600000D01*
X53635750Y-59827000D02*
X57181750Y-63373000D01*
X59874801Y-101600000D02*
X59874801Y-101626051D01*
X57181750Y-63373000D02*
X57181750Y-98906949D01*
X59874801Y-101626051D02*
X61372750Y-103124000D01*
X61372750Y-103124000D02*
X64293750Y-103124000D01*
%TO.N,Net-(Q2-Pad3)*%
X149815000Y-59175000D02*
X153739200Y-59175000D01*
X153845000Y-55600000D02*
X152870000Y-54625000D01*
X153739200Y-59175000D02*
X153845000Y-59280800D01*
X153845000Y-59280800D02*
X153845000Y-55600000D01*
X153845000Y-64475000D02*
X153845000Y-59280800D01*
%TO.N,Net-(R2-Pad2)*%
X81082572Y-99237428D02*
X82800000Y-97520000D01*
X61255750Y-92847000D02*
X67605750Y-92847000D01*
X73996178Y-99237428D02*
X81082572Y-99237428D01*
X67605750Y-92847000D02*
X73996178Y-99237428D01*
%TO.N,Net-(R4-Pad1)*%
X146335750Y-68199000D02*
X146335750Y-72009000D01*
X146335750Y-68199000D02*
X146335750Y-66970750D01*
X146335750Y-66970750D02*
X142245000Y-62880000D01*
X146335750Y-72009000D02*
X146081750Y-72263000D01*
%TO.N,Net-(R6-Pad1)*%
X142245000Y-60395000D02*
X146225000Y-64375000D01*
X142245000Y-60340000D02*
X142245000Y-60395000D01*
X146225000Y-64375000D02*
X146225000Y-64475000D01*
%TO.N,Net-(R10-Pad2)*%
X129400000Y-59970000D02*
X133534750Y-59970000D01*
X125100750Y-59970000D02*
X129400000Y-59970000D01*
X121820000Y-63250750D02*
X125100750Y-59970000D01*
X133534750Y-59970000D02*
X133904750Y-60340000D01*
X133904750Y-60340000D02*
X134625000Y-60340000D01*
X121820000Y-63750000D02*
X121820000Y-63250750D01*
%TO.N,Net-(R12-Pad1)*%
X114341750Y-71796750D02*
X114341750Y-69987000D01*
X106721750Y-67447000D02*
X111174750Y-71900000D01*
X111174750Y-71900000D02*
X114445000Y-71900000D01*
X126015750Y-66694250D02*
X128960000Y-63750000D01*
X128960000Y-63750000D02*
X129440000Y-63750000D01*
X114445000Y-71900000D02*
X124416600Y-71900000D01*
D41*
X114445000Y-71900000D02*
X114341750Y-71796750D01*
D40*
X126015750Y-70300850D02*
X126015750Y-66694250D01*
X124416600Y-71900000D02*
X126015750Y-70300850D01*
%TO.N,Net-(R11-Pad1)*%
X134625000Y-62895000D02*
X134625000Y-62880000D01*
X129960000Y-67560000D02*
X134625000Y-62895000D01*
X129390000Y-67560000D02*
X129960000Y-67560000D01*
%TO.N,Net-(R13-Pad2)*%
X61255750Y-90307000D02*
X66055700Y-90307000D01*
X66055700Y-90307000D02*
X73157700Y-97409000D01*
X73157700Y-97409000D02*
X76000000Y-97409000D01*
%TO.N,Net-(R15-Pad2)*%
X102647750Y-62357000D02*
X106711750Y-62357000D01*
X106711750Y-62357000D02*
X106721750Y-62367000D01*
%TO.N,Net-(R20-Pad2)*%
X86899750Y-69342000D02*
X92995750Y-69342000D01*
X85629750Y-70612000D02*
X86899750Y-69342000D01*
X81057750Y-74041000D02*
X82200750Y-74041000D01*
X82200750Y-74041000D02*
X85629750Y-70612000D01*
%TO.N,Net-(R22-Pad1)*%
X85629750Y-62484000D02*
X88677750Y-59436000D01*
X92995750Y-59182000D02*
X88931750Y-59182000D01*
X85629750Y-62992000D02*
X85629750Y-62484000D01*
X88931750Y-59182000D02*
X88677750Y-59436000D01*
%TO.N,Net-(R22-Pad2)*%
X81057750Y-60960000D02*
X83089750Y-62992000D01*
X80930750Y-65151000D02*
X83089750Y-62992000D01*
X61255750Y-69987000D02*
X65837750Y-65405000D01*
X65837750Y-65405000D02*
X80549750Y-65405000D01*
X80803750Y-65151000D02*
X80930750Y-65151000D01*
X80549750Y-65405000D02*
X80803750Y-65151000D01*
X81057750Y-59436000D02*
X81057750Y-60960000D01*
%TO.N,Net-(U5-Pad1)*%
X67149750Y-66105000D02*
X76042750Y-66105000D01*
X80549750Y-70612000D02*
X83089750Y-70612000D01*
X61255750Y-72527000D02*
X61255750Y-71999000D01*
X76042750Y-66105000D02*
X80549750Y-70612000D01*
X61255750Y-71999000D02*
X67149750Y-66105000D01*
D42*
%TO.N,Net-(U6-Pad11)*%
X117640000Y-122000000D02*
X157440000Y-82200000D01*
X65300000Y-122000000D02*
X67500000Y-119800000D01*
X85926819Y-119800000D02*
X88126819Y-122000000D01*
X88126819Y-122000000D02*
X117640000Y-122000000D01*
X56149750Y-112849750D02*
X65300000Y-122000000D01*
X56149750Y-87741000D02*
X56149750Y-112849750D01*
X67500000Y-119800000D02*
X85926819Y-119800000D01*
X53635750Y-85227000D02*
X56149750Y-87741000D01*
%TO.N,Net-(U6-Pad12)*%
X65507106Y-122500000D02*
X67707106Y-120300000D01*
X55649750Y-113140562D02*
X65009188Y-122500000D01*
X65009188Y-122500000D02*
X65507106Y-122500000D01*
X119687620Y-122500000D02*
X159985080Y-82202540D01*
X53635750Y-87767000D02*
X55649750Y-89781000D01*
X55649750Y-89781000D02*
X55649750Y-113140562D01*
X87919713Y-122500000D02*
X119687620Y-122500000D01*
X85719713Y-120300000D02*
X87919713Y-122500000D01*
X67707106Y-120300000D02*
X85719713Y-120300000D01*
%TO.N,Net-(U6-Pad13)*%
X85512607Y-120800000D02*
X87712607Y-123000000D01*
X67914212Y-120800000D02*
X85512607Y-120800000D01*
X64802082Y-123000000D02*
X65714212Y-123000000D01*
X53635750Y-90307000D02*
X55149750Y-91821000D01*
X87712607Y-123000000D02*
X121720000Y-123000000D01*
X55149750Y-113347668D02*
X64802082Y-123000000D01*
X121720000Y-123000000D02*
X162520000Y-82200000D01*
X55149750Y-91821000D02*
X55149750Y-113347668D01*
X65714212Y-123000000D02*
X67914212Y-120800000D01*
D40*
%TO.N,+5VA*%
X65309750Y-76601000D02*
X65055750Y-76347000D01*
D39*
X65055750Y-83058000D02*
X65055750Y-76855000D01*
D40*
X67129750Y-72475000D02*
X71024750Y-68580000D01*
D39*
X65055750Y-72644250D02*
X65055750Y-76347000D01*
D40*
X65225000Y-72475000D02*
X67129750Y-72475000D01*
D39*
X61255750Y-80147000D02*
X65055750Y-76347000D01*
X65225000Y-72475000D02*
X65055750Y-72644250D01*
%TD*%
M02*
