%TF.GenerationSoftware,KiCad,Pcbnew,(6.0.7)*%
%TF.CreationDate,2022-10-29T05:59:00-06:00*%
%TF.ProjectId,atmega-powersupply-v1,61746d65-6761-42d7-906f-776572737570,rev?*%
%TF.SameCoordinates,Original*%
%TF.FileFunction,Soldermask,Top*%
%TF.FilePolarity,Negative*%
%FSLAX46Y46*%
G04 Gerber Fmt 4.6, Leading zero omitted, Abs format (unit mm)*
G04 Created by KiCad (PCBNEW (6.0.7)) date 2022-10-29 05:59:00*
%MOMM*%
%LPD*%
G01*
G04 APERTURE LIST*
G04 Aperture macros list*
%AMRoundRect*
0 Rectangle with rounded corners*
0 $1 Rounding radius*
0 $2 $3 $4 $5 $6 $7 $8 $9 X,Y pos of 4 corners*
0 Add a 4 corners polygon primitive as box body*
4,1,4,$2,$3,$4,$5,$6,$7,$8,$9,$2,$3,0*
0 Add four circle primitives for the rounded corners*
1,1,$1+$1,$2,$3*
1,1,$1+$1,$4,$5*
1,1,$1+$1,$6,$7*
1,1,$1+$1,$8,$9*
0 Add four rect primitives between the rounded corners*
20,1,$1+$1,$2,$3,$4,$5,0*
20,1,$1+$1,$4,$5,$6,$7,0*
20,1,$1+$1,$6,$7,$8,$9,0*
20,1,$1+$1,$8,$9,$2,$3,0*%
G04 Aperture macros list end*
%ADD10R,2.200000X2.200000*%
%ADD11O,2.200000X2.200000*%
%ADD12C,1.600000*%
%ADD13O,1.600000X1.600000*%
%ADD14R,1.600000X1.600000*%
%ADD15C,4.300000*%
%ADD16R,1.700000X1.700000*%
%ADD17O,1.700000X1.700000*%
%ADD18R,2.000000X2.000000*%
%ADD19C,2.000000*%
%ADD20R,1.500000X1.050000*%
%ADD21O,1.500000X1.050000*%
%ADD22R,2.000000X1.905000*%
%ADD23O,2.000000X1.905000*%
%ADD24C,10.160000*%
%ADD25C,2.300000*%
%ADD26R,1.800000X1.800000*%
%ADD27C,1.800000*%
%ADD28RoundRect,0.500000X-1.000000X0.500000X-1.000000X-0.500000X1.000000X-0.500000X1.000000X0.500000X0*%
%ADD29C,1.500000*%
%ADD30R,3.200000X2.000000*%
%ADD31R,1.050000X1.500000*%
%ADD32O,1.050000X1.500000*%
%ADD33C,6.000000*%
%ADD34R,1.905000X2.000000*%
%ADD35O,1.905000X2.000000*%
%ADD36C,2.500000*%
%ADD37R,1.800000X2.600000*%
%ADD38O,1.800000X2.600000*%
%ADD39C,2.400000*%
%ADD40O,2.400000X2.400000*%
G04 APERTURE END LIST*
D10*
%TO.C,D2*%
X81692750Y-45212000D03*
D11*
X81692750Y-55372000D03*
%TD*%
D12*
%TO.C,C5*%
X77969750Y-55245000D03*
X72969750Y-55245000D03*
%TD*%
%TO.C,R3*%
X82800000Y-79629000D03*
D13*
X82800000Y-87249000D03*
%TD*%
D12*
%TO.C,C8*%
X86200000Y-91200000D03*
X86200000Y-96200000D03*
%TD*%
D14*
%TO.C,U2*%
X134625000Y-57800000D03*
D13*
X134625000Y-60340000D03*
X134625000Y-62880000D03*
X134625000Y-65420000D03*
X142245000Y-65420000D03*
X142245000Y-62880000D03*
X142245000Y-60340000D03*
X142245000Y-57800000D03*
%TD*%
D12*
%TO.C,R13*%
X76000000Y-89789000D03*
D13*
X76000000Y-97409000D03*
%TD*%
D15*
%TO.C,H4*%
X184150000Y-31750000D03*
%TD*%
D16*
%TO.C,J5*%
X64293750Y-98044000D03*
D17*
X66833750Y-98044000D03*
X64293750Y-100584000D03*
X66833750Y-100584000D03*
X64293750Y-103124000D03*
X66833750Y-103124000D03*
%TD*%
D12*
%TO.C,C17*%
X50577750Y-75184000D03*
X50577750Y-70184000D03*
%TD*%
D18*
%TO.C,C2*%
X98075750Y-47371000D03*
D19*
X98075750Y-52371000D03*
%TD*%
D20*
%TO.C,U8*%
X68611750Y-78867000D03*
D21*
X68611750Y-77597000D03*
X68611750Y-76327000D03*
%TD*%
D22*
%TO.C,U1*%
X75469750Y-45085000D03*
D23*
X75469750Y-47625000D03*
X75469750Y-50165000D03*
%TD*%
D12*
%TO.C,C20*%
X44050000Y-90400000D03*
X44050000Y-85400000D03*
%TD*%
%TO.C,R18*%
X120330000Y-44360000D03*
D13*
X120330000Y-36740000D03*
%TD*%
D12*
%TO.C,R11*%
X129390000Y-67560000D03*
D13*
X121770000Y-67560000D03*
%TD*%
D10*
%TO.C,D4*%
X138480000Y-34200000D03*
D11*
X148640000Y-34200000D03*
%TD*%
D12*
%TO.C,C16*%
X76993750Y-63881000D03*
X76993750Y-68881000D03*
%TD*%
D10*
%TO.C,D5*%
X174980000Y-37490000D03*
D11*
X174980000Y-47650000D03*
%TD*%
D24*
%TO.C,J3*%
X184150000Y-43180000D03*
%TD*%
D12*
%TO.C,R17*%
X116890000Y-44330000D03*
D13*
X116890000Y-36710000D03*
%TD*%
D24*
%TO.C,J4*%
X184150000Y-60960000D03*
%TD*%
D15*
%TO.C,H1*%
X44450000Y-120650000D03*
%TD*%
D25*
%TO.C,F1*%
X61560000Y-35890000D03*
X56960000Y-35890000D03*
X72860000Y-35890000D03*
X77460000Y-35890000D03*
%TD*%
D12*
%TO.C,R10*%
X121780000Y-59970000D03*
D13*
X129400000Y-59970000D03*
%TD*%
D12*
%TO.C,C13*%
X104100000Y-36725000D03*
X104100000Y-41725000D03*
%TD*%
%TO.C,R9*%
X121730000Y-56080000D03*
D13*
X129350000Y-56080000D03*
%TD*%
D12*
%TO.C,R1*%
X98100000Y-43175000D03*
D13*
X98100000Y-35555000D03*
%TD*%
D12*
%TO.C,R20*%
X92995750Y-76962000D03*
D13*
X92995750Y-69342000D03*
%TD*%
D12*
%TO.C,R8*%
X170790000Y-38640000D03*
D13*
X170790000Y-46260000D03*
%TD*%
D12*
%TO.C,R14*%
X76000000Y-79542000D03*
D13*
X76000000Y-87162000D03*
%TD*%
D10*
%TO.C,D3*%
X139150000Y-46690000D03*
D11*
X149310000Y-46690000D03*
%TD*%
D14*
%TO.C,U4*%
X106721750Y-62367000D03*
D13*
X106721750Y-64907000D03*
X106721750Y-67447000D03*
X106721750Y-69987000D03*
X114341750Y-69987000D03*
X114341750Y-67447000D03*
X114341750Y-64907000D03*
X114341750Y-62367000D03*
%TD*%
D15*
%TO.C,H2*%
X184150000Y-120650000D03*
%TD*%
D12*
%TO.C,C18*%
X71024750Y-68580000D03*
X71024750Y-63580000D03*
%TD*%
%TO.C,C12*%
X112820000Y-58470000D03*
X107820000Y-58470000D03*
%TD*%
%TO.C,R5*%
X153701750Y-72263000D03*
D13*
X146081750Y-72263000D03*
%TD*%
D12*
%TO.C,R19*%
X123840000Y-44360000D03*
D13*
X123840000Y-36740000D03*
%TD*%
D24*
%TO.C,J1*%
X44450000Y-43180000D03*
%TD*%
D12*
%TO.C,C19*%
X44050000Y-80450000D03*
X44050000Y-75450000D03*
%TD*%
D15*
%TO.C,H3*%
X44450000Y-31750000D03*
%TD*%
D26*
%TO.C,RV1*%
X82800000Y-110600000D03*
D27*
X80300000Y-110600000D03*
X77800000Y-110600000D03*
D28*
X75550000Y-118100000D03*
X85050000Y-118100000D03*
%TD*%
D29*
%TO.C,SW2*%
X189200000Y-105400000D03*
X189200000Y-100400000D03*
D18*
X174700000Y-100400000D03*
D19*
X174700000Y-105400000D03*
X174700000Y-102900000D03*
D30*
X182200000Y-108500000D03*
X182200000Y-97300000D03*
%TD*%
D14*
%TO.C,U6*%
X53635750Y-59827000D03*
D13*
X53635750Y-62367000D03*
X53635750Y-64907000D03*
X53635750Y-67447000D03*
X53635750Y-69987000D03*
X53635750Y-72527000D03*
X53635750Y-75067000D03*
X53635750Y-77607000D03*
X53635750Y-80147000D03*
X53635750Y-82687000D03*
X53635750Y-85227000D03*
X53635750Y-87767000D03*
X53635750Y-90307000D03*
X53635750Y-92847000D03*
X61255750Y-92847000D03*
X61255750Y-90307000D03*
X61255750Y-87767000D03*
X61255750Y-85227000D03*
X61255750Y-82687000D03*
X61255750Y-80147000D03*
X61255750Y-77607000D03*
X61255750Y-75067000D03*
X61255750Y-72527000D03*
X61255750Y-69987000D03*
X61255750Y-67447000D03*
X61255750Y-64907000D03*
X61255750Y-62367000D03*
X61255750Y-59827000D03*
%TD*%
D12*
%TO.C,R4*%
X146335750Y-68199000D03*
D13*
X153955750Y-68199000D03*
%TD*%
D12*
%TO.C,R23*%
X92995750Y-59182000D03*
D13*
X92995750Y-66802000D03*
%TD*%
D31*
%TO.C,Q1*%
X109760000Y-50460000D03*
D32*
X108490000Y-50460000D03*
X107220000Y-50460000D03*
%TD*%
D12*
%TO.C,R21*%
X81057750Y-74041000D03*
D13*
X88677750Y-74041000D03*
%TD*%
D14*
%TO.C,C10*%
X158800000Y-70815113D03*
D12*
X158800000Y-68815113D03*
%TD*%
D25*
%TO.C,F2*%
X154230000Y-31550000D03*
X158830000Y-31550000D03*
X174730000Y-31550000D03*
X170130000Y-31550000D03*
%TD*%
D24*
%TO.C,J2*%
X44450000Y-60960000D03*
%TD*%
D29*
%TO.C,SW3*%
X189200000Y-84300000D03*
X189200000Y-89300000D03*
D18*
X174700000Y-84300000D03*
D19*
X174700000Y-89300000D03*
X174700000Y-86800000D03*
D30*
X182200000Y-92400000D03*
X182200000Y-81200000D03*
%TD*%
D33*
%TO.C,HS1*%
X131770000Y-42580000D03*
X157170000Y-42580000D03*
%TD*%
D14*
%TO.C,C11*%
X165280000Y-40284888D03*
D12*
X165280000Y-42284888D03*
%TD*%
%TO.C,C14*%
X79400000Y-91099000D03*
X79400000Y-96099000D03*
%TD*%
D34*
%TO.C,U3*%
X146730000Y-38105000D03*
D35*
X144190000Y-38105000D03*
X141650000Y-38105000D03*
%TD*%
D10*
%TO.C,D1*%
X56500000Y-43100000D03*
D11*
X56500000Y-53260000D03*
%TD*%
D12*
%TO.C,C21*%
X72421750Y-79883000D03*
X72421750Y-74883000D03*
%TD*%
%TO.C,R24*%
X65055750Y-83058000D03*
D13*
X72675750Y-83058000D03*
%TD*%
D14*
%TO.C,U5*%
X80549750Y-70612000D03*
D13*
X83089750Y-70612000D03*
X85629750Y-70612000D03*
X88169750Y-70612000D03*
X88169750Y-62992000D03*
X85629750Y-62992000D03*
X83089750Y-62992000D03*
X80549750Y-62992000D03*
%TD*%
D12*
%TO.C,R2*%
X82800000Y-89900000D03*
D13*
X82800000Y-97520000D03*
%TD*%
D12*
%TO.C,R6*%
X146225000Y-64475000D03*
D13*
X153845000Y-64475000D03*
%TD*%
D25*
%TO.C,Y1*%
X48850000Y-80500000D03*
X48850000Y-85400000D03*
%TD*%
D12*
%TO.C,C4*%
X70897750Y-45085000D03*
X70897750Y-50085000D03*
%TD*%
%TO.C,C15*%
X79400000Y-80800000D03*
X79400000Y-85800000D03*
%TD*%
D31*
%TO.C,Q2*%
X147275000Y-59175000D03*
D32*
X148545000Y-59175000D03*
X149815000Y-59175000D03*
%TD*%
D36*
%TO.C,U7*%
X91220000Y-120200000D03*
X92720000Y-84200000D03*
X170220000Y-120200000D03*
X168720000Y-84200000D03*
D37*
X129500000Y-82200000D03*
D38*
X132040000Y-82200000D03*
X134580000Y-82200000D03*
X137120000Y-82200000D03*
X139660000Y-82200000D03*
X142200000Y-82200000D03*
X144740000Y-82200000D03*
X147280000Y-82200000D03*
X149820000Y-82200000D03*
X152360000Y-82200000D03*
X154900000Y-82200000D03*
X157440000Y-82200000D03*
X159985080Y-82202540D03*
X162520000Y-82200000D03*
X124420000Y-82200000D03*
X126965080Y-82202540D03*
D18*
X90220000Y-108880000D03*
X92760000Y-106340000D03*
X90220000Y-106340000D03*
X90220000Y-98720000D03*
X90220000Y-101260000D03*
X92760000Y-101260000D03*
%TD*%
D12*
%TO.C,R7*%
X145250000Y-54625000D03*
D13*
X152870000Y-54625000D03*
%TD*%
D14*
%TO.C,C3*%
X88296750Y-47056112D03*
D12*
X88296750Y-45056112D03*
%TD*%
%TO.C,R15*%
X102647750Y-69977000D03*
D13*
X102647750Y-62357000D03*
%TD*%
D12*
%TO.C,R16*%
X113220000Y-44330000D03*
D13*
X113220000Y-36710000D03*
%TD*%
D12*
%TO.C,C9*%
X86200000Y-81153000D03*
X86200000Y-86153000D03*
%TD*%
D18*
%TO.C,C1*%
X85100000Y-35859323D03*
D19*
X85100000Y-40859323D03*
%TD*%
D12*
%TO.C,R22*%
X88677750Y-59436000D03*
D13*
X81057750Y-59436000D03*
%TD*%
D14*
%TO.C,C6*%
X65563750Y-54483000D03*
D12*
X65563750Y-52483000D03*
%TD*%
D39*
%TO.C,FB1*%
X65225000Y-59775000D03*
D40*
X65225000Y-72475000D03*
%TD*%
D12*
%TO.C,R12*%
X129440000Y-63750000D03*
D13*
X121820000Y-63750000D03*
%TD*%
D12*
%TO.C,C7*%
X135425000Y-53950000D03*
X140425000Y-53950000D03*
%TD*%
M02*
