%TF.GenerationSoftware,KiCad,Pcbnew,(6.0.7)*%
%TF.CreationDate,2022-10-29T05:58:59-06:00*%
%TF.ProjectId,atmega-powersupply-v1,61746d65-6761-42d7-906f-776572737570,rev?*%
%TF.SameCoordinates,Original*%
%TF.FileFunction,Copper,L2,Bot*%
%TF.FilePolarity,Positive*%
%FSLAX46Y46*%
G04 Gerber Fmt 4.6, Leading zero omitted, Abs format (unit mm)*
G04 Created by KiCad (PCBNEW (6.0.7)) date 2022-10-29 05:58:59*
%MOMM*%
%LPD*%
G01*
G04 APERTURE LIST*
G04 Aperture macros list*
%AMRoundRect*
0 Rectangle with rounded corners*
0 $1 Rounding radius*
0 $2 $3 $4 $5 $6 $7 $8 $9 X,Y pos of 4 corners*
0 Add a 4 corners polygon primitive as box body*
4,1,4,$2,$3,$4,$5,$6,$7,$8,$9,$2,$3,0*
0 Add four circle primitives for the rounded corners*
1,1,$1+$1,$2,$3*
1,1,$1+$1,$4,$5*
1,1,$1+$1,$6,$7*
1,1,$1+$1,$8,$9*
0 Add four rect primitives between the rounded corners*
20,1,$1+$1,$2,$3,$4,$5,0*
20,1,$1+$1,$4,$5,$6,$7,0*
20,1,$1+$1,$6,$7,$8,$9,0*
20,1,$1+$1,$8,$9,$2,$3,0*%
G04 Aperture macros list end*
%TA.AperFunction,ComponentPad*%
%ADD10R,2.200000X2.200000*%
%TD*%
%TA.AperFunction,ComponentPad*%
%ADD11O,2.200000X2.200000*%
%TD*%
%TA.AperFunction,ComponentPad*%
%ADD12C,1.600000*%
%TD*%
%TA.AperFunction,ComponentPad*%
%ADD13O,1.600000X1.600000*%
%TD*%
%TA.AperFunction,ComponentPad*%
%ADD14R,1.600000X1.600000*%
%TD*%
%TA.AperFunction,ComponentPad*%
%ADD15R,1.700000X1.700000*%
%TD*%
%TA.AperFunction,ComponentPad*%
%ADD16O,1.700000X1.700000*%
%TD*%
%TA.AperFunction,ComponentPad*%
%ADD17R,2.000000X2.000000*%
%TD*%
%TA.AperFunction,ComponentPad*%
%ADD18C,2.000000*%
%TD*%
%TA.AperFunction,ComponentPad*%
%ADD19R,1.500000X1.050000*%
%TD*%
%TA.AperFunction,ComponentPad*%
%ADD20O,1.500000X1.050000*%
%TD*%
%TA.AperFunction,ComponentPad*%
%ADD21R,2.000000X1.905000*%
%TD*%
%TA.AperFunction,ComponentPad*%
%ADD22O,2.000000X1.905000*%
%TD*%
%TA.AperFunction,ComponentPad*%
%ADD23C,10.160000*%
%TD*%
%TA.AperFunction,ComponentPad*%
%ADD24C,2.300000*%
%TD*%
%TA.AperFunction,ComponentPad*%
%ADD25R,1.800000X1.800000*%
%TD*%
%TA.AperFunction,ComponentPad*%
%ADD26C,1.800000*%
%TD*%
%TA.AperFunction,ComponentPad*%
%ADD27RoundRect,0.500000X-1.000000X0.500000X-1.000000X-0.500000X1.000000X-0.500000X1.000000X0.500000X0*%
%TD*%
%TA.AperFunction,ComponentPad*%
%ADD28C,1.500000*%
%TD*%
%TA.AperFunction,ComponentPad*%
%ADD29R,3.200000X2.000000*%
%TD*%
%TA.AperFunction,ComponentPad*%
%ADD30R,1.050000X1.500000*%
%TD*%
%TA.AperFunction,ComponentPad*%
%ADD31O,1.050000X1.500000*%
%TD*%
%TA.AperFunction,ComponentPad*%
%ADD32C,6.000000*%
%TD*%
%TA.AperFunction,ComponentPad*%
%ADD33R,1.905000X2.000000*%
%TD*%
%TA.AperFunction,ComponentPad*%
%ADD34O,1.905000X2.000000*%
%TD*%
%TA.AperFunction,ComponentPad*%
%ADD35R,1.800000X2.600000*%
%TD*%
%TA.AperFunction,ComponentPad*%
%ADD36O,1.800000X2.600000*%
%TD*%
%TA.AperFunction,ComponentPad*%
%ADD37C,2.400000*%
%TD*%
%TA.AperFunction,ComponentPad*%
%ADD38O,2.400000X2.400000*%
%TD*%
%TA.AperFunction,Conductor*%
%ADD39C,1.000000*%
%TD*%
%TA.AperFunction,Conductor*%
%ADD40C,2.000000*%
%TD*%
%TA.AperFunction,Conductor*%
%ADD41C,0.500000*%
%TD*%
%TA.AperFunction,Conductor*%
%ADD42C,0.300000*%
%TD*%
G04 APERTURE END LIST*
D10*
%TO.P,D2,1,K*%
%TO.N,VAA*%
X81692750Y-45212000D03*
D11*
%TO.P,D2,2,A*%
%TO.N,+5V*%
X81692750Y-55372000D03*
%TD*%
D12*
%TO.P,C5,1*%
%TO.N,+5V*%
X77969750Y-55245000D03*
%TO.P,C5,2*%
%TO.N,Earth*%
X72969750Y-55245000D03*
%TD*%
%TO.P,R3,1*%
%TO.N,Net-(C9-Pad1)*%
X82800000Y-79629000D03*
D13*
%TO.P,R3,2*%
%TO.N,Net-(C8-Pad1)*%
X82800000Y-87249000D03*
%TD*%
D12*
%TO.P,C8,1*%
%TO.N,Net-(C8-Pad1)*%
X86200000Y-91200000D03*
%TO.P,C8,2*%
%TO.N,Earth*%
X86200000Y-96200000D03*
%TD*%
D14*
%TO.P,U2,1*%
%TO.N,Net-(R12-Pad1)*%
X134625000Y-57800000D03*
D13*
%TO.P,U2,2,-*%
%TO.N,Net-(R10-Pad2)*%
X134625000Y-60340000D03*
%TO.P,U2,3,+*%
%TO.N,Net-(R11-Pad1)*%
X134625000Y-62880000D03*
%TO.P,U2,4,V-*%
%TO.N,Earth*%
X134625000Y-65420000D03*
%TO.P,U2,5,+*%
%TO.N,Net-(C9-Pad1)*%
X142245000Y-65420000D03*
%TO.P,U2,6,-*%
%TO.N,Net-(R4-Pad1)*%
X142245000Y-62880000D03*
%TO.P,U2,7*%
%TO.N,Net-(R6-Pad1)*%
X142245000Y-60340000D03*
%TO.P,U2,8,V+*%
%TO.N,VAA*%
X142245000Y-57800000D03*
%TD*%
D12*
%TO.P,R13,1*%
%TO.N,Net-(C14-Pad1)*%
X76000000Y-89789000D03*
D13*
%TO.P,R13,2*%
%TO.N,Net-(R13-Pad2)*%
X76000000Y-97409000D03*
%TD*%
D15*
%TO.P,J5,1,MISO*%
%TO.N,Net-(J5-Pad1)*%
X64293750Y-98044000D03*
D16*
%TO.P,J5,2,VCC*%
%TO.N,+5V*%
X66833750Y-98044000D03*
%TO.P,J5,3,SCK*%
%TO.N,Net-(J5-Pad3)*%
X64293750Y-100584000D03*
%TO.P,J5,4,MOSI*%
%TO.N,Net-(J5-Pad4)*%
X66833750Y-100584000D03*
%TO.P,J5,5,~{RST}*%
%TO.N,Net-(J5-Pad5)*%
X64293750Y-103124000D03*
%TO.P,J5,6,GND*%
%TO.N,Earth*%
X66833750Y-103124000D03*
%TD*%
D12*
%TO.P,C17,1*%
%TO.N,+5V*%
X50577750Y-75184000D03*
%TO.P,C17,2*%
%TO.N,Earth*%
X50577750Y-70184000D03*
%TD*%
D17*
%TO.P,C2,1*%
%TO.N,Net-(C2-Pad1)*%
X98075750Y-47371000D03*
D18*
%TO.P,C2,2*%
%TO.N,Earth*%
X98075750Y-52371000D03*
%TD*%
D19*
%TO.P,U8,1*%
%TO.N,N/C*%
X68611750Y-78867000D03*
D20*
%TO.P,U8,2,K*%
%TO.N,Net-(C21-Pad1)*%
X68611750Y-77597000D03*
%TO.P,U8,3,A*%
%TO.N,Earth*%
X68611750Y-76327000D03*
%TD*%
D21*
%TO.P,U1,1,VI*%
%TO.N,VAA*%
X75469750Y-45085000D03*
D22*
%TO.P,U1,2,GND*%
%TO.N,Earth*%
X75469750Y-47625000D03*
%TO.P,U1,3,VO*%
%TO.N,+5V*%
X75469750Y-50165000D03*
%TD*%
D12*
%TO.P,C20,1*%
%TO.N,Earth*%
X44050000Y-90400000D03*
%TO.P,C20,2*%
%TO.N,Net-(C20-Pad2)*%
X44050000Y-85400000D03*
%TD*%
%TO.P,R18,1*%
%TO.N,Net-(D3-Pad1)*%
X120330000Y-44360000D03*
D13*
%TO.P,R18,2*%
%TO.N,+VDC*%
X120330000Y-36740000D03*
%TD*%
D12*
%TO.P,R11,1*%
%TO.N,Net-(R11-Pad1)*%
X129390000Y-67560000D03*
D13*
%TO.P,R11,2*%
%TO.N,Earth*%
X121770000Y-67560000D03*
%TD*%
D10*
%TO.P,D4,1,K*%
%TO.N,Net-(C11-Pad1)*%
X138480000Y-34200000D03*
D11*
%TO.P,D4,2,A*%
%TO.N,Net-(C10-Pad1)*%
X148640000Y-34200000D03*
%TD*%
D12*
%TO.P,C16,1*%
%TO.N,+5V*%
X76993750Y-63881000D03*
%TO.P,C16,2*%
%TO.N,Earth*%
X76993750Y-68881000D03*
%TD*%
D10*
%TO.P,D5,1,K*%
%TO.N,Net-(C11-Pad1)*%
X174980000Y-37490000D03*
D11*
%TO.P,D5,2,A*%
%TO.N,Earth*%
X174980000Y-47650000D03*
%TD*%
D23*
%TO.P,J3,1,Pin_1*%
%TO.N,Net-(F2-Pad2)*%
X184150000Y-43180000D03*
%TD*%
D12*
%TO.P,R17,1*%
%TO.N,Net-(D3-Pad1)*%
X116890000Y-44330000D03*
D13*
%TO.P,R17,2*%
%TO.N,+VDC*%
X116890000Y-36710000D03*
%TD*%
D23*
%TO.P,J4,1,Pin_1*%
%TO.N,Earth*%
X184150000Y-60960000D03*
%TD*%
D24*
%TO.P,F1,1*%
%TO.N,Net-(F1-Pad1)*%
X61560000Y-35890000D03*
X56960000Y-35890000D03*
%TO.P,F1,2*%
%TO.N,+VDC*%
X72860000Y-35890000D03*
X77460000Y-35890000D03*
%TD*%
D12*
%TO.P,R10,1*%
%TO.N,Net-(D3-Pad1)*%
X121780000Y-59970000D03*
D13*
%TO.P,R10,2*%
%TO.N,Net-(R10-Pad2)*%
X129400000Y-59970000D03*
%TD*%
D12*
%TO.P,C13,1*%
%TO.N,+VDC*%
X104100000Y-36725000D03*
%TO.P,C13,2*%
%TO.N,Earth*%
X104100000Y-41725000D03*
%TD*%
%TO.P,R9,1*%
%TO.N,+VDC*%
X121730000Y-56080000D03*
D13*
%TO.P,R9,2*%
%TO.N,Net-(R11-Pad1)*%
X129350000Y-56080000D03*
%TD*%
D12*
%TO.P,R1,1*%
%TO.N,Net-(C2-Pad1)*%
X98100000Y-43175000D03*
D13*
%TO.P,R1,2*%
%TO.N,+VDC*%
X98100000Y-35555000D03*
%TD*%
D12*
%TO.P,R20,1*%
%TO.N,Net-(F2-Pad2)*%
X92995750Y-76962000D03*
D13*
%TO.P,R20,2*%
%TO.N,Net-(R20-Pad2)*%
X92995750Y-69342000D03*
%TD*%
D12*
%TO.P,R8,1*%
%TO.N,Net-(C11-Pad1)*%
X170790000Y-38640000D03*
D13*
%TO.P,R8,2*%
%TO.N,Earth*%
X170790000Y-46260000D03*
%TD*%
D12*
%TO.P,R14,1*%
%TO.N,Net-(C15-Pad1)*%
X76000000Y-79542000D03*
D13*
%TO.P,R14,2*%
%TO.N,Net-(C14-Pad1)*%
X76000000Y-87162000D03*
%TD*%
D10*
%TO.P,D3,1,K*%
%TO.N,Net-(D3-Pad1)*%
X139150000Y-46690000D03*
D11*
%TO.P,D3,2,A*%
%TO.N,Net-(C11-Pad1)*%
X149310000Y-46690000D03*
%TD*%
D14*
%TO.P,U4,1*%
%TO.N,Net-(R15-Pad2)*%
X106721750Y-62367000D03*
D13*
%TO.P,U4,2,-*%
%TO.N,Net-(C15-Pad1)*%
X106721750Y-64907000D03*
%TO.P,U4,3,+*%
%TO.N,Net-(R12-Pad1)*%
X106721750Y-67447000D03*
%TO.P,U4,4,V-*%
%TO.N,Earth*%
X106721750Y-69987000D03*
%TO.P,U4,5,+*%
%TO.N,Net-(R12-Pad1)*%
X114341750Y-69987000D03*
%TO.P,U4,6,-*%
%TO.N,Net-(C15-Pad1)*%
X114341750Y-67447000D03*
%TO.P,U4,7*%
%TO.N,unconnected-(U4-Pad7)*%
X114341750Y-64907000D03*
%TO.P,U4,8,V+*%
%TO.N,+5V*%
X114341750Y-62367000D03*
%TD*%
D12*
%TO.P,C18,1*%
%TO.N,+5VA*%
X71024750Y-68580000D03*
%TO.P,C18,2*%
%TO.N,Earth*%
X71024750Y-63580000D03*
%TD*%
%TO.P,C12,1*%
%TO.N,+5V*%
X112820000Y-58470000D03*
%TO.P,C12,2*%
%TO.N,Earth*%
X107820000Y-58470000D03*
%TD*%
%TO.P,R5,1*%
%TO.N,Net-(C10-Pad1)*%
X153701750Y-72263000D03*
D13*
%TO.P,R5,2*%
%TO.N,Net-(R4-Pad1)*%
X146081750Y-72263000D03*
%TD*%
D12*
%TO.P,R19,1*%
%TO.N,Net-(D3-Pad1)*%
X123840000Y-44360000D03*
D13*
%TO.P,R19,2*%
%TO.N,+VDC*%
X123840000Y-36740000D03*
%TD*%
D23*
%TO.P,J1,1,Pin_1*%
%TO.N,Net-(F1-Pad1)*%
X44450000Y-43180000D03*
%TD*%
D12*
%TO.P,C19,1*%
%TO.N,Net-(C19-Pad1)*%
X44050000Y-80450000D03*
%TO.P,C19,2*%
%TO.N,Earth*%
X44050000Y-75450000D03*
%TD*%
D25*
%TO.P,RV1,1,1*%
%TO.N,+5V*%
X82800000Y-110600000D03*
D26*
%TO.P,RV1,2,2*%
%TO.N,Net-(RV1-Pad2)*%
X80300000Y-110600000D03*
%TO.P,RV1,3,3*%
%TO.N,Earth*%
X77800000Y-110600000D03*
D27*
%TO.P,RV1,MP*%
%TO.N,N/C*%
X75550000Y-118100000D03*
X85050000Y-118100000D03*
%TD*%
D28*
%TO.P,SW2,*%
%TO.N,*%
X189200000Y-105400000D03*
X189200000Y-100400000D03*
D17*
%TO.P,SW2,A,A*%
%TO.N,Net-(SW2-PadA)*%
X174700000Y-100400000D03*
D18*
%TO.P,SW2,B,B*%
%TO.N,Net-(SW2-PadB)*%
X174700000Y-105400000D03*
%TO.P,SW2,C,C*%
%TO.N,Earth*%
X174700000Y-102900000D03*
D29*
%TO.P,SW2,MP*%
%TO.N,N/C*%
X182200000Y-108500000D03*
X182200000Y-97300000D03*
%TD*%
D14*
%TO.P,U6,1,~{RESET}/PC6*%
%TO.N,Net-(J5-Pad5)*%
X53635750Y-59827000D03*
D13*
%TO.P,U6,2,PD0*%
%TO.N,Net-(U6-Pad2)*%
X53635750Y-62367000D03*
%TO.P,U6,3,PD1*%
%TO.N,Net-(U6-Pad3)*%
X53635750Y-64907000D03*
%TO.P,U6,4,PD2*%
%TO.N,unconnected-(U6-Pad4)*%
X53635750Y-67447000D03*
%TO.P,U6,5,PD3*%
%TO.N,unconnected-(U6-Pad5)*%
X53635750Y-69987000D03*
%TO.P,U6,6,PD4*%
%TO.N,Net-(U6-Pad6)*%
X53635750Y-72527000D03*
%TO.P,U6,7,VCC*%
%TO.N,+5V*%
X53635750Y-75067000D03*
%TO.P,U6,8,GND*%
%TO.N,Earth*%
X53635750Y-77607000D03*
%TO.P,U6,9,XTAL1/PB6*%
%TO.N,Net-(C19-Pad1)*%
X53635750Y-80147000D03*
%TO.P,U6,10,XTAL2/PB7*%
%TO.N,Net-(C20-Pad2)*%
X53635750Y-82687000D03*
%TO.P,U6,11,PD5*%
%TO.N,Net-(U6-Pad11)*%
X53635750Y-85227000D03*
%TO.P,U6,12,PD6*%
%TO.N,Net-(U6-Pad12)*%
X53635750Y-87767000D03*
%TO.P,U6,13,PD7*%
%TO.N,Net-(U6-Pad13)*%
X53635750Y-90307000D03*
%TO.P,U6,14,PB0*%
%TO.N,unconnected-(U6-Pad14)*%
X53635750Y-92847000D03*
%TO.P,U6,15,PB1*%
%TO.N,Net-(R2-Pad2)*%
X61255750Y-92847000D03*
%TO.P,U6,16,PB2*%
%TO.N,Net-(R13-Pad2)*%
X61255750Y-90307000D03*
%TO.P,U6,17,PB3*%
%TO.N,Net-(J5-Pad1)*%
X61255750Y-87767000D03*
%TO.P,U6,18,PB4*%
%TO.N,Net-(J5-Pad4)*%
X61255750Y-85227000D03*
%TO.P,U6,19,PB5*%
%TO.N,Net-(J5-Pad3)*%
X61255750Y-82687000D03*
%TO.P,U6,20,AVCC*%
%TO.N,+5VA*%
X61255750Y-80147000D03*
%TO.P,U6,21,AREF*%
%TO.N,Net-(C21-Pad1)*%
X61255750Y-77607000D03*
%TO.P,U6,22,GND*%
%TO.N,Earth*%
X61255750Y-75067000D03*
%TO.P,U6,23,PC0*%
%TO.N,Net-(U5-Pad1)*%
X61255750Y-72527000D03*
%TO.P,U6,24,PC1*%
%TO.N,Net-(R22-Pad2)*%
X61255750Y-69987000D03*
%TO.P,U6,25,PC2*%
%TO.N,Net-(SW2-PadB)*%
X61255750Y-67447000D03*
%TO.P,U6,26,PC3*%
%TO.N,Net-(SW2-PadA)*%
X61255750Y-64907000D03*
%TO.P,U6,27,PC4*%
%TO.N,Net-(SW3-PadB)*%
X61255750Y-62367000D03*
%TO.P,U6,28,PC5*%
%TO.N,Net-(SW3-PadA)*%
X61255750Y-59827000D03*
%TD*%
D12*
%TO.P,R4,1*%
%TO.N,Net-(R4-Pad1)*%
X146335750Y-68199000D03*
D13*
%TO.P,R4,2*%
%TO.N,Earth*%
X153955750Y-68199000D03*
%TD*%
D12*
%TO.P,R23,1*%
%TO.N,Net-(R22-Pad1)*%
X92995750Y-59182000D03*
D13*
%TO.P,R23,2*%
%TO.N,Earth*%
X92995750Y-66802000D03*
%TD*%
D30*
%TO.P,Q1,1,E*%
%TO.N,VAA*%
X109760000Y-50460000D03*
D31*
%TO.P,Q1,2,B*%
%TO.N,Net-(C2-Pad1)*%
X108490000Y-50460000D03*
%TO.P,Q1,3,C*%
%TO.N,+VDC*%
X107220000Y-50460000D03*
%TD*%
D12*
%TO.P,R21,1*%
%TO.N,Net-(R20-Pad2)*%
X81057750Y-74041000D03*
D13*
%TO.P,R21,2*%
%TO.N,Earth*%
X88677750Y-74041000D03*
%TD*%
D14*
%TO.P,C10,1*%
%TO.N,Net-(C10-Pad1)*%
X158800000Y-70815113D03*
D12*
%TO.P,C10,2*%
%TO.N,Earth*%
X158800000Y-68815113D03*
%TD*%
D24*
%TO.P,F2,1*%
%TO.N,Net-(C11-Pad1)*%
X154230000Y-31550000D03*
X158830000Y-31550000D03*
%TO.P,F2,2*%
%TO.N,Net-(F2-Pad2)*%
X174730000Y-31550000D03*
X170130000Y-31550000D03*
%TD*%
D23*
%TO.P,J2,1,Pin_1*%
%TO.N,Earth*%
X44450000Y-60960000D03*
%TD*%
D28*
%TO.P,SW3,*%
%TO.N,*%
X189200000Y-84300000D03*
X189200000Y-89300000D03*
D17*
%TO.P,SW3,A,A*%
%TO.N,Net-(SW3-PadA)*%
X174700000Y-84300000D03*
D18*
%TO.P,SW3,B,B*%
%TO.N,Net-(SW3-PadB)*%
X174700000Y-89300000D03*
%TO.P,SW3,C,C*%
%TO.N,Earth*%
X174700000Y-86800000D03*
D29*
%TO.P,SW3,MP*%
%TO.N,N/C*%
X182200000Y-92400000D03*
X182200000Y-81200000D03*
%TD*%
D32*
%TO.P,HS1,1*%
%TO.N,N/C*%
X131770000Y-42580000D03*
X157170000Y-42580000D03*
%TD*%
D14*
%TO.P,C11,1*%
%TO.N,Net-(C11-Pad1)*%
X165280000Y-40284888D03*
D12*
%TO.P,C11,2*%
%TO.N,Earth*%
X165280000Y-42284888D03*
%TD*%
%TO.P,C14,1*%
%TO.N,Net-(C14-Pad1)*%
X79400000Y-91099000D03*
%TO.P,C14,2*%
%TO.N,Earth*%
X79400000Y-96099000D03*
%TD*%
D33*
%TO.P,U3,1,ADJ*%
%TO.N,Net-(C10-Pad1)*%
X146730000Y-38105000D03*
D34*
%TO.P,U3,2,VO*%
%TO.N,Net-(C11-Pad1)*%
X144190000Y-38105000D03*
%TO.P,U3,3,VI*%
%TO.N,Net-(D3-Pad1)*%
X141650000Y-38105000D03*
%TD*%
D10*
%TO.P,D1,1,K*%
%TO.N,+VDC*%
X56500000Y-43100000D03*
D11*
%TO.P,D1,2,A*%
%TO.N,Earth*%
X56500000Y-53260000D03*
%TD*%
D12*
%TO.P,C21,1*%
%TO.N,Net-(C21-Pad1)*%
X72421750Y-79883000D03*
%TO.P,C21,2*%
%TO.N,Earth*%
X72421750Y-74883000D03*
%TD*%
%TO.P,R24,1*%
%TO.N,+5VA*%
X65055750Y-83058000D03*
D13*
%TO.P,R24,2*%
%TO.N,Net-(C21-Pad1)*%
X72675750Y-83058000D03*
%TD*%
D14*
%TO.P,U5,1*%
%TO.N,Net-(U5-Pad1)*%
X80549750Y-70612000D03*
D13*
%TO.P,U5,2,-*%
X83089750Y-70612000D03*
%TO.P,U5,3,+*%
%TO.N,Net-(R20-Pad2)*%
X85629750Y-70612000D03*
%TO.P,U5,4,V-*%
%TO.N,Earth*%
X88169750Y-70612000D03*
%TO.P,U5,5,+*%
%TO.N,Net-(R12-Pad1)*%
X88169750Y-62992000D03*
%TO.P,U5,6,-*%
%TO.N,Net-(R22-Pad1)*%
X85629750Y-62992000D03*
%TO.P,U5,7*%
%TO.N,Net-(R22-Pad2)*%
X83089750Y-62992000D03*
%TO.P,U5,8,V+*%
%TO.N,+5V*%
X80549750Y-62992000D03*
%TD*%
D12*
%TO.P,R2,1*%
%TO.N,Net-(C8-Pad1)*%
X82800000Y-89900000D03*
D13*
%TO.P,R2,2*%
%TO.N,Net-(R2-Pad2)*%
X82800000Y-97520000D03*
%TD*%
D12*
%TO.P,R6,1*%
%TO.N,Net-(R6-Pad1)*%
X146225000Y-64475000D03*
D13*
%TO.P,R6,2*%
%TO.N,Net-(Q2-Pad3)*%
X153845000Y-64475000D03*
%TD*%
D24*
%TO.P,Y1,1,1*%
%TO.N,Net-(C19-Pad1)*%
X48850000Y-80500000D03*
%TO.P,Y1,2,2*%
%TO.N,Net-(C20-Pad2)*%
X48850000Y-85400000D03*
%TD*%
D12*
%TO.P,C4,1*%
%TO.N,VAA*%
X70897750Y-45085000D03*
%TO.P,C4,2*%
%TO.N,Earth*%
X70897750Y-50085000D03*
%TD*%
%TO.P,C15,1*%
%TO.N,Net-(C15-Pad1)*%
X79400000Y-80800000D03*
%TO.P,C15,2*%
%TO.N,Earth*%
X79400000Y-85800000D03*
%TD*%
D30*
%TO.P,Q2,1,E*%
%TO.N,Earth*%
X147275000Y-59175000D03*
D31*
%TO.P,Q2,2,B*%
%TO.N,Net-(Q2-Pad2)*%
X148545000Y-59175000D03*
%TO.P,Q2,3,C*%
%TO.N,Net-(Q2-Pad3)*%
X149815000Y-59175000D03*
%TD*%
D35*
%TO.P,U7,1,VSS*%
%TO.N,Earth*%
X129500000Y-82200000D03*
D36*
%TO.P,U7,2,VDD*%
%TO.N,+5V*%
X132040000Y-82200000D03*
%TO.P,U7,3,VO*%
%TO.N,Net-(RV1-Pad2)*%
X134580000Y-82200000D03*
%TO.P,U7,4,RS*%
%TO.N,Net-(U6-Pad2)*%
X137120000Y-82200000D03*
%TO.P,U7,5,R/W*%
%TO.N,Earth*%
X139660000Y-82200000D03*
%TO.P,U7,6,E*%
%TO.N,Net-(U6-Pad3)*%
X142200000Y-82200000D03*
%TO.P,U7,7,DB0*%
%TO.N,unconnected-(U7-Pad7)*%
X144740000Y-82200000D03*
%TO.P,U7,8,DB1*%
%TO.N,unconnected-(U7-Pad8)*%
X147280000Y-82200000D03*
%TO.P,U7,9,DB2*%
%TO.N,unconnected-(U7-Pad9)*%
X149820000Y-82200000D03*
%TO.P,U7,10,DB3*%
%TO.N,unconnected-(U7-Pad10)*%
X152360000Y-82200000D03*
%TO.P,U7,11,DB4*%
%TO.N,Net-(U6-Pad6)*%
X154900000Y-82200000D03*
%TO.P,U7,12,DB5*%
%TO.N,Net-(U6-Pad11)*%
X157440000Y-82200000D03*
%TO.P,U7,13,DB6*%
%TO.N,Net-(U6-Pad12)*%
X159985080Y-82202540D03*
%TO.P,U7,14,DB7*%
%TO.N,Net-(U6-Pad13)*%
X162520000Y-82200000D03*
%TO.P,U7,15,A/VEE*%
%TO.N,unconnected-(U7-Pad15)*%
X124420000Y-82200000D03*
%TO.P,U7,16,K*%
%TO.N,unconnected-(U7-Pad16)*%
X126965080Y-82202540D03*
D17*
%TO.P,U7,A1*%
%TO.N,N/C*%
X90220000Y-108880000D03*
X92760000Y-106340000D03*
X90220000Y-106340000D03*
%TO.P,U7,K1*%
X90220000Y-98720000D03*
X90220000Y-101260000D03*
X92760000Y-101260000D03*
%TD*%
D12*
%TO.P,R7,1*%
%TO.N,Net-(C10-Pad1)*%
X145250000Y-54625000D03*
D13*
%TO.P,R7,2*%
%TO.N,Net-(Q2-Pad3)*%
X152870000Y-54625000D03*
%TD*%
D14*
%TO.P,C3,1*%
%TO.N,VAA*%
X88296750Y-47056112D03*
D12*
%TO.P,C3,2*%
%TO.N,Earth*%
X88296750Y-45056112D03*
%TD*%
%TO.P,R15,1*%
%TO.N,Net-(Q2-Pad2)*%
X102647750Y-69977000D03*
D13*
%TO.P,R15,2*%
%TO.N,Net-(R15-Pad2)*%
X102647750Y-62357000D03*
%TD*%
D12*
%TO.P,R16,1*%
%TO.N,Net-(D3-Pad1)*%
X113220000Y-44330000D03*
D13*
%TO.P,R16,2*%
%TO.N,+VDC*%
X113220000Y-36710000D03*
%TD*%
D12*
%TO.P,C9,1*%
%TO.N,Net-(C9-Pad1)*%
X86200000Y-81153000D03*
%TO.P,C9,2*%
%TO.N,Earth*%
X86200000Y-86153000D03*
%TD*%
D17*
%TO.P,C1,1*%
%TO.N,+VDC*%
X85100000Y-35859323D03*
D18*
%TO.P,C1,2*%
%TO.N,Earth*%
X85100000Y-40859323D03*
%TD*%
D12*
%TO.P,R22,1*%
%TO.N,Net-(R22-Pad1)*%
X88677750Y-59436000D03*
D13*
%TO.P,R22,2*%
%TO.N,Net-(R22-Pad2)*%
X81057750Y-59436000D03*
%TD*%
D14*
%TO.P,C6,1*%
%TO.N,+5V*%
X65563750Y-54483000D03*
D12*
%TO.P,C6,2*%
%TO.N,Earth*%
X65563750Y-52483000D03*
%TD*%
D37*
%TO.P,FB1,1*%
%TO.N,+5V*%
X65225000Y-59775000D03*
D38*
%TO.P,FB1,2*%
%TO.N,+5VA*%
X65225000Y-72475000D03*
%TD*%
D12*
%TO.P,R12,1*%
%TO.N,Net-(R12-Pad1)*%
X129440000Y-63750000D03*
D13*
%TO.P,R12,2*%
%TO.N,Net-(R10-Pad2)*%
X121820000Y-63750000D03*
%TD*%
D12*
%TO.P,C7,1*%
%TO.N,VAA*%
X135425000Y-53950000D03*
%TO.P,C7,2*%
%TO.N,Earth*%
X140425000Y-53950000D03*
%TD*%
D39*
%TO.N,VAA*%
X135365000Y-54010000D02*
X135425000Y-53950000D01*
X109760000Y-50460000D02*
X113310000Y-54010000D01*
X113310000Y-54010000D02*
X135365000Y-54010000D01*
%TO.N,Earth*%
X40900000Y-73275000D02*
X42975000Y-71200000D01*
D40*
X183410000Y-60960000D02*
X184150000Y-60960000D01*
D39*
X40900000Y-90625000D02*
X40900000Y-100300000D01*
D40*
X104100000Y-41725000D02*
X104100000Y-39850000D01*
D39*
X74199750Y-85090000D02*
X71700000Y-87589750D01*
D41*
X121697750Y-69177750D02*
X122310000Y-69790000D01*
D39*
X98075750Y-52371000D02*
X103743750Y-58039000D01*
X107820000Y-58470000D02*
X108600000Y-59250000D01*
X140425000Y-59620000D02*
X134625000Y-65420000D01*
D41*
X121697750Y-67632250D02*
X121697750Y-69177750D01*
D39*
X70262750Y-59436000D02*
X71278750Y-59436000D01*
D41*
X158800000Y-55500000D02*
X158800000Y-68815113D01*
D39*
X51600000Y-54673600D02*
X51126400Y-54673600D01*
X71700000Y-96400000D02*
X71700000Y-98257750D01*
D40*
X155730000Y-51260000D02*
X159385000Y-54915000D01*
X115510000Y-51260000D02*
X155730000Y-51260000D01*
D39*
X51126400Y-54673600D02*
X50550000Y-55250000D01*
X76993750Y-68881000D02*
X86438750Y-68881000D01*
D40*
X85100000Y-40859323D02*
X85100000Y-39000000D01*
D41*
X88431600Y-108631601D02*
X87200000Y-107400000D01*
X129500000Y-84900000D02*
X103427400Y-110972600D01*
D39*
X71278750Y-59436000D02*
X74199750Y-59436000D01*
D40*
X58451750Y-53213000D02*
X60229750Y-51435000D01*
D39*
X170800000Y-86800000D02*
X170800000Y-102800000D01*
D41*
X174700000Y-102900000D02*
X170900000Y-102900000D01*
D39*
X70135750Y-55923630D02*
X70814380Y-55245000D01*
X68499750Y-52483000D02*
X70897750Y-50085000D01*
D41*
X68611750Y-76327000D02*
X70977750Y-76327000D01*
D39*
X64500000Y-123900000D02*
X151975750Y-123900000D01*
X129500000Y-79350000D02*
X139650000Y-79350000D01*
D40*
X174980000Y-47650000D02*
X174980000Y-50010000D01*
D41*
X121770000Y-67560000D02*
X121697750Y-67632250D01*
D40*
X93411427Y-44669323D02*
X93411427Y-39481427D01*
D41*
X88677750Y-71120000D02*
X88169750Y-70612000D01*
X174700000Y-86800000D02*
X170800000Y-86800000D01*
X134661750Y-69088250D02*
X134661750Y-65456750D01*
D40*
X183910000Y-61200000D02*
X184150000Y-60960000D01*
D41*
X41125000Y-90400000D02*
X44050000Y-90400000D01*
X87200000Y-107400000D02*
X79800000Y-107400000D01*
D39*
X167830000Y-50550000D02*
X170800000Y-50550000D01*
D40*
X92870000Y-38940000D02*
X93670000Y-39740000D01*
D39*
X108600000Y-59250000D02*
X108600000Y-68108750D01*
D41*
X41050000Y-90475000D02*
X41125000Y-90400000D01*
X147275000Y-59175000D02*
X147275000Y-61518250D01*
D39*
X44400000Y-71200000D02*
X47300000Y-74100000D01*
D40*
X103990000Y-39740000D02*
X115510000Y-51260000D01*
D39*
X170790000Y-50540000D02*
X170800000Y-50550000D01*
D41*
X122310000Y-69790000D02*
X133960000Y-69790000D01*
X61255750Y-75067000D02*
X67351750Y-75067000D01*
D39*
X43600000Y-70525000D02*
X45875000Y-70525000D01*
X50577750Y-67922250D02*
X50577750Y-70184000D01*
D41*
X91979750Y-66802000D02*
X92995750Y-66802000D01*
D40*
X60229750Y-51435000D02*
X60229750Y-49370250D01*
D41*
X133960000Y-69790000D02*
X134661750Y-69088250D01*
D39*
X72421750Y-74883000D02*
X73771750Y-74883000D01*
D41*
X88169750Y-70612000D02*
X91979750Y-66802000D01*
D39*
X74199750Y-69342000D02*
X74660750Y-68881000D01*
D41*
X79388000Y-85812000D02*
X79400000Y-85800000D01*
D39*
X48500000Y-67900000D02*
X50600000Y-67900000D01*
D41*
X79400000Y-96099000D02*
X72001000Y-96099000D01*
D40*
X50550000Y-55250000D02*
X44800000Y-61000000D01*
X93670000Y-39740000D02*
X103990000Y-39740000D01*
D39*
X165280000Y-42284888D02*
X165280000Y-48000000D01*
X170800000Y-79350000D02*
X170800000Y-86800000D01*
D40*
X80480677Y-40859323D02*
X82400000Y-38940000D01*
D41*
X86139000Y-96139000D02*
X86200000Y-96200000D01*
D39*
X129500000Y-82200000D02*
X129500000Y-79350000D01*
D41*
X85859000Y-85812000D02*
X86200000Y-86153000D01*
D39*
X50600000Y-67900000D02*
X50577750Y-67922250D01*
X174440000Y-50550000D02*
X174980000Y-50010000D01*
X108600000Y-68108750D02*
X106721750Y-69987000D01*
D41*
X44050000Y-75450000D02*
X44000000Y-75500000D01*
D39*
X88296750Y-45056112D02*
X93024638Y-45056112D01*
D40*
X60229750Y-49370250D02*
X65626365Y-43973635D01*
D39*
X73009750Y-50085000D02*
X75469750Y-47625000D01*
D41*
X74199750Y-85090000D02*
X74921750Y-85812000D01*
D39*
X51600000Y-67900000D02*
X51600000Y-54673600D01*
D41*
X88431600Y-109991600D02*
X88431600Y-108631601D01*
X79800000Y-107400000D02*
X77800000Y-109400000D01*
X77800000Y-109400000D02*
X77800000Y-110600000D01*
D40*
X104100000Y-39850000D02*
X103990000Y-39740000D01*
D41*
X72001000Y-96099000D02*
X71700000Y-96400000D01*
D39*
X151975750Y-123900000D02*
X170800000Y-105075750D01*
X74199750Y-75311000D02*
X74199750Y-85090000D01*
D40*
X85160000Y-38940000D02*
X92870000Y-38940000D01*
X65722385Y-43973635D02*
X68836697Y-40859323D01*
D39*
X107389000Y-58039000D02*
X107820000Y-58470000D01*
X70135750Y-59309000D02*
X70262750Y-59436000D01*
D41*
X79400000Y-96099000D02*
X79440000Y-96139000D01*
X44000000Y-75500000D02*
X41350000Y-75500000D01*
D39*
X140413750Y-53938750D02*
X140413750Y-51053750D01*
D41*
X103427400Y-110972600D02*
X89412600Y-110972600D01*
D39*
X70897750Y-50085000D02*
X73009750Y-50085000D01*
X47300000Y-77000000D02*
X47907000Y-77607000D01*
D40*
X52587000Y-53213000D02*
X58451750Y-53213000D01*
D41*
X74921750Y-85812000D02*
X79388000Y-85812000D01*
D39*
X47907000Y-77607000D02*
X53635750Y-77607000D01*
D41*
X79412000Y-85812000D02*
X85859000Y-85812000D01*
D39*
X139660000Y-82200000D02*
X139660000Y-79360000D01*
X71700000Y-98257750D02*
X66833750Y-103124000D01*
D41*
X79400000Y-85800000D02*
X79412000Y-85812000D01*
D39*
X139650000Y-79350000D02*
X170800000Y-79350000D01*
D40*
X85100000Y-39000000D02*
X85160000Y-38940000D01*
D39*
X70814380Y-55245000D02*
X72969750Y-55245000D01*
D40*
X50550000Y-55250000D02*
X52587000Y-53213000D01*
D39*
X70135750Y-55923630D02*
X70135750Y-59309000D01*
X86438750Y-68881000D02*
X88169750Y-70612000D01*
D41*
X134661750Y-65456750D02*
X134625000Y-65420000D01*
D40*
X68836697Y-40859323D02*
X80480677Y-40859323D01*
D41*
X67351750Y-75067000D02*
X68611750Y-76327000D01*
D39*
X70897750Y-50085000D02*
X65722385Y-44909635D01*
D41*
X79440000Y-96139000D02*
X86139000Y-96139000D01*
D39*
X43600000Y-70575000D02*
X42975000Y-71200000D01*
X71024750Y-59690000D02*
X71278750Y-59436000D01*
X40900000Y-75950000D02*
X40900000Y-73275000D01*
X170790000Y-46260000D02*
X170790000Y-50540000D01*
X103743750Y-58039000D02*
X107389000Y-58039000D01*
X50600000Y-67900000D02*
X51600000Y-67900000D01*
D40*
X165670000Y-61200000D02*
X183910000Y-61200000D01*
D39*
X47300000Y-74100000D02*
X47300000Y-77000000D01*
X66695120Y-52483000D02*
X70135750Y-55923630D01*
X170800000Y-50550000D02*
X174440000Y-50550000D01*
D41*
X70977750Y-76327000D02*
X72421750Y-74883000D01*
D39*
X170800000Y-105075750D02*
X170800000Y-102800000D01*
X140425000Y-53950000D02*
X140413750Y-53938750D01*
X93024638Y-45056112D02*
X93411427Y-44669323D01*
X65722385Y-44909635D02*
X65722385Y-43973635D01*
D40*
X93411427Y-39481427D02*
X92870000Y-38940000D01*
D41*
X147275000Y-61518250D02*
X153955750Y-68199000D01*
D40*
X159385000Y-54915000D02*
X165670000Y-61200000D01*
D39*
X74660750Y-68881000D02*
X76993750Y-68881000D01*
D40*
X174980000Y-50010000D02*
X174980000Y-52530000D01*
D39*
X71700000Y-87589750D02*
X71700000Y-96400000D01*
X140425000Y-53950000D02*
X140425000Y-59620000D01*
X73771750Y-74883000D02*
X74199750Y-75311000D01*
X71024750Y-63580000D02*
X71024750Y-59690000D01*
X40900000Y-75950000D02*
X40900000Y-90325000D01*
X40900000Y-100300000D02*
X64500000Y-123900000D01*
X43600000Y-70525000D02*
X43600000Y-70575000D01*
D40*
X65626365Y-43973635D02*
X65722385Y-43973635D01*
X82400000Y-38940000D02*
X85160000Y-38940000D01*
D39*
X65563750Y-52483000D02*
X68499750Y-52483000D01*
X45875000Y-70525000D02*
X48500000Y-67900000D01*
D41*
X88677750Y-74041000D02*
X88677750Y-71120000D01*
D40*
X93411427Y-47706677D02*
X98075750Y-52371000D01*
X174980000Y-52530000D02*
X183410000Y-60960000D01*
D41*
X89412600Y-110972600D02*
X88431600Y-109991600D01*
X41350000Y-75500000D02*
X40900000Y-75950000D01*
D39*
X165280000Y-48000000D02*
X167830000Y-50550000D01*
X74199750Y-59436000D02*
X74199750Y-69342000D01*
X42975000Y-71200000D02*
X44400000Y-71200000D01*
D40*
X93411427Y-44669323D02*
X93411427Y-47706677D01*
D41*
X129500000Y-82200000D02*
X129500000Y-84900000D01*
D39*
X74199750Y-69342000D02*
X74199750Y-75311000D01*
X139660000Y-79360000D02*
X139650000Y-79350000D01*
D41*
X170900000Y-102900000D02*
X170800000Y-102800000D01*
D40*
%TO.N,+VDC*%
X68970000Y-35830000D02*
X61700000Y-43100000D01*
X72860000Y-35890000D02*
X72800000Y-35830000D01*
X72800000Y-35830000D02*
X68970000Y-35830000D01*
X85100000Y-35859323D02*
X79567677Y-35859323D01*
X79567677Y-35859323D02*
X79537000Y-35890000D01*
X72860000Y-35890000D02*
X77460000Y-35890000D01*
X97795677Y-35859323D02*
X98100000Y-35555000D01*
X85100000Y-35859323D02*
X97795677Y-35859323D01*
X98100000Y-35555000D02*
X99195000Y-36650000D01*
X123825000Y-36725000D02*
X123840000Y-36740000D01*
X99195000Y-36650000D02*
X104025000Y-36650000D01*
X104025000Y-36650000D02*
X104100000Y-36725000D01*
X104100000Y-36725000D02*
X123825000Y-36725000D01*
X61700000Y-43100000D02*
X56500000Y-43100000D01*
X79537000Y-35890000D02*
X77460000Y-35890000D01*
D39*
%TO.N,Net-(C2-Pad1)*%
X108530000Y-52664750D02*
X108530000Y-50500000D01*
X98100000Y-43175000D02*
X98075750Y-43199250D01*
X98075750Y-43199250D02*
X98075750Y-47371000D01*
X98075750Y-47371000D02*
X104884750Y-54180000D01*
X107014750Y-54180000D02*
X108530000Y-52664750D01*
X104884750Y-54180000D02*
X107014750Y-54180000D01*
X108530000Y-50500000D02*
X108490000Y-50460000D01*
%TO.N,Net-(C11-Pad1)*%
X170790000Y-38202000D02*
X170078000Y-37490000D01*
X138480000Y-34200000D02*
X143190000Y-34200000D01*
D40*
X154230000Y-31550000D02*
X158830000Y-31550000D01*
D39*
X143190000Y-34200000D02*
X144190000Y-35200000D01*
D40*
X165040000Y-34480000D02*
X168050000Y-37490000D01*
X170078000Y-37490000D02*
X174980000Y-37490000D01*
D39*
X170790000Y-38640000D02*
X170790000Y-38202000D01*
D40*
X147840000Y-31550000D02*
X154230000Y-31550000D01*
X144190000Y-35200000D02*
X147840000Y-31550000D01*
D39*
X144190000Y-41570000D02*
X144190000Y-38105000D01*
X165280000Y-40284888D02*
X165280000Y-34720000D01*
D40*
X162110000Y-31550000D02*
X165040000Y-34480000D01*
D39*
X165280000Y-34720000D02*
X165040000Y-34480000D01*
X149310000Y-46690000D02*
X144190000Y-41570000D01*
D40*
X158830000Y-31550000D02*
X162110000Y-31550000D01*
X144190000Y-38105000D02*
X144190000Y-35200000D01*
X168050000Y-37490000D02*
X170078000Y-37490000D01*
D41*
%TO.N,Net-(C21-Pad1)*%
X61265750Y-77597000D02*
X61255750Y-77607000D01*
X68611750Y-77597000D02*
X70135750Y-77597000D01*
X72675750Y-80137000D02*
X72421750Y-79883000D01*
X72675750Y-83058000D02*
X72675750Y-80137000D01*
X68611750Y-77597000D02*
X61265750Y-77597000D01*
X70135750Y-77597000D02*
X72421750Y-79883000D01*
D39*
%TO.N,Net-(D3-Pad1)*%
X139150000Y-39000000D02*
X140045000Y-38105000D01*
D40*
X113220000Y-44330000D02*
X123810000Y-44330000D01*
X140045000Y-38105000D02*
X141650000Y-38105000D01*
X123840000Y-44360000D02*
X123965000Y-44360000D01*
X123965000Y-44360000D02*
X130220000Y-38105000D01*
X130220000Y-38105000D02*
X140045000Y-38105000D01*
D39*
X139150000Y-46690000D02*
X139150000Y-39000000D01*
D40*
X123810000Y-44330000D02*
X123840000Y-44360000D01*
%TO.N,Net-(F1-Pad1)*%
X61500000Y-35830000D02*
X51970000Y-35830000D01*
X51970000Y-35830000D02*
X44620000Y-43180000D01*
X44620000Y-43180000D02*
X44450000Y-43180000D01*
X61560000Y-35890000D02*
X61500000Y-35830000D01*
%TO.N,Net-(F2-Pad2)*%
X174730000Y-31550000D02*
X183500000Y-40320000D01*
X170130000Y-31550000D02*
X174730000Y-31550000D01*
D41*
%TO.N,Net-(J5-Pad1)*%
X59195750Y-89827000D02*
X59195750Y-98135050D01*
X64166750Y-98171000D02*
X64293750Y-98044000D01*
X59195750Y-98135050D02*
X59231700Y-98171000D01*
X59231700Y-98171000D02*
X64166750Y-98171000D01*
X61255750Y-87767000D02*
X59195750Y-89827000D01*
%TO.N,Net-(J5-Pad3)*%
X58495750Y-85447000D02*
X61255750Y-82687000D01*
X58495750Y-98425000D02*
X58495750Y-85447000D01*
X64293750Y-100584000D02*
X60654750Y-100584000D01*
X60654750Y-100584000D02*
X58495750Y-98425000D01*
%TO.N,Net-(J5-Pad4)*%
X69881750Y-87503000D02*
X67605750Y-85227000D01*
X67605750Y-85227000D02*
X61255750Y-85227000D01*
X69881750Y-98679000D02*
X69881750Y-87503000D01*
X67976750Y-100584000D02*
X69881750Y-98679000D01*
X66833750Y-100584000D02*
X67976750Y-100584000D01*
%TO.N,Net-(Q2-Pad2)*%
X107170750Y-74500000D02*
X155300000Y-74500000D01*
X155300000Y-61625000D02*
X148561750Y-61625000D01*
X102647750Y-69977000D02*
X107170750Y-74500000D01*
X148561750Y-59191750D02*
X148545000Y-59175000D01*
X148561750Y-61625000D02*
X148561750Y-59191750D01*
X155300000Y-74500000D02*
X155300000Y-61625000D01*
%TO.N,Net-(R12-Pad1)*%
X131857750Y-61312250D02*
X131857750Y-59202250D01*
X129440000Y-63750000D02*
X129440000Y-63730000D01*
X98212750Y-67447000D02*
X106721750Y-67447000D01*
X129440000Y-63730000D02*
X131857750Y-61312250D01*
X93757750Y-62992000D02*
X98212750Y-67447000D01*
X88169750Y-62992000D02*
X93757750Y-62992000D01*
X133260000Y-57800000D02*
X134625000Y-57800000D01*
X131857750Y-59202250D02*
X133260000Y-57800000D01*
%TO.N,Net-(R11-Pad1)*%
X129350000Y-56080000D02*
X127285750Y-58144250D01*
X127285750Y-65455750D02*
X129390000Y-67560000D01*
X127285750Y-58144250D02*
X127285750Y-65455750D01*
D42*
%TO.N,Net-(SW2-PadA)*%
X57395750Y-68767000D02*
X57395750Y-99173049D01*
X106907106Y-77500000D02*
X176807108Y-77500000D01*
X64022701Y-105800000D02*
X86485788Y-105800000D01*
X178200000Y-98400000D02*
X176200000Y-100400000D01*
X176200000Y-100400000D02*
X174700000Y-100400000D01*
X176807108Y-77500000D02*
X178200001Y-78892894D01*
X96910000Y-102295788D02*
X96910000Y-87497106D01*
X61255750Y-64907000D02*
X57395750Y-68767000D01*
X88685788Y-103600000D02*
X95605788Y-103600000D01*
X96910000Y-87497106D02*
X106907106Y-77500000D01*
X178200001Y-78892894D02*
X178200000Y-98400000D01*
X86485788Y-105800000D02*
X88685788Y-103600000D01*
X57395750Y-99173049D02*
X64022701Y-105800000D01*
X95605788Y-103600000D02*
X96910000Y-102295788D01*
%TO.N,Net-(SW2-PadB)*%
X95498682Y-103000000D02*
X96410000Y-102088682D01*
X57895750Y-98683099D02*
X64512651Y-105300000D01*
X178700001Y-78685787D02*
X178700000Y-102900000D01*
X177014215Y-77000000D02*
X178700001Y-78685787D01*
X176200000Y-105400000D02*
X174700000Y-105400000D01*
X88578682Y-103000000D02*
X95498682Y-103000000D01*
X64512651Y-105300000D02*
X86278682Y-105300000D01*
X106700000Y-77000000D02*
X177014215Y-77000000D01*
X61255750Y-67447000D02*
X57895750Y-70807000D01*
X57895750Y-70807000D02*
X57895750Y-98683099D01*
X96410000Y-102088682D02*
X96410000Y-87290000D01*
X178700000Y-102900000D02*
X176200000Y-105400000D01*
X86278682Y-105300000D02*
X88578682Y-103000000D01*
X96410000Y-87290000D02*
X106700000Y-77000000D01*
%TO.N,Net-(SW3-PadA)*%
X176392894Y-78500000D02*
X177200000Y-79307106D01*
X177200000Y-79307106D02*
X177200000Y-83200000D01*
X97910000Y-87911318D02*
X107321318Y-78500000D01*
X56395750Y-64687000D02*
X56395750Y-100152947D01*
X97910000Y-102710000D02*
X97910000Y-87911318D01*
X177200000Y-83200000D02*
X176100000Y-84300000D01*
X63042803Y-106800000D02*
X86900002Y-106800000D01*
X56395750Y-100152947D02*
X63042803Y-106800000D01*
X61255750Y-59827000D02*
X56395750Y-64687000D01*
X86900002Y-106800000D02*
X89000000Y-104700000D01*
X107321318Y-78500000D02*
X176392894Y-78500000D01*
X89000000Y-104700000D02*
X95920000Y-104700000D01*
X95920000Y-104700000D02*
X97910000Y-102710000D01*
X176100000Y-84300000D02*
X174700000Y-84300000D01*
%TO.N,Net-(SW3-PadB)*%
X95712894Y-104200000D02*
X97410000Y-102502894D01*
X107114212Y-78000000D02*
X176600001Y-78000000D01*
X56895750Y-66727000D02*
X56895750Y-99662998D01*
X176100000Y-89300000D02*
X174700000Y-89300000D01*
X86692895Y-106300000D02*
X88792894Y-104200000D01*
X56895750Y-99662998D02*
X63532752Y-106300000D01*
X97410000Y-87704212D02*
X107114212Y-78000000D01*
X97410000Y-102502894D02*
X97410000Y-87704212D01*
X61255750Y-62367000D02*
X56895750Y-66727000D01*
X88792894Y-104200000D02*
X95712894Y-104200000D01*
X177700000Y-87700000D02*
X176100000Y-89300000D01*
X63532752Y-106300000D02*
X86692895Y-106300000D01*
X176600001Y-78000000D02*
X177700000Y-79100000D01*
X177700000Y-79100000D02*
X177700000Y-87700000D01*
%TO.N,Net-(U6-Pad2)*%
X128410750Y-122000000D02*
X137120000Y-113290750D01*
X53635750Y-62367000D02*
X55895750Y-64627000D01*
X55895750Y-64627000D02*
X55895750Y-112679456D01*
X55895750Y-112679456D02*
X65216294Y-122000000D01*
X65216294Y-122000000D02*
X128410750Y-122000000D01*
X137120000Y-113290750D02*
X137120000Y-82200000D01*
%TO.N,Net-(U6-Pad3)*%
X128617857Y-122500000D02*
X137605375Y-113512481D01*
X65009188Y-122500000D02*
X128617857Y-122500000D01*
X137605375Y-113512481D02*
X137605375Y-113494625D01*
X142200000Y-108900000D02*
X142200000Y-82200000D01*
X55395750Y-112886562D02*
X65009188Y-122500000D01*
X137605375Y-113494625D02*
X142200000Y-108900000D01*
X53635750Y-64907000D02*
X55395750Y-66667000D01*
X55395750Y-66667000D02*
X55395750Y-112886562D01*
%TO.N,Net-(U6-Pad6)*%
X54270750Y-72527000D02*
X54895750Y-73152000D01*
X138105375Y-113701731D02*
X154900000Y-96907106D01*
X54895750Y-113093668D02*
X64802082Y-123000000D01*
X138105375Y-113719587D02*
X138105375Y-113701731D01*
X154900000Y-96907106D02*
X154900000Y-82200000D01*
X128824962Y-123000000D02*
X138105375Y-113719587D01*
X64802082Y-123000000D02*
X128824962Y-123000000D01*
X54895750Y-73152000D02*
X54895750Y-113093668D01*
X53635750Y-72527000D02*
X54270750Y-72527000D01*
D41*
%TO.N,Net-(RV1-Pad2)*%
X108190800Y-111709200D02*
X89159251Y-111709200D01*
X81100000Y-108100000D02*
X80300000Y-108900000D01*
X89159251Y-111709200D02*
X87731600Y-110281549D01*
X87731600Y-108921550D02*
X86910050Y-108100000D01*
X87731600Y-110281549D02*
X87731600Y-108921550D01*
X86910050Y-108100000D02*
X81100000Y-108100000D01*
X134580000Y-82200000D02*
X134580000Y-85320000D01*
X80300000Y-108900000D02*
X80300000Y-110600000D01*
X134580000Y-85320000D02*
X108190800Y-111709200D01*
%TD*%
M02*
